<svg xmlns="http://www.w3.org/2000/svg" width="100%" height="100%" viewBox="0 0 93.9 98.829">
  <defs>
    <style>
      .cls-1 {
        fill: #7b7b7b;
      }

      .cls-2 {
        fill: #cbcbcb;
      }

      .cls-3 {
        fill: #aaa;
      }

      .cls-4 {
        fill: #adc4c9;
      }

      .cls-5 {
        fill: #b5cdd2;
      }

      .cls-6 {
        fill: #95a8ad;
      }

      .cls-7 {
        fill: #a1b6bb;
      }

      .cls-8 {
        fill: #78888c;
      }

      .cls-9 {
        fill: #5b5b5b;
      }

      .cls-10 {
        fill: #6d6d6d;
      }

      .cls-11 {
        fill: #484848;
      }

      .cls-12 {
        fill: #bd3e3e;
      }

      .cls-13 {
        fill: #802b2b;
      }

      .cls-14 {
        fill: #bbb;
      }

      .cls-15 {
        fill: #ac3939;
      }

      .cls-16 {
        fill: #e9e9e9;
      }

      .cls-17 {
        fill: #a3a3a3;
      }

      .cls-18 {
        fill: #d9d9d9;
      }

      .cls-19 {
        fill: #eee;
      }

      .cls-20 {
        fill: #5d4b6b;
      }

      .cls-21 {
        fill: #4a3c55;
      }
    </style>
  </defs>
  <g id="arrowhead" transform="translate(-59.05 2374.414) rotate(-90)">
    <g id="Group_615" data-name="Group 615">
      <g id="Group_614" data-name="Group 614">
        <path id="Path_2474" data-name="Path 2474" class="cls-1" d="M2331,122.95v-10a1.89,1.89,0,0,0-2-2h-8a1.9,1.9,0,0,0-1.4.55,1.975,1.975,0,0,0-.6,1.45v10a1.815,1.815,0,0,0,.6,1.4l1.4,1.45v14.3l-3.4,3.4a1.975,1.975,0,0,0-.6,1.45v6a2.051,2.051,0,0,0,2,2h12a1.975,1.975,0,0,0,1.45-.6,1.9,1.9,0,0,0,.55-1.4v-6a2.069,2.069,0,0,0-.55-1.45l-3.45-3.4V125.8l1.45-1.45a1.9,1.9,0,0,0,.55-1.4m-2-10v10l-2,2v16l4,4v6h-12v-6l4-4v-16l-2-2v-10Z"/>
        <path id="Path_2475" data-name="Path 2475" class="cls-2" d="M2323,140.95l-4,4v6h12v-6l-4-4h-4m6-18v-10h-8v10l2,2h4Z"/>
        <path id="Path_2476" data-name="Path 2476" class="cls-3" d="M2327,124.95h-4v16h4Z"/>
      </g>
    </g>
    <g id="Group_617" data-name="Group 617">
      <g id="Group_616" data-name="Group 616">
        <path id="Path_2477" data-name="Path 2477" class="cls-4" d="M2343,115.05v-10h-36v10h36m-27-31-4,4h26l-4-4Z"/>
        <path id="Path_2478" data-name="Path 2478" class="cls-5" d="M2343,118.05v-3h-36v3l4.15,4.65,26.85.35Z"/>
        <path id="Path_2479" data-name="Path 2479" class="cls-6" d="M2338,105.05v-5h-26v5Z"/>
        <path id="Path_2480" data-name="Path 2480" class="cls-7" d="M2338,88.05h-26v12h26Z"/>
        <path id="Path_2481" data-name="Path 2481" class="cls-8" d="M2316,84.05l-2-.85-3.4,3.4a1.975,1.975,0,0,0-.6,1.45v15h-3a1.9,1.9,0,0,0-1.4.55,1.975,1.975,0,0,0-.6,1.45v13a1.869,1.869,0,0,0,.5,1.3l4.15,4.65a1.7,1.7,0,0,0,.7.5,1.582,1.582,0,0,0,.8.2l26.85.35a2.087,2.087,0,0,0,1.45-.6l5-5a1.9,1.9,0,0,0,.55-1.4v-13a1.89,1.89,0,0,0-2-2h-3v-15a2.069,2.069,0,0,0-.55-1.45L2336,83.2l-2,.85,4,4v17h5v13l-5,5-26.85-.35-4.15-4.65v-13h5v-17Z"/>
        <path id="Path_2482" data-name="Path 2482" class="cls-9" d="M2334,64.05l-4-3h-11l-3,3v20h18v-20m-15,1h2v10h-2v-10m2,12v4h-2v-4Z"/>
        <path id="Path_2483" data-name="Path 2483" class="cls-10" d="M2321,81.05v-4h-2v4h2m0-16h-2v10h2Z"/>
        <path id="Path_2484" data-name="Path 2484" class="cls-11" d="M2330,61.05l4,3v20l2-.85V64.05a2.2,2.2,0,0,0-.2-.9,1.983,1.983,0,0,0-.6-.7l-4-3a2,2,0,0,0-1.2-.4h-11a1.9,1.9,0,0,0-1.4.55l-3,3a1.975,1.975,0,0,0-.6,1.45V83.2l2,.85v-20l3-3Z"/>
      </g>
    </g>
    <g id="Group_619" data-name="Group 619">
      <g id="Group_618" data-name="Group 618">
        <path id="Path_2485" data-name="Path 2485" class="cls-12" d="M2340.75,126.05l4.4-2.05,4.25-44.65-8.25,2.9-3.5,19.9Z"/>
        <path id="Path_2486" data-name="Path 2486" class="cls-13" d="M2341.95,77.8l-2.25.95-4,23.05a1.806,1.806,0,0,0,0,.6l3.75,28.95a1.72,1.72,0,0,0,.65,1.25,1.868,1.868,0,0,0,1.3.5h9l.5-2h-9.5l-.65-5.05-3.1-23.9,3.5-19.9Z"/>
        <path id="Path_2487" data-name="Path 2487" class="cls-14" d="M2358.65,64.9h13.75l-18.95,66.2h-2.55l-.5,2h3.05a2.066,2.066,0,0,0,1.95-1.45l18.95-66.2a2.108,2.108,0,0,0-.05-1.2,2.483,2.483,0,0,0-.75-1,1.956,1.956,0,0,0-1.15-.35h-13.75a2.1,2.1,0,0,0-1.1.3l-16.4,10.85a1.882,1.882,0,0,0-.55.6,1.623,1.623,0,0,0-.3.75l-.6,3.35,2.25-.95.3-2.05Z"/>
        <path id="Path_2488" data-name="Path 2488" class="cls-15" d="M2362,81.35l-6.85-9.95-13.2,6.4-.8,4.45,8.25-2.9L2345.15,124l-4.4,2.05.65,5.05h9.5l2.75-12.45Q2357.8,100,2362,81.35Z"/>
        <path id="Path_2489" data-name="Path 2489" class="cls-16" d="M2355.15,71.4l6.85,9.95q-4.2,18.65-8.35,37.3l-2.75,12.45h2.55l18.95-66.2h-13.75l-16.4,10.85-.3,2.05Z"/>
      </g>
    </g>
    <g id="Group_621" data-name="Group 621">
      <g id="Group_620" data-name="Group 620">
        <path id="Path_2490" data-name="Path 2490" class="cls-12" d="M2308.85,82.25l-8.25-2.9,4.25,44.65,4.4,2.05,3.1-23.9Z"/>
        <path id="Path_2491" data-name="Path 2491" class="cls-13" d="M2310.3,78.75l-2.25-.95.8,4.45,3.5,19.9-3.1,23.9-.65,5.05h-9.5l.5,2h9a1.868,1.868,0,0,0,1.3-.5,1.72,1.72,0,0,0,.65-1.25l3.75-28.95a1.806,1.806,0,0,0,0-.6Z"/>
        <path id="Path_2492" data-name="Path 2492" class="cls-15" d="M2308.05,77.8l-13.2-6.4L2288,81.35q4.2,18.65,8.35,37.3l2.75,12.45h9.5l.65-5.05-4.4-2.05-4.25-44.65,8.25,2.9Z"/>
        <path id="Path_2493" data-name="Path 2493" class="cls-16" d="M2308.05,77.8l-.3-2.05-16.4-10.85H2277.6l18.95,66.2h2.55l-2.75-12.45Q2292.2,100,2288,81.35l6.85-9.95Z"/>
        <path id="Path_2494" data-name="Path 2494" class="cls-14" d="M2292.45,63.2a2.1,2.1,0,0,0-1.1-.3H2277.6a1.956,1.956,0,0,0-1.15.35,2.483,2.483,0,0,0-.75,1,2.108,2.108,0,0,0-.05,1.2l18.95,66.2a2.066,2.066,0,0,0,1.95,1.45h3.05l-.5-2h-2.55L2277.6,64.9h13.75l16.4,10.85.3,2.05,2.25.95-.6-3.35a1.623,1.623,0,0,0-.3-.75,1.882,1.882,0,0,0-.55-.6Z"/>
      </g>
    </g>
    <g id="Group_623" data-name="Group 623">
      <g id="Group_622" data-name="Group 622">
        <path id="Path_2495" data-name="Path 2495" class="cls-17" d="M2315.2,88.55a2.01,2.01,0,0,0-1.05.3,1.924,1.924,0,0,0-.75.8l-11.7,24.1a1.848,1.848,0,0,0-.1,1.45l10.05,33.3a1.748,1.748,0,0,0,.7,1.05,2,2,0,0,0,1.2.4H2317a2.043,2.043,0,0,0,.65-.1l7.35-2.5,7.35,2.5a2.043,2.043,0,0,0,.65.1h3.45a2.066,2.066,0,0,0,1.95-1.45l10.05-33.3a2.027,2.027,0,0,0-.15-1.45l-11.7-24.1a1.924,1.924,0,0,0-.75-.8,2.01,2.01,0,0,0-1.05-.3h-19.6m0,2h19.6l11.7,24.1-10.05,33.3H2333l-8-2.7-8,2.7h-3.45l-10.05-33.3Z"/>
        <path id="Path_2496" data-name="Path 2496" class="cls-18" d="M2313.55,147.95H2317l-9.25-36.7,7.45-20.7-11.7,24.1,10.05,33.3m28.7-36.7-9.25,36.7h3.45l10.05-33.3-11.7-24.1Z"/>
        <path id="Path_2497" data-name="Path 2497" class="cls-19" d="M2334.8,90.55h-19.6l-7.45,20.7,9.25,36.7,8-2.7,8,2.7,9.25-36.7Z"/>
      </g>
    </g>
    <g id="Group_625" data-name="Group 625">
      <g id="Group_624" data-name="Group 624">
        <path id="Path_2498" data-name="Path 2498" class="cls-20" d="M2325,112.8a14.617,14.617,0,0,0-6,1.1q-2.35,1.05-2.2,2.4l1.7,17.15a3.78,3.78,0,0,0,.6,1.75,5.093,5.093,0,0,0,1.5,1.55,7.6,7.6,0,0,0,4.4,1.3Z"/>
        <path id="Path_2499" data-name="Path 2499" class="cls-21" d="M2333.2,116.3q.15-1.35-2.25-2.4a14.261,14.261,0,0,0-5.95-1.1v25.25a7.373,7.373,0,0,0,4.35-1.3,4.419,4.419,0,0,0,2.15-3.3Z"/>
      </g>
    </g>
  </g>
</svg>
