<svg xmlns="http://www.w3.org/2000/svg" width="100%" height="100%" viewBox="0 0 98.9 81.587">
  <defs>
    <style>
      .cls-1 {
        fill: #7b7b7b;
      }

      .cls-2 {
        fill: #cbcbcb;
      }

      .cls-3 {
        fill: #aaa;
      }

      .cls-4 {
        fill: #484848;
      }

      .cls-5 {
        fill: #5b5b5b;
      }

      .cls-6 {
        fill: #626262;
      }

      .cls-7 {
        fill: #bd3e3e;
      }

      .cls-8 {
        fill: #ac3939;
      }

      .cls-9 {
        fill: #802b2b;
      }

      .cls-10 {
        fill: #e9e9e9;
      }

      .cls-11 {
        fill: #bbb;
      }

      .cls-12 {
        fill: #a3a3a3;
      }

      .cls-13 {
        fill: #eee;
      }

      .cls-14 {
        fill: #d9d9d9;
      }

      .cls-15 {
        fill: #5d4b6b;
      }

      .cls-16 {
        fill: #4a3c55;
      }
    </style>
  </defs>
  <g id="claw" transform="translate(-1745.55 -65.2)">
    <g id="Group_601" data-name="Group 601">
      <g id="Group_600" data-name="Group 600">
        <path id="Path_2450" data-name="Path 2450" class="cls-1" d="M1763.55,109.8a1.975,1.975,0,0,0-.6,1.45V125.9a3.087,3.087,0,0,0-.35.55l-1.2,2.9a1.938,1.938,0,0,0-.05,1.3l1.95,7.25a1.747,1.747,0,0,0,.7,1.05,1.855,1.855,0,0,0,1.2.45h2.6a1.855,1.855,0,0,0,1.2-.45,1.989,1.989,0,0,0,.75-1.05l1.95-7.25a2.181,2.181,0,0,0-.1-1.3l-1.2-2.9a3.132,3.132,0,0,0-.4-.6v-14.6a1.89,1.89,0,0,0-2-2h-3.05a1.9,1.9,0,0,0-1.4.55m1.4,1.45H1768v16h.55l1.2,2.9-1.95,7.25h-2.6l-1.95-7.25,1.2-2.9h.5v-16m62.05,0a1.89,1.89,0,0,0-2-2h-3.05a1.9,1.9,0,0,0-1.4.55,1.975,1.975,0,0,0-.6,1.45V125.9a3.087,3.087,0,0,0-.35.55l-1.2,2.9a1.938,1.938,0,0,0-.05,1.3l1.95,7.25a1.747,1.747,0,0,0,.7,1.05,1.855,1.855,0,0,0,1.2.45h2.6a1.855,1.855,0,0,0,1.2-.45,1.989,1.989,0,0,0,.75-1.05l1.95-7.25a2.181,2.181,0,0,0-.1-1.3l-1.2-2.9a3.132,3.132,0,0,0-.4-.6v-14.6m-1.45,16,1.2,2.9-1.95,7.25h-2.6l-1.95-7.25,1.2-2.9h.5v-16H1825v16Z"/>
        <path id="Path_2451" data-name="Path 2451" class="cls-2" d="M1769.75,130.15h-6.5l1.95,7.25h2.6l1.95-7.25m-1.75-18.9h-3.05v16H1768v-16m57,16v-16h-3.05v16H1825m-.2,10.15,1.95-7.25h-6.5l1.95,7.25Z"/>
        <path id="Path_2452" data-name="Path 2452" class="cls-3" d="M1768.55,127.25h-4.1l-1.2,2.9h6.5l-1.2-2.9m58.2,2.9-1.2-2.9h-4.1l-1.2,2.9Z"/>
      </g>
    </g>
    <g id="Group_603" data-name="Group 603">
      <g id="Group_602" data-name="Group 602">
        <path id="Path_2453" data-name="Path 2453" class="cls-4" d="M1804.5,65.2a1.9,1.9,0,0,0-1.4.55,1.975,1.975,0,0,0-.6,1.45v4.15l-1.4,1.4a1.975,1.975,0,0,0-.6,1.45v17a1.775,1.775,0,0,0,.2.8,1.522,1.522,0,0,0,.45.65l3.05,2.75a1.836,1.836,0,0,0,1.35.55h9.2a1.975,1.975,0,0,0,1.45-.6l2.75-2.75a1.9,1.9,0,0,0,.55-1.4v-17a2.069,2.069,0,0,0-.55-1.45l-1.45-1.4V67.2a1.89,1.89,0,0,0-2-2h-11m-2,9,2-2v-5h11v5l2,2v17l-2.75,2.75h-9.2l-3.05-2.75v-17Z"/>
        <path id="Path_2454" data-name="Path 2454" class="cls-5" d="M1802.5,91.2l3.05,2.75h9.2l2.75-2.75v-5h-15v5m2-19-2,2v3h15v-3l-2-2v-5h-11Z"/>
        <path id="Path_2455" data-name="Path 2455" class="cls-6" d="M1817.5,86.2v-9h-15v9Z"/>
      </g>
    </g>
    <g id="Group_605" data-name="Group 605">
      <g id="Group_604" data-name="Group 604">
        <path id="Path_2456" data-name="Path 2456" class="cls-4" d="M1787.5,71.35V67.2a1.89,1.89,0,0,0-2-2h-11a1.9,1.9,0,0,0-1.4.55,1.975,1.975,0,0,0-.6,1.45v4.15l-1.4,1.4a1.975,1.975,0,0,0-.6,1.45v17a1.775,1.775,0,0,0,.2.8,1.522,1.522,0,0,0,.45.65l3.05,2.75a1.836,1.836,0,0,0,1.35.55h9.2a1.975,1.975,0,0,0,1.45-.6l2.75-2.75a1.9,1.9,0,0,0,.55-1.4v-17a2.069,2.069,0,0,0-.55-1.45l-1.45-1.4m-2,.85,2,2v17l-2.75,2.75h-9.2l-3.05-2.75v-17l2-2v-5h11Z"/>
        <path id="Path_2457" data-name="Path 2457" class="cls-5" d="M1784.75,93.95l2.75-2.75v-5h-15v5l3.05,2.75h9.2m2.75-19.75-2-2v-5h-11v5l-2,2v3h15Z"/>
        <path id="Path_2458" data-name="Path 2458" class="cls-6" d="M1787.5,86.2v-9h-15v9Z"/>
      </g>
    </g>
    <g id="Group_607" data-name="Group 607">
      <g id="Group_606" data-name="Group 606">
        <path id="Path_2459" data-name="Path 2459" class="cls-7" d="M1833.85,86.5l-19.3,3.7,5.1,17.85,18.3,2.9Z"/>
        <path id="Path_2460" data-name="Path 2460" class="cls-8" d="M1809.25,72.4l-4.9,11.35,8.55,29,14.25,2.15,7.6,29.35,3.5-.65,4.2-5.45-4.5-27.2-18.3-2.9-5.1-17.85,19.3-3.7-.4-2.2Z"/>
        <path id="Path_2461" data-name="Path 2461" class="cls-9" d="M1810,70.6l-.75,1.8,24.2,11.9.4,2.2,4.1,24.45,4.5,27.2-4.2,5.45-3.5.65.35,2,3.5-.75a1.728,1.728,0,0,0,1.2-.7l4.25-5.4a1.734,1.734,0,0,0,.35-.7,7.716,7.716,0,0,0,.05-.85l-9-53.85a2.2,2.2,0,0,0-.4-.9,2.706,2.706,0,0,0-.75-.6Z"/>
        <path id="Path_2462" data-name="Path 2462" class="cls-10" d="M1809.25,72.4l-1.35-.55L1797.6,86.2l10.7,32.05,16.95.45,6.8,26.05,2.7-.5-7.6-29.35-14.25-2.15-8.55-29Z"/>
        <path id="Path_2463" data-name="Path 2463" class="cls-11" d="M1810,70.6l-1.25-.6a1.74,1.74,0,0,0-1.35-.15,1.684,1.684,0,0,0-1.15.8L1795.95,85a2.7,2.7,0,0,0-.35.85,2.261,2.261,0,0,0,.1.95l10.7,32.1a1.758,1.758,0,0,0,.75.95,2,2,0,0,0,1.1.45l15.45.3,6.45,24.65a1.71,1.71,0,0,0,.8,1.2,1.908,1.908,0,0,0,1.45.3l2.7-.5-.35-2-2.7.5-6.8-26.05-16.95-.45L1797.6,86.2l10.3-14.35,1.35.55Z"/>
      </g>
    </g>
    <g id="Group_609" data-name="Group 609">
      <g id="Group_608" data-name="Group 608">
        <path id="Path_2464" data-name="Path 2464" class="cls-7" d="M1775.45,90.2l-19.3-3.7-4.1,24.45,18.3-2.9Z"/>
        <path id="Path_2465" data-name="Path 2465" class="cls-8" d="M1756.55,84.3l-.4,2.2,19.3,3.7-5.1,17.85-18.3,2.9-4.5,27.2,4.2,5.45,3.5.65,7.6-29.35,14.25-2.15,8.55-29-4.9-11.35Z"/>
        <path id="Path_2466" data-name="Path 2466" class="cls-9" d="M1754.95,83.1a2.2,2.2,0,0,0-.4.9l-9,53.85a7.716,7.716,0,0,0,.05.85,1.734,1.734,0,0,0,.35.7l4.25,5.4a1.728,1.728,0,0,0,1.2.7l3.5.75.35-2-3.5-.65-4.2-5.45,4.5-27.2,4.1-24.45.4-2.2,24.2-11.9-.75-1.8-24.3,11.9A2.706,2.706,0,0,0,1754.95,83.1Z"/>
        <path id="Path_2467" data-name="Path 2467" class="cls-10" d="M1792.4,86.2l-10.3-14.35-1.35.55,4.9,11.35-8.55,29-14.25,2.15-7.6,29.35,2.7.5,6.8-26.05,16.95-.45Z"/>
        <path id="Path_2468" data-name="Path 2468" class="cls-11" d="M1783.75,70.65a1.684,1.684,0,0,0-1.15-.8,1.74,1.74,0,0,0-1.35.15l-1.25.6.75,1.8,1.35-.55,10.3,14.35-10.7,32.05-16.95.45-6.8,26.05-2.7-.5-.35,2,2.7.5a1.908,1.908,0,0,0,1.45-.3,1.71,1.71,0,0,0,.8-1.2l6.45-24.65,15.45-.3a2,2,0,0,0,1.1-.45,1.758,1.758,0,0,0,.75-.95l10.7-32.1a2.261,2.261,0,0,0,.1-.95,2.7,2.7,0,0,0-.35-.85Z"/>
      </g>
    </g>
    <g id="Group_611" data-name="Group 611">
      <g id="Group_610" data-name="Group 610">
        <path id="Path_2469" data-name="Path 2469" class="cls-12" d="M1801.85,73.3h-13.7a2.1,2.1,0,0,0-1.1.3l-12.9,8.6a2.129,2.129,0,0,0-.75.95,1.869,1.869,0,0,0-.1,1.2l12,52.35a1.767,1.767,0,0,0,.7,1.1,1.92,1.92,0,0,0,1.25.45h15.5a1.92,1.92,0,0,0,1.25-.45,1.767,1.767,0,0,0,.7-1.1l12-52.35a1.869,1.869,0,0,0-.1-1.2,2.129,2.129,0,0,0-.75-.95l-12.9-8.6a2.1,2.1,0,0,0-1.1-.3m-3.4,2h3.4l12.9,8.6-3.45,14.6-8.55,37.75h-15.5L1778.7,98.5l-3.45-14.6,12.9-8.6h10.3Z"/>
        <path id="Path_2470" data-name="Path 2470" class="cls-13" d="M1798.45,75.3h-6.9L1778.7,98.5l8.55,37.75h15.5l8.55-37.75Z"/>
        <path id="Path_2471" data-name="Path 2471" class="cls-14" d="M1791.55,75.3h-3.4l-12.9,8.6,3.45,14.6,12.85-23.2m10.3,0h-3.4l12.85,23.2,3.45-14.6Z"/>
      </g>
    </g>
    <g id="Group_613" data-name="Group 613">
      <g id="Group_612" data-name="Group 612">
        <path id="Path_2472" data-name="Path 2472" class="cls-15" d="M1795,90.9l-8.25,4.05q.85,19.65,8.25,27.75Z"/>
        <path id="Path_2473" data-name="Path 2473" class="cls-16" d="M1803.25,94.95,1795,90.9v31.8Q1802.4,114.6,1803.25,94.95Z"/>
      </g>
    </g>
  </g>
</svg>
