<svg id="Big_rocket_boi" data-name="Big rocket boi" xmlns="http://www.w3.org/2000/svg" width="100%" height="100%" viewBox="0 0 92.95 373.75">
  <defs>
    <style>
      .cls-1 {
        fill: #bd3e3e;
      }

      .cls-2 {
        fill: #ac3939;
      }

      .cls-3 {
        fill: #b83d3d;
      }

      .cls-4 {
        fill: #802b2b;
      }

      .cls-5 {
        fill: #e2e2e2;
      }

      .cls-6 {
        fill: #d2d2d2;
      }

      .cls-7 {
        fill: #f5f5f5;
      }

      .cls-8 {
        fill: #9f9f9f;
      }

      .cls-9 {
        fill: #a63737;
      }

      .cls-10 {
        fill: #78888c;
      }

      .cls-11 {
        fill: #a1b6bb;
      }

      .cls-12 {
        fill: #bdd6db;
      }

      .cls-13 {
        fill: #e0fbff;
      }

      .cls-14 {
        fill: #c8f2f7;
      }

      .cls-15 {
        fill: #bee7ec;
      }
    </style>
  </defs>
  <g id="Group_751" data-name="Group 751" transform="translate(13 0)">
    <g id="Group_750" data-name="Group 750">
      <path id="Path_2786" data-name="Path 2786" class="cls-1" d="M32,0Q10,40,0,76,10,46.65,32,14,54,46.65,64,76,54,40,32,0Z" transform="translate(2 2)"/>
      <path id="Path_2787" data-name="Path 2787" class="cls-2" d="M0,62H64Q54,32.65,32,0,10,32.65,0,62M57.4,49.2a4.972,4.972,0,0,1,.5,1.5A7.922,7.922,0,0,1,58,52a6.307,6.307,0,0,1-.6,2.85Q56.85,56,56,56q-.8,0-1.4-1.15A6.3,6.3,0,0,1,54,52a7.921,7.921,0,0,1,.1-1.3,4.959,4.959,0,0,1,.5-1.5Q55.2,48,56,48q.85,0,1.4,1.2m-28.25,0A3.893,3.893,0,0,1,32,48a4.267,4.267,0,0,1,3.8,2.7A4.088,4.088,0,0,1,36,52a3.893,3.893,0,0,1-1.2,2.85A3.811,3.811,0,0,1,32,56a3.929,3.929,0,0,1-4-4,4.088,4.088,0,0,1,.2-1.3,3.964,3.964,0,0,1,.95-1.5m-10-.05a4.358,4.358,0,0,1,.7,1.55A5.358,5.358,0,0,1,20,52a4.579,4.579,0,0,1-.85,2.8A2.634,2.634,0,0,1,17,56a2.508,2.508,0,0,1-2.1-1.2A4.4,4.4,0,0,1,14,52a5.345,5.345,0,0,1,.15-1.3,5.145,5.145,0,0,1,.75-1.55A2.533,2.533,0,0,1,17,48a2.664,2.664,0,0,1,2.15,1.15m30.7,1.55A5.358,5.358,0,0,1,50,52a4.617,4.617,0,0,1-.9,2.85A2.534,2.534,0,0,1,47,56a2.663,2.663,0,0,1-2.15-1.15A4.8,4.8,0,0,1,44,52a5.345,5.345,0,0,1,.15-1.3,3.888,3.888,0,0,1,.7-1.5A2.633,2.633,0,0,1,47,48a2.508,2.508,0,0,1,2.1,1.2,4.532,4.532,0,0,1,.75,1.5M8,48q.8,0,1.4,1.15a5.646,5.646,0,0,1,.5,1.55A7.922,7.922,0,0,1,10,52a5.994,5.994,0,0,1-.6,2.8Q8.8,56,8,56q-.85,0-1.4-1.2A5.991,5.991,0,0,1,6,52a7.921,7.921,0,0,1,.1-1.3,5.629,5.629,0,0,1,.5-1.55Q7.15,48,8,48Z" transform="translate(2 16)"/>
      <path id="Path_2788" data-name="Path 2788" class="cls-3" d="M3.4,1.15Q2.8,0,2,0,1.15,0,.6,1.15A5.629,5.629,0,0,0,.1,2.7,7.921,7.921,0,0,0,0,4,5.991,5.991,0,0,0,.6,6.8Q1.15,8,2,8q.8,0,1.4-1.2A5.994,5.994,0,0,0,4,4a7.922,7.922,0,0,0-.1-1.3,5.646,5.646,0,0,0-.5-1.55M44,4a5.358,5.358,0,0,0-.15-1.3,4.532,4.532,0,0,0-.75-1.5A2.508,2.508,0,0,0,41,0a2.633,2.633,0,0,0-2.15,1.2,3.888,3.888,0,0,0-.7,1.5A5.345,5.345,0,0,0,38,4a4.8,4.8,0,0,0,.85,2.85A2.663,2.663,0,0,0,41,8a2.534,2.534,0,0,0,2.1-1.15A4.617,4.617,0,0,0,44,4M13.85,2.7a4.358,4.358,0,0,0-.7-1.55A2.664,2.664,0,0,0,11,0,2.533,2.533,0,0,0,8.9,1.15,5.145,5.145,0,0,0,8.15,2.7,5.345,5.345,0,0,0,8,4a4.4,4.4,0,0,0,.9,2.8A2.508,2.508,0,0,0,11,8a2.634,2.634,0,0,0,2.15-1.2A4.579,4.579,0,0,0,14,4a5.358,5.358,0,0,0-.15-1.3M26,0a3.893,3.893,0,0,0-2.85,1.2,3.964,3.964,0,0,0-.95,1.5A4.088,4.088,0,0,0,22,4a3.929,3.929,0,0,0,4,4,3.811,3.811,0,0,0,2.8-1.15A3.893,3.893,0,0,0,30,4a4.088,4.088,0,0,0-.2-1.3,3.717,3.717,0,0,0-1-1.5A3.732,3.732,0,0,0,26,0M51.9,2.7a4.972,4.972,0,0,0-.5-1.5Q50.85,0,50,0q-.8,0-1.4,1.2a4.959,4.959,0,0,0-.5,1.5A7.921,7.921,0,0,0,48,4a6.3,6.3,0,0,0,.6,2.85Q49.2,8,50,8q.85,0,1.4-1.15A6.307,6.307,0,0,0,52,4,7.922,7.922,0,0,0,51.9,2.7Z" transform="translate(8 64)"/>
      <path id="Path_2789" data-name="Path 2789" class="cls-4" d="M35.75,1.05A1.865,1.865,0,0,0,34.7.15a1.708,1.708,0,0,0-1.4,0,1.866,1.866,0,0,0-1.05.9Q10.15,41.25.1,77.5A1.338,1.338,0,0,0,0,78H2Q12,42,34,2,56,42,66,78h2a2.535,2.535,0,0,0-.05-.5Q57.85,41.25,35.75,1.05Z"/>
    </g>
  </g>
  <g id="Group_753" data-name="Group 753" transform="translate(13 78)">
    <g id="Group_752" data-name="Group 752" transform="translate(0 0)">
      <path id="Path_2790" data-name="Path 2790" class="cls-5" d="M0,64H60V0H0V64m12.15-9.3a5.145,5.145,0,0,1,.75-1.55A2.533,2.533,0,0,1,15,52a2.664,2.664,0,0,1,2.15,1.15,4.358,4.358,0,0,1,.7,1.55A5.358,5.358,0,0,1,18,56a4.579,4.579,0,0,1-.85,2.8A2.634,2.634,0,0,1,15,60a2.508,2.508,0,0,1-2.1-1.2A4.4,4.4,0,0,1,12,56a5.345,5.345,0,0,1,.15-1.3M7.4,53.15a5.646,5.646,0,0,1,.5,1.55A7.922,7.922,0,0,1,8,56a5.994,5.994,0,0,1-.6,2.8Q6.8,60,6,60q-.85,0-1.4-1.2A5.991,5.991,0,0,1,4,56a7.921,7.921,0,0,1,.1-1.3,5.629,5.629,0,0,1,.5-1.55Q5.15,52,6,52q.8,0,1.4,1.15M56,56a6.307,6.307,0,0,1-.6,2.85Q54.85,60,54,60q-.8,0-1.4-1.15A6.3,6.3,0,0,1,52,56a7.921,7.921,0,0,1,.1-1.3,4.959,4.959,0,0,1,.5-1.5Q53.2,52,54,52q.85,0,1.4,1.2a4.972,4.972,0,0,1,.5,1.5A7.922,7.922,0,0,1,56,56m-8.9-2.8a4.532,4.532,0,0,1,.75,1.5A5.358,5.358,0,0,1,48,56a4.617,4.617,0,0,1-.9,2.85A2.534,2.534,0,0,1,45,60a2.663,2.663,0,0,1-2.15-1.15A4.8,4.8,0,0,1,42,56a5.345,5.345,0,0,1,.15-1.3,3.888,3.888,0,0,1,.7-1.5A2.633,2.633,0,0,1,45,52a2.508,2.508,0,0,1,2.1,1.2M26.2,54.7a3.964,3.964,0,0,1,.95-1.5A3.893,3.893,0,0,1,30,52a4.267,4.267,0,0,1,3.8,2.7A4.088,4.088,0,0,1,34,56a3.893,3.893,0,0,1-1.2,2.85A3.811,3.811,0,0,1,30,60a3.929,3.929,0,0,1-4-4A4.088,4.088,0,0,1,26.2,54.7Z" transform="translate(4)"/>
      <path id="Path_2791" data-name="Path 2791" class="cls-6" d="M23.15,1.2a3.964,3.964,0,0,0-.95,1.5A4.088,4.088,0,0,0,22,4a3.929,3.929,0,0,0,4,4,3.811,3.811,0,0,0,2.8-1.15A3.893,3.893,0,0,0,30,4a4.088,4.088,0,0,0-.2-1.3,3.717,3.717,0,0,0-1-1.5A3.732,3.732,0,0,0,26,0a3.893,3.893,0,0,0-2.85,1.2m20.7,1.5a4.532,4.532,0,0,0-.75-1.5A2.508,2.508,0,0,0,41,0a2.633,2.633,0,0,0-2.15,1.2,3.888,3.888,0,0,0-.7,1.5A5.345,5.345,0,0,0,38,4a4.8,4.8,0,0,0,.85,2.85A2.663,2.663,0,0,0,41,8a2.534,2.534,0,0,0,2.1-1.15A4.617,4.617,0,0,0,44,4a5.358,5.358,0,0,0-.15-1.3M51.4,6.85A6.307,6.307,0,0,0,52,4a7.922,7.922,0,0,0-.1-1.3,4.972,4.972,0,0,0-.5-1.5Q50.85,0,50,0q-.8,0-1.4,1.2a4.959,4.959,0,0,0-.5,1.5A7.921,7.921,0,0,0,48,4a6.3,6.3,0,0,0,.6,2.85Q49.2,8,50,8q.85,0,1.4-1.15M3.9,2.7a5.646,5.646,0,0,0-.5-1.55Q2.8,0,2,0,1.15,0,.6,1.15A5.629,5.629,0,0,0,.1,2.7,7.921,7.921,0,0,0,0,4,5.991,5.991,0,0,0,.6,6.8Q1.15,8,2,8q.8,0,1.4-1.2A5.994,5.994,0,0,0,4,4a7.922,7.922,0,0,0-.1-1.3m5-1.55A5.145,5.145,0,0,0,8.15,2.7,5.345,5.345,0,0,0,8,4a4.4,4.4,0,0,0,.9,2.8A2.508,2.508,0,0,0,11,8a2.634,2.634,0,0,0,2.15-1.2A4.579,4.579,0,0,0,14,4a5.358,5.358,0,0,0-.15-1.3,4.358,4.358,0,0,0-.7-1.55A2.664,2.664,0,0,0,11,0,2.533,2.533,0,0,0,8.9,1.15Z" transform="translate(8 52)"/>
      <path id="Path_2792" data-name="Path 2792" class="cls-7" d="M2,0H0V64H2V0M64,0H62V64h2Z" transform="translate(2)"/>
      <path id="Path_2793" data-name="Path 2793" class="cls-8" d="M2,0H0V64H2V0M68,0H66V64h2Z"/>
    </g>
  </g>
  <g id="Group_755" data-name="Group 755" transform="translate(13 142)">
    <g id="Group_754" data-name="Group 754" transform="translate(0 0)">
      <path id="Path_2794" data-name="Path 2794" class="cls-8" d="M68,0H66V64h2V0M2,0H0V64H2Z"/>
      <path id="Path_2795" data-name="Path 2795" class="cls-7" d="M64,0H62V64h2V0M2,0H0V64H2Z" transform="translate(2)"/>
      <path id="Path_2796" data-name="Path 2796" class="cls-5" d="M0,0V64H60V0H0M1,23H5V43H1V23M9,43V23h8V43H9M55,23h4V43H55V23M43,23h8V43H43V23M22,23H38V43H22Z" transform="translate(4)"/>
      <path id="Path_2797" data-name="Path 2797" class="cls-6" d="M37,0H21V20H37V0M50,0H42V20h8V0m8,0H54V20h4V0M8,0V20h8V0H8M4,0H0V20H4Z" transform="translate(5 23)"/>
    </g>
  </g>
  <g id="Group_757" data-name="Group 757" transform="translate(13 206)">
    <g id="Group_756" data-name="Group 756" transform="translate(0 0)">
      <path id="Path_2798" data-name="Path 2798" class="cls-5" d="M60,0H0V64H60V0M1,23H5V43H1V23m21,0H38V43H22V23m21,0h8V43H43V23m12,0h4V43H55V23M9,23h8V43H9Z" transform="translate(4)"/>
      <path id="Path_2799" data-name="Path 2799" class="cls-6" d="M16,0H8V20h8V0M58,0H54V20h4V0M50,0H42V20h8V0M37,0H21V20H37V0M4,0H0V20H4Z" transform="translate(5 23)"/>
      <path id="Path_2800" data-name="Path 2800" class="cls-8" d="M68,0H66V64h2V0M2,0H0V64H2Z"/>
      <path id="Path_2801" data-name="Path 2801" class="cls-7" d="M64,0H62V64h2V0M2,0H0V64H2Z" transform="translate(2)"/>
    </g>
  </g>
  <g id="Group_759" data-name="Group 759" transform="translate(13 270)">
    <g id="Group_758" data-name="Group 758" transform="translate(0 0)">
      <path id="Path_2802" data-name="Path 2802" class="cls-5" d="M2,64H62V44H2V64M2,0H0V4H2V0M62,20V4H2V20H62M64,0H62V4h2Z" transform="translate(2)"/>
      <path id="Path_2803" data-name="Path 2803" class="cls-7" d="M2,40H0V60H2V40M2,0H0V16H2V0M64,40H62V60h2V40M64,0H62V16h2Z" transform="translate(2 4)"/>
      <path id="Path_2804" data-name="Path 2804" class="cls-8" d="M2,44H0V64H2V44M2,0H0V20H2V0M68,44H66V64h2V44M68,0H66V20h2Z"/>
      <path id="Path_2805" data-name="Path 2805" class="cls-1" d="M2,0H0V24H2V0M62,0V24h2V0Z" transform="translate(2 20)"/>
      <path id="Path_2806" data-name="Path 2806" class="cls-4" d="M0,0V24H2V0H0M68,24V0H66V24Z" transform="translate(0 20)"/>
      <path id="Path_2807" data-name="Path 2807" class="cls-2" d="M60,24V0H0V24Z" transform="translate(4 20)"/>
      <path id="Path_2808" data-name="Path 2808" class="cls-6" d="M60,4V0H0V4Z" transform="translate(4 0)"/>
    </g>
  </g>
  <g id="Group_765" data-name="Group 765" transform="translate(13 334)">
    <g id="Group_764" data-name="Group 764" transform="translate(0 0)">
      <path id="Path_2825" data-name="Path 2825" class="cls-9" d="M35.3,9.8,39.6,0H0L4.25,9.8Z" transform="translate(14.2 27.95)"/>
      <path id="Path_2826" data-name="Path 2826" class="cls-3" d="M0,0,.9,2H40.5l.85-2Z" transform="translate(13.3 25.95)"/>
      <path id="Path_2827" data-name="Path 2827" class="cls-2" d="M0,0,11.3,25.95H52.65L64,0Z" transform="translate(2)"/>
      <path id="Path_2828" data-name="Path 2828" class="cls-4" d="M16.65,38.55a1.853,1.853,0,0,0,.7.9,2.1,2.1,0,0,0,1.1.3H49.5a2.1,2.1,0,0,0,1.1-.3,2.185,2.185,0,0,0,.75-.9L67.85.8A2.268,2.268,0,0,0,68,0H66L54.65,25.95l-.85,2-4.3,9.8H18.45l-4.25-9.8-.9-2L2,0H0A1.775,1.775,0,0,0,.2.8Z"/>
    </g>
  </g>
  <g id="Group_767" data-name="Group 767" transform="translate(32 180.3)">
    <g id="Group_766" data-name="Group 766">
      <path id="Path_2829" data-name="Path 2829" class="cls-10" d="M26.95,0V5.75L19.55,18.3H9.35L2,5.75V0H0V5.75a1.764,1.764,0,0,0,.3,1L7.65,19.3a2.148,2.148,0,0,0,.7.75,2.024,2.024,0,0,0,1,.25h10.2a2.024,2.024,0,0,0,1-.25,3.019,3.019,0,0,0,.75-.7L28.7,6.8a2.317,2.317,0,0,0,.25-1.05V0Z" transform="translate(0 149.7)"/>
      <path id="Path_2830" data-name="Path 2830" class="cls-11" d="M24.95,5.75V0H0V5.75L7.35,18.3h10.2Z" transform="translate(2 149.7)"/>
      <path id="Path_2831" data-name="Path 2831" class="cls-5" d="M24.95,91.55H0v18.7H24.95V91.55m0-70H0v68H24.95v-68m-2.6,22.8h-9.6V29.1h9.6V44.35M3.15,85.9V81.5h9.6v4.4H3.15M0,0V19.55H24.95V0Z" transform="translate(2 39.45)"/>
      <path id="Path_2832" data-name="Path 2832" class="cls-6" d="M24.95,70H0v2H24.95V70M3.15,61.95v4.4h9.6v-4.4H3.15m9.6-37.15h9.6V9.55h-9.6V24.8M0,2H24.95V0H0Z" transform="translate(2 59)"/>
      <path id="Path_2833" data-name="Path 2833" class="cls-8" d="M26.95,0V110.25h2V0h-2M2,.6V0H0V110.25H2V.6Z" transform="translate(0 39.45)"/>
      <path id="Path_2834" data-name="Path 2834" class="cls-1" d="M0,33.95q.05-1,.1-2Q1.35,8.35,12.35,5.75q11,2.6,12.35,26.2.05,1,.1,2-.05-1.55-.1-3Q23.35,3.1,12.35,0,1.35,3.1.1,30.95,0,32.4,0,33.95Z" transform="translate(2.1 2)"/>
      <path id="Path_2835" data-name="Path 2835" class="cls-2" d="M.2,26.2q-.05,1-.1,2L.05,30.25a6.422,6.422,0,0,0-.05.8v.65H24.95V30.25L24.9,28.2q-.05-1-.1-2Q23.45,2.6,12.45,0,1.45,2.6.2,26.2Z" transform="translate(2 7.75)"/>
      <path id="Path_2836" data-name="Path 2836" class="cls-4" d="M15,.1a1.562,1.562,0,0,0-1.1,0Q1.55,3.15.2,32.95q-.2,3.1-.2,6.5H2V38.8a6.422,6.422,0,0,1,.05-.8l.05-2.05q0-1.55.1-3Q3.45,5.1,14.45,2q11,3.1,12.35,30.95.05,1.45.1,3L26.95,38v1.45h2V38q-.05-2.6-.15-5.05Q27.35,3.15,15,.1Z" transform="translate(0)"/>
    </g>
  </g>
  <g id="Group_769" data-name="Group 769" transform="translate(34.55 90.8)">
    <g id="Group_768" data-name="Group 768" transform="translate(0 0)">
      <path id="Path_2837" data-name="Path 2837" class="cls-10" d="M28,14v-.15A13.443,13.443,0,0,0,23.95,4.1,13.547,13.547,0,0,0,14,0,13.325,13.325,0,0,0,4.15,4.1,13.745,13.745,0,0,0,1.1,8.45,13.861,13.861,0,0,0,0,14a13.506,13.506,0,0,0,1.1,5.5,13.745,13.745,0,0,0,3.05,4.35v.05A13.432,13.432,0,0,0,14,28a13.465,13.465,0,0,0,9.95-4.15v.05A13.574,13.574,0,0,0,28,14m-2-.15V14a11.514,11.514,0,0,1-3.5,8.45A11.49,11.49,0,0,1,14,26a11.433,11.433,0,0,1-8.45-3.55A11.433,11.433,0,0,1,2,14,11.49,11.49,0,0,1,5.55,5.5,11.514,11.514,0,0,1,14,2a11.572,11.572,0,0,1,8.5,3.5A11.551,11.551,0,0,1,26,13.85Z"/>
      <path id="Path_2838" data-name="Path 2838" class="cls-12" d="M24,12v-.15A11.551,11.551,0,0,0,20.5,3.5,11.572,11.572,0,0,0,12,0,11.514,11.514,0,0,0,3.55,3.5,11.49,11.49,0,0,0,0,12a11.433,11.433,0,0,0,3.55,8.45A11.433,11.433,0,0,0,12,24a11.49,11.49,0,0,0,8.5-3.55A11.514,11.514,0,0,0,24,12m-5-.15V12a6.831,6.831,0,0,1-2,4.95h-.05A6.745,6.745,0,0,1,12,19a6.686,6.686,0,0,1-4.9-2.05l-.05-.05A6.687,6.687,0,0,1,5,12,6.745,6.745,0,0,1,7.05,7.05H7.1A6.581,6.581,0,0,1,12,5a6.8,6.8,0,0,1,5,2.05A6.7,6.7,0,0,1,19,11.85Z" transform="translate(2 2)"/>
      <path id="Path_2839" data-name="Path 2839" class="cls-13" d="M14,7V6.85a6.7,6.7,0,0,0-2-4.8A6.8,6.8,0,0,0,7,0,6.581,6.581,0,0,0,2.1,2.05H2.05A6.745,6.745,0,0,0,0,7a6.687,6.687,0,0,0,2.05,4.9l.05.05A6.686,6.686,0,0,0,7,14a6.745,6.745,0,0,0,4.95-2.05H12A6.831,6.831,0,0,0,14,7m-2-.15V7a4.951,4.951,0,0,1-5,5,4.606,4.606,0,0,1-3.45-1.45L3.5,10.5H3.45A4.77,4.77,0,0,1,2,7V6.85A4.637,4.637,0,0,1,3.45,3.5H3.5V3.45A4.769,4.769,0,0,1,7,2a4.828,4.828,0,0,1,3.55,1.45h.05A4.9,4.9,0,0,1,12,6.85Z" transform="translate(7 7)"/>
      <path id="Path_2840" data-name="Path 2840" class="cls-14" d="M10,4.85a4.9,4.9,0,0,0-1.4-3.4H8.55A4.828,4.828,0,0,0,5,0,4.769,4.769,0,0,0,1.5,1.45V1.5H1.45A4.637,4.637,0,0,0,0,4.85Z" transform="translate(9 9)"/>
      <path id="Path_2841" data-name="Path 2841" class="cls-15" d="M10,.15V0H0V.15a4.77,4.77,0,0,0,1.45,3.5H1.5l.05.05A4.606,4.606,0,0,0,5,5.15,4.936,4.936,0,0,0,8.55,3.7,4.937,4.937,0,0,0,10,.15Z" transform="translate(9 13.85)"/>
    </g>
  </g>
  <g id="Group_761" data-name="Group 761" transform="translate(64 202.3)">
    <g id="Group_760" data-name="Group 760">
      <path id="Path_2809" data-name="Path 2809" class="cls-11" d="M0,5.75,7.35,18.3h10.2l7.4-12.55V0H0Z" transform="translate(2 149.7)"/>
      <path id="Path_2810" data-name="Path 2810" class="cls-6" d="M24.95,72V70H0v2H24.95m-12.2-5.65v-4.4H3.15v4.4h9.6m9.6-56.8h-9.6V24.8h9.6V9.55M0,0V2H24.95V0Z" transform="translate(2 59)"/>
      <path id="Path_2811" data-name="Path 2811" class="cls-10" d="M28.95,0h-2V5.75L19.55,18.3H9.35L2,5.75V0H0V5.75a1.764,1.764,0,0,0,.3,1L7.65,19.3a2.148,2.148,0,0,0,.7.75,2.024,2.024,0,0,0,1,.25h10.2a2.024,2.024,0,0,0,1-.25,3.019,3.019,0,0,0,.75-.7L28.7,6.8a2.317,2.317,0,0,0,.25-1.05Z" transform="translate(0 149.7)"/>
      <path id="Path_2812" data-name="Path 2812" class="cls-5" d="M24.95,110.25V91.55H0v18.7H24.95m0-88.7H0v68H24.95v-68M12.75,29.1h9.6V44.35h-9.6V29.1m0,52.4v4.4H3.15V81.5h9.6M24.95.6V0H0V19.55H24.95Z" transform="translate(2 39.45)"/>
      <path id="Path_2813" data-name="Path 2813" class="cls-8" d="M0,0V110.25H2V0H0M26.95,0V110.25h2V0Z" transform="translate(0 39.45)"/>
      <path id="Path_2814" data-name="Path 2814" class="cls-1" d="M24.7,31.95q.05,1,.1,2-.05-1.55-.1-3Q23.35,3.1,12.35,0,1.35,3.1.1,30.95q-.1,1.45-.1,3,.05-1,.1-2Q1.35,8.35,12.35,5.75,23.35,8.35,24.7,31.95Z" transform="translate(2.1 2)"/>
      <path id="Path_2815" data-name="Path 2815" class="cls-2" d="M24.95,31.7V30.25L24.9,28.2q-.05-1-.1-2Q23.45,2.6,12.45,0,1.45,2.6.2,26.2q-.05,1-.1,2L.05,30.25a6.422,6.422,0,0,0-.05.8v.65Z" transform="translate(2 7.75)"/>
      <path id="Path_2816" data-name="Path 2816" class="cls-4" d="M15,.1a1.562,1.562,0,0,0-1.1,0Q1.55,3.15.2,32.95q-.2,3.1-.2,6.5H2V38.8a6.422,6.422,0,0,1,.05-.8l.05-2.05q0-1.55.1-3Q3.45,5.1,14.45,2q11,3.1,12.35,30.95.05,1.45.1,3L26.95,38v1.45h2V38q-.05-2.6-.15-5.05Q27.35,3.15,15,.1Z" transform="translate(0)"/>
    </g>
  </g>
  <g id="Group_763" data-name="Group 763" transform="translate(0 199.3)">
    <g id="Group_762" data-name="Group 762">
      <path id="Path_2817" data-name="Path 2817" class="cls-11" d="M7.35,18.3h10.2l7.4-12.55V0H0V5.75Z" transform="translate(2 149.7)"/>
      <path id="Path_2818" data-name="Path 2818" class="cls-6" d="M24.95,72V70H0v2H24.95M3.15,66.35h9.6v-4.4H3.15v4.4m19.2-56.8h-9.6V24.8h9.6V9.55M24.95,2V0H0V2Z" transform="translate(2 59)"/>
      <path id="Path_2819" data-name="Path 2819" class="cls-5" d="M24.95,110.25V91.55H0v18.7H24.95m0-88.7H0v68H24.95v-68M12.75,29.1h9.6V44.35h-9.6V29.1m0,56.8H3.15V81.5h9.6v4.4M24.95.6V0H0V19.55H24.95Z" transform="translate(2 39.45)"/>
      <path id="Path_2820" data-name="Path 2820" class="cls-10" d="M28.95,0h-2V5.75L19.55,18.3H9.35L2,5.75V0H0V5.75a1.764,1.764,0,0,0,.3,1L7.65,19.3a2.149,2.149,0,0,0,.7.75,2.024,2.024,0,0,0,1,.25h10.2a2.024,2.024,0,0,0,1-.25,3.019,3.019,0,0,0,.75-.7L28.7,6.8a2.317,2.317,0,0,0,.25-1.05Z" transform="translate(0 149.7)"/>
      <path id="Path_2821" data-name="Path 2821" class="cls-8" d="M2,.6V0H0V110.25H2V.6M26.95,0V110.25h2V0Z" transform="translate(0 39.45)"/>
      <path id="Path_2822" data-name="Path 2822" class="cls-1" d="M24.7,31.95q.05,1,.1,2-.05-1.55-.1-3Q23.35,3.1,12.35,0,1.35,3.1.1,30.95q-.1,1.45-.1,3,.05-1,.1-2Q1.35,8.35,12.35,5.75,23.35,8.35,24.7,31.95Z" transform="translate(2.1 2)"/>
      <path id="Path_2823" data-name="Path 2823" class="cls-2" d="M24.95,31.7V30.25L24.9,28.2q-.05-1-.1-2Q23.45,2.6,12.45,0,1.45,2.6.2,26.2q-.05,1-.1,2L.05,30.25a6.422,6.422,0,0,0-.05.8v.65Z" transform="translate(2 7.75)"/>
      <path id="Path_2824" data-name="Path 2824" class="cls-4" d="M15,.1a1.562,1.562,0,0,0-1.1,0Q1.55,3.15.2,32.95q-.2,3.1-.2,6.5H2V38.8a6.422,6.422,0,0,1,.05-.8l.05-2.05q0-1.55.1-3Q3.45,5.1,14.45,2q11,3.1,12.35,30.95.05,1.45.1,3L26.95,38v1.45h2V38q-.05-2.6-.15-5.05Q27.35,3.15,15,.1Z" transform="translate(0)"/>
    </g>
  </g>
</svg>
