<svg xmlns="http://www.w3.org/2000/svg" width="100%" height="100%"  viewBox="0 0 315 117.507">
  <defs>
    <style>
      .cls-1 {
        fill: #a1b6bb;
      }

      .cls-2 {
        fill: #afc6cb;
      }

      .cls-3 {
        fill: #78888c;
      }

      .cls-4 {
        fill: #e2e2e2;
      }

      .cls-5 {
        fill: #d2d2d2;
      }

      .cls-6 {
        fill: #9f9f9f;
      }

      .cls-7 {
        fill: #ac3939;
      }

      .cls-8 {
        fill: #bd3e3e;
      }

      .cls-9 {
        fill: #802b2b;
      }

      .cls-10 {
        fill: #f5f5f5;
      }

      .cls-11 {
        fill: #b83d3d;
      }

      .cls-12 {
        fill: #bdd6db;
      }

      .cls-13 {
        fill: #e0fbff;
      }

      .cls-14 {
        fill: #bee7ec;
      }

      .cls-15 {
        fill: #c8f2f7;
      }

      .cls-16 {
        fill: #9f3434;
      }
    </style>
  </defs>
  <g id="Med_fatty_boi" data-name="Med fatty boi" transform="translate(734 -1988.01) rotate(90)">
    <g id="Group_723" data-name="Group 723">
      <g id="Group_722" data-name="Group 722">
        <path id="Path_2706" data-name="Path 2706" class="cls-1" d="M2073.8,673.05l4.45,1.9h19l4.5-1.9,1.75-15.75H2072Z"/>
        <path id="Path_2707" data-name="Path 2707" class="cls-2" d="M2103.5,657.3l-2.9-11h-24.95l-3.65,11Z"/>
        <path id="Path_2708" data-name="Path 2708" class="cls-3" d="M2100.6,646.3l2.9,11-1.75,15.75-4.5,1.9h-19l-4.45-1.9L2072,657.3l3.65-11h-2.1l-3.45,10.4a1.466,1.466,0,0,0-.05.85l1.8,15.75a2.064,2.064,0,0,0,.35.95,2.013,2.013,0,0,0,.85.65l4.45,1.9a1.883,1.883,0,0,0,.75.15h19a2.265,2.265,0,0,0,.8-.15l4.5-1.9a2.1,2.1,0,0,0,.8-.65,1.833,1.833,0,0,0,.4-.95l1.75-15.75a1.863,1.863,0,0,0-.05-.75l-2.8-10.5Z"/>
        <path id="Path_2709" data-name="Path 2709" class="cls-4" d="M2100.6,627.6h-24.95v18.7h24.95V627.6m0-18.45-3.35-3.35h-18.1l-3.5,3.5v16.3h24.95V609.15m-21.8,8.4h9.6v4.4h-9.6v-4.4m-3.15-37,3.5,3.5h18.1l3.35-3.35V557.6h-24.95v22.95m24.95-24.95v-8.95h-24.95v8.95Z"/>
        <path id="Path_2710" data-name="Path 2710" class="cls-5" d="M2075.65,625.6v2h24.95v-2h-24.95m12.75-8.05h-9.6v4.4h9.6v-4.4m8.85-33.5h-18.1V605.8h18.1V584.05m3.35-26.45v-2h-24.95v2Z"/>
        <path id="Path_2711" data-name="Path 2711" class="cls-6" d="M2073.65,546.05v34.5a1.975,1.975,0,0,0,.6,1.45l2.9,2.9v20.05l-2.9,2.95a1.815,1.815,0,0,0-.6,1.4V646l-.1.3h2.1v-37l3.5-3.5V584.05l-3.5-3.5v-34.5h-2m26.95.6V580.7l-3.35,3.35V605.8l3.35,3.35V646.3h2.05l-.05-.2V609.15a1.9,1.9,0,0,0-.55-1.4l-2.8-2.8V584.9l2.8-2.75a2.07,2.07,0,0,0,.55-1.45V546.05h-2Z"/>
        <path id="Path_2712" data-name="Path 2712" class="cls-7" d="M2080.7,535.85q-.2.15-.45.35a32.31,32.31,0,0,0-4.6,5.4v5.05h24.95V541.6a32.31,32.31,0,0,0-4.6-5.4,3.756,3.756,0,0,0-.4-.35Z"/>
        <path id="Path_2713" data-name="Path 2713" class="cls-8" d="M2080.7,526.4v9.45h14.9V526.4a16.427,16.427,0,0,0-7.45-7.45A16.12,16.12,0,0,0,2080.7,526.4Z"/>
        <path id="Path_2714" data-name="Path 2714" class="cls-9" d="M2088.15,516.95a1.874,1.874,0,0,0-.85.2,17.781,17.781,0,0,0-8.35,8.35,1.662,1.662,0,0,0-.25.9v8.55a32.623,32.623,0,0,0-4.7,5.55,1.876,1.876,0,0,0-.35,1.1v4.45h2V541.6a32.31,32.31,0,0,1,4.6-5.4q.25-.2.45-.35V526.4a16.12,16.12,0,0,1,7.45-7.45,16.427,16.427,0,0,1,7.45,7.45v9.45a3.756,3.756,0,0,1,.4.35,32.31,32.31,0,0,1,4.6,5.4v4.45h2V541.6a1.876,1.876,0,0,0-.35-1.1,36.309,36.309,0,0,0-3.75-4.65q-.45-.45-.9-.85v-8.6a2.31,2.31,0,0,0-.2-.95,18.365,18.365,0,0,0-8.4-8.3A1.875,1.875,0,0,0,2088.15,516.95Z"/>
      </g>
    </g>
    <g id="Group_725" data-name="Group 725">
      <g id="Group_724" data-name="Group 724">
        <path id="Path_2715" data-name="Path 2715" class="cls-1" d="M1991.8,673.05l4.45,1.9h19l4.5-1.9,1.75-15.75H1990Z"/>
        <path id="Path_2716" data-name="Path 2716" class="cls-2" d="M2021.5,657.3l-2.9-11h-24.95l-3.65,11Z"/>
        <path id="Path_2717" data-name="Path 2717" class="cls-3" d="M2018.6,646.3l2.9,11-1.75,15.75-4.5,1.9h-19l-4.45-1.9L1990,657.3l3.65-11h-2.1l-3.45,10.4a1.466,1.466,0,0,0-.05.85l1.8,15.75a2.066,2.066,0,0,0,.35.95,2.013,2.013,0,0,0,.85.65l4.45,1.9a1.883,1.883,0,0,0,.75.15h19a2.264,2.264,0,0,0,.8-.15l4.5-1.9a2.1,2.1,0,0,0,.8-.65,1.831,1.831,0,0,0,.4-.95l1.75-15.75a1.863,1.863,0,0,0-.05-.75l-2.8-10.5Z"/>
        <path id="Path_2718" data-name="Path 2718" class="cls-4" d="M2018.6,627.6h-24.95v18.7h24.95V627.6m0-18.45-3.35-3.35h-18.1l-3.5,3.5v16.3h24.95V609.15m-12.2,12.8h-9.6v-4.4h9.6v4.4m-12.75-41.4,3.5,3.5h18.1l3.35-3.35V557.6h-24.95v22.95m24.95-24.95v-8.95h-24.95v8.95Z"/>
        <path id="Path_2719" data-name="Path 2719" class="cls-5" d="M1993.65,625.6v2h24.95v-2h-24.95m3.15-3.65h9.6v-4.4h-9.6v4.4m18.45-37.9h-18.1V605.8h18.1V584.05m3.35-26.45v-2h-24.95v2Z"/>
        <path id="Path_2720" data-name="Path 2720" class="cls-6" d="M1991.65,546.05v34.5a1.975,1.975,0,0,0,.6,1.45l2.9,2.9v20.05l-2.9,2.95a1.815,1.815,0,0,0-.6,1.4V646l-.1.3h2.1v-37l3.5-3.5V584.05l-3.5-3.5v-34.5h-2m26.95,9.55v25.1l-3.35,3.35V605.8l3.35,3.35V646.3h2.05l-.05-.2V609.15a1.9,1.9,0,0,0-.55-1.4l-2.8-2.8V584.9l2.8-2.75a2.07,2.07,0,0,0,.55-1.45V546.05h-2v9.55Z"/>
        <path id="Path_2721" data-name="Path 2721" class="cls-7" d="M1998.7,535.85q-.2.15-.45.35a32.321,32.321,0,0,0-4.6,5.4v5.05h24.95V541.6a32.321,32.321,0,0,0-4.6-5.4,3.745,3.745,0,0,0-.4-.35Z"/>
        <path id="Path_2722" data-name="Path 2722" class="cls-8" d="M1998.7,526.4v9.45h14.9V526.4a16.427,16.427,0,0,0-7.45-7.45A16.12,16.12,0,0,0,1998.7,526.4Z"/>
        <path id="Path_2723" data-name="Path 2723" class="cls-9" d="M2006.15,516.95a1.874,1.874,0,0,0-.85.2,17.781,17.781,0,0,0-8.35,8.35,1.664,1.664,0,0,0-.25.9v8.55a32.623,32.623,0,0,0-4.7,5.55,1.877,1.877,0,0,0-.35,1.1v4.45h2V541.6a32.321,32.321,0,0,1,4.6-5.4q.25-.2.45-.35V526.4a16.12,16.12,0,0,1,7.45-7.45,16.427,16.427,0,0,1,7.45,7.45v9.45a3.745,3.745,0,0,1,.4.35,32.321,32.321,0,0,1,4.6,5.4v4.45h2V541.6a1.877,1.877,0,0,0-.35-1.1,36.309,36.309,0,0,0-3.75-4.65q-.45-.45-.9-.85v-8.6a2.314,2.314,0,0,0-.2-.95,18.365,18.365,0,0,0-8.4-8.3A1.875,1.875,0,0,0,2006.15,516.95Z"/>
      </g>
    </g>
    <g id="Group_727" data-name="Group 727">
      <g id="Group_726" data-name="Group 726">
        <path id="Path_2724" data-name="Path 2724" class="cls-8" d="M2070.05,455.45q-1.15-3.35-2.4-6.45-1.85.4-3.75.75a89.248,89.248,0,0,1,6.15,12.25,157.555,157.555,0,0,1,7.35,23.7q1.25,5.4,2.35,11.3-.9-5.85-1.95-11.3a214.692,214.692,0,0,0-7.75-30.25M2025.5,462a82.285,82.285,0,0,1,6.15-12.25q-1.9-.35-3.7-.7-1.3,3.05-2.45,6.4a218.957,218.957,0,0,0-7.8,30.25q-1.05,5.45-1.95,11.3,1.1-5.9,2.35-11.3A153.6,153.6,0,0,1,2025.5,462Z"/>
        <path id="Path_2725" data-name="Path 2725" class="cls-9" d="M2071.95,454.8q-1.15-3.25-2.35-6.25-1,.25-1.95.45,1.25,3.1,2.4,6.45a214.692,214.692,0,0,1,7.75,30.25q1.05,5.45,1.95,11.3h2v-.3a1.464,1.464,0,0,1-.05-.35q-.9-5.5-1.85-10.65-.4-2.15-.8-4.25a219.121,219.121,0,0,0-7.1-26.65m-46.45.65q1.15-3.35,2.45-6.4-1.05-.25-2-.5-1.25,3-2.35,6.25a220.084,220.084,0,0,0-7.95,30.9q-1,5.3-1.85,11a.944.944,0,0,0-.05.3h2q.9-5.85,1.95-11.3A218.957,218.957,0,0,1,2025.5,455.45Z"/>
        <path id="Path_2726" data-name="Path 2726" class="cls-10" d="M2027.95,449.05q1.8.35,3.7.7,6.95-11.5,16.1-16.75,9.15,5.25,16.15,16.75,1.9-.35,3.75-.75-8.2-20.05-19.9-28Q2036.05,429,2027.95,449.05Z"/>
        <path id="Path_2727" data-name="Path 2727" class="cls-4" d="M2047.75,451a98.919,98.919,0,0,0,16.15-1.25q-7-11.5-16.15-16.75-9.15,5.25-16.1,16.75A98,98,0,0,0,2047.75,451Z"/>
        <path id="Path_2728" data-name="Path 2728" class="cls-7" d="M2063.9,449.75a104.63,104.63,0,0,1-32.25,0A82.285,82.285,0,0,0,2025.5,462a153.6,153.6,0,0,0-7.4,23.7q-1.25,5.4-2.35,11.3h64q-1.1-5.9-2.35-11.3a157.555,157.555,0,0,0-7.35-23.7,89.248,89.248,0,0,0-6.15-12.25M2032.75,483a2.663,2.663,0,0,1,2.15,1.15,4.356,4.356,0,0,1,.7,1.55,5.352,5.352,0,0,1,.15,1.3,4.579,4.579,0,0,1-.85,2.8,2.633,2.633,0,0,1-2.15,1.2,2.508,2.508,0,0,1-2.1-1.2,4.4,4.4,0,0,1-.9-2.8,5.352,5.352,0,0,1,.15-1.3,5.14,5.14,0,0,1,.75-1.55,2.533,2.533,0,0,1,2.1-1.15m-7.6,1.15a5.638,5.638,0,0,1,.5,1.55,7.921,7.921,0,0,1,.1,1.3,5.992,5.992,0,0,1-.6,2.8q-.6,1.2-1.4,1.2-.85,0-1.4-1.2a5.992,5.992,0,0,1-.6-2.8,7.921,7.921,0,0,1,.1-1.3,5.638,5.638,0,0,1,.5-1.55q.55-1.15,1.4-1.15.8,0,1.4,1.15m18.8,1.55a3.965,3.965,0,0,1,.95-1.5,3.893,3.893,0,0,1,2.85-1.2,4.267,4.267,0,0,1,3.8,2.7,4.088,4.088,0,0,1,.2,1.3,3.893,3.893,0,0,1-1.2,2.85,3.811,3.811,0,0,1-2.8,1.15,3.929,3.929,0,0,1-4-4,4.088,4.088,0,0,1,.2-1.3m15.95,0a3.892,3.892,0,0,1,.7-1.5,2.633,2.633,0,0,1,2.15-1.2,2.508,2.508,0,0,1,2.1,1.2,4.532,4.532,0,0,1,.75,1.5,5.358,5.358,0,0,1,.15,1.3,4.617,4.617,0,0,1-.9,2.85,2.534,2.534,0,0,1-2.1,1.15,2.663,2.663,0,0,1-2.15-1.15,4.8,4.8,0,0,1-.85-2.85,5.358,5.358,0,0,1,.15-1.3m13.75,0a7.921,7.921,0,0,1,.1,1.3,6.3,6.3,0,0,1-.6,2.85q-.55,1.15-1.4,1.15-.8,0-1.4-1.15a6.3,6.3,0,0,1-.6-2.85,7.921,7.921,0,0,1,.1-1.3,4.959,4.959,0,0,1,.5-1.5q.6-1.2,1.4-1.2.85,0,1.4,1.2A4.959,4.959,0,0,1,2073.65,485.7Z"/>
        <path id="Path_2729" data-name="Path 2729" class="cls-11" d="M2073.75,487a7.921,7.921,0,0,0-.1-1.3,4.959,4.959,0,0,0-.5-1.5q-.55-1.2-1.4-1.2-.8,0-1.4,1.2a4.959,4.959,0,0,0-.5,1.5,7.921,7.921,0,0,0-.1,1.3,6.3,6.3,0,0,0,.6,2.85q.6,1.15,1.4,1.15.85,0,1.4-1.15a6.3,6.3,0,0,0,.6-2.85m-13.15-2.8a3.892,3.892,0,0,0-.7,1.5,5.358,5.358,0,0,0-.15,1.3,4.8,4.8,0,0,0,.85,2.85,2.663,2.663,0,0,0,2.15,1.15,2.534,2.534,0,0,0,2.1-1.15,4.617,4.617,0,0,0,.9-2.85,5.358,5.358,0,0,0-.15-1.3,4.532,4.532,0,0,0-.75-1.5,2.508,2.508,0,0,0-2.1-1.2,2.633,2.633,0,0,0-2.15,1.2m-15.7,0a3.965,3.965,0,0,0-.95,1.5,4.088,4.088,0,0,0-.2,1.3,3.929,3.929,0,0,0,4,4,3.811,3.811,0,0,0,2.8-1.15,3.893,3.893,0,0,0,1.2-2.85,4.088,4.088,0,0,0-.2-1.3,4.267,4.267,0,0,0-3.8-2.7,3.893,3.893,0,0,0-2.85,1.2m-19.25,1.5a5.638,5.638,0,0,0-.5-1.55q-.6-1.15-1.4-1.15-.85,0-1.4,1.15a5.638,5.638,0,0,0-.5,1.55,7.921,7.921,0,0,0-.1,1.3,5.992,5.992,0,0,0,.6,2.8q.55,1.2,1.4,1.2.8,0,1.4-1.2a5.992,5.992,0,0,0,.6-2.8,7.921,7.921,0,0,0-.1-1.3m9.25-1.55a2.663,2.663,0,0,0-2.15-1.15,2.533,2.533,0,0,0-2.1,1.15,5.14,5.14,0,0,0-.75,1.55,5.352,5.352,0,0,0-.15,1.3,4.4,4.4,0,0,0,.9,2.8,2.508,2.508,0,0,0,2.1,1.2,2.633,2.633,0,0,0,2.15-1.2,4.579,4.579,0,0,0,.85-2.8,5.352,5.352,0,0,0-.15-1.3A4.356,4.356,0,0,0,2034.9,484.15Z"/>
        <path id="Path_2730" data-name="Path 2730" class="cls-6" d="M2047.75,419a1.877,1.877,0,0,0-1.1.35q-12.3,8.25-20.7,29.2.95.25,2,.5,8.1-20.05,19.8-28.05,11.7,7.95,19.9,28,.95-.2,1.95-.45-8.45-20.95-20.7-29.2A2.109,2.109,0,0,0,2047.75,419Z"/>
      </g>
    </g>
    <g id="Group_729" data-name="Group 729">
      <g id="Group_728" data-name="Group 728">
        <path id="Path_2731" data-name="Path 2731" class="cls-6" d="M2081.75,497h-2v64h2V497m-66,0h-2v64h2Z"/>
        <path id="Path_2732" data-name="Path 2732" class="cls-10" d="M2079.75,497h-2v64h2V497m-10,27.2V524a21.064,21.064,0,0,0-6.5-15.6h.05a21.17,21.17,0,0,0-15.55-6.4,21.853,21.853,0,0,0-22,22v.2a21.956,21.956,0,0,0,37.5,15.35l.05-.05a20.84,20.84,0,0,0,6.45-15.3m-2-.2v.2a20.15,20.15,0,0,1-20,19.8,19.358,19.358,0,0,1-14.2-5.9,19.113,19.113,0,0,1-5.8-13.9V524a19.806,19.806,0,0,1,20-20,19.973,19.973,0,0,1,20,20m-50-27h-2v64h2Z"/>
        <path id="Path_2733" data-name="Path 2733" class="cls-4" d="M2017.75,497v64h60V497h-60m6,60q-.85,0-1.4-1.2a5.992,5.992,0,0,1-.6-2.8,7.921,7.921,0,0,1,.1-1.3,5.636,5.636,0,0,1,.5-1.55q.55-1.15,1.4-1.15.8,0,1.4,1.15a5.636,5.636,0,0,1,.5,1.55,7.921,7.921,0,0,1,.1,1.3,5.992,5.992,0,0,1-.6,2.8q-.6,1.2-1.4,1.2m46-33v.2a20.84,20.84,0,0,1-6.45,15.3l-.05.05a21.029,21.029,0,0,1-15.5,6.45,21.937,21.937,0,0,1-22-21.8V524a22.027,22.027,0,0,1,37.55-15.6h-.05a21.064,21.064,0,0,1,6.5,15.6m-7,25a2.508,2.508,0,0,1,2.1,1.2,4.532,4.532,0,0,1,.75,1.5,5.358,5.358,0,0,1,.15,1.3,4.616,4.616,0,0,1-.9,2.85,2.534,2.534,0,0,1-2.1,1.15,2.663,2.663,0,0,1-2.15-1.15,4.8,4.8,0,0,1-.85-2.85,5.358,5.358,0,0,1,.15-1.3,3.891,3.891,0,0,1,.7-1.5,2.633,2.633,0,0,1,2.15-1.2m-11,4a3.893,3.893,0,0,1-1.2,2.85,3.811,3.811,0,0,1-2.8,1.15,3.929,3.929,0,0,1-4-4,4.088,4.088,0,0,1,.2-1.3,3.965,3.965,0,0,1,.95-1.5,3.893,3.893,0,0,1,2.85-1.2,4.267,4.267,0,0,1,3.8,2.7,4.088,4.088,0,0,1,.2,1.3m-16.15-1.3a5.351,5.351,0,0,1,.15,1.3,4.579,4.579,0,0,1-.85,2.8,2.633,2.633,0,0,1-2.15,1.2,2.508,2.508,0,0,1-2.1-1.2,4.4,4.4,0,0,1-.9-2.8,5.351,5.351,0,0,1,.15-1.3,5.138,5.138,0,0,1,.75-1.55,2.533,2.533,0,0,1,2.1-1.15,2.663,2.663,0,0,1,2.15,1.15,4.355,4.355,0,0,1,.7,1.55m36.15-2.7q.85,0,1.4,1.2a4.958,4.958,0,0,1,.5,1.5,7.921,7.921,0,0,1,.1,1.3,6.3,6.3,0,0,1-.6,2.85q-.55,1.15-1.4,1.15-.8,0-1.4-1.15a6.3,6.3,0,0,1-.6-2.85,7.921,7.921,0,0,1,.1-1.3,4.958,4.958,0,0,1,.5-1.5Q2070.95,549,2071.75,549Z"/>
        <path id="Path_2734" data-name="Path 2734" class="cls-5" d="M2073.15,550.2q-.55-1.2-1.4-1.2-.8,0-1.4,1.2a4.958,4.958,0,0,0-.5,1.5,7.921,7.921,0,0,0-.1,1.3,6.3,6.3,0,0,0,.6,2.85q.6,1.15,1.4,1.15.85,0,1.4-1.15a6.3,6.3,0,0,0,.6-2.85,7.921,7.921,0,0,0-.1-1.3,4.958,4.958,0,0,0-.5-1.5m-37.4,2.8a5.351,5.351,0,0,0-.15-1.3,4.355,4.355,0,0,0-.7-1.55,2.663,2.663,0,0,0-2.15-1.15,2.533,2.533,0,0,0-2.1,1.15,5.138,5.138,0,0,0-.75,1.55,5.351,5.351,0,0,0-.15,1.3,4.4,4.4,0,0,0,.9,2.8,2.508,2.508,0,0,0,2.1,1.2,2.633,2.633,0,0,0,2.15-1.2,4.579,4.579,0,0,0,.85-2.8m14.8,2.85a3.893,3.893,0,0,0,1.2-2.85,4.088,4.088,0,0,0-.2-1.3,4.267,4.267,0,0,0-3.8-2.7,3.893,3.893,0,0,0-2.85,1.2,3.965,3.965,0,0,0-.95,1.5,4.088,4.088,0,0,0-.2,1.3,3.929,3.929,0,0,0,4,4,3.811,3.811,0,0,0,2.8-1.15m14.3-5.65a2.508,2.508,0,0,0-2.1-1.2,2.633,2.633,0,0,0-2.15,1.2,3.891,3.891,0,0,0-.7,1.5,5.358,5.358,0,0,0-.15,1.3,4.8,4.8,0,0,0,.85,2.85,2.663,2.663,0,0,0,2.15,1.15,2.534,2.534,0,0,0,2.1-1.15,4.616,4.616,0,0,0,.9-2.85,5.358,5.358,0,0,0-.15-1.3,4.532,4.532,0,0,0-.75-1.5m-42.5,5.6q.55,1.2,1.4,1.2.8,0,1.4-1.2a5.992,5.992,0,0,0,.6-2.8,7.921,7.921,0,0,0-.1-1.3,5.636,5.636,0,0,0-.5-1.55q-.6-1.15-1.4-1.15-.85,0-1.4,1.15a5.636,5.636,0,0,0-.5,1.55,7.921,7.921,0,0,0-.1,1.3A5.992,5.992,0,0,0,2022.35,555.8Z"/>
        <path id="Path_2735" data-name="Path 2735" class="cls-12" d="M2067.75,524.2V524a19.973,19.973,0,0,0-20-20,19.806,19.806,0,0,0-20,20v.2a19.113,19.113,0,0,0,5.8,13.9,19.358,19.358,0,0,0,14.2,5.9,20.15,20.15,0,0,0,20-19.8m-20-15.2a14.937,14.937,0,0,1,15,15v.2a14.2,14.2,0,0,1-4.4,10.35l-.05.05a14.284,14.284,0,0,1-10.55,4.4,14.506,14.506,0,0,1-10.65-4.4,14.344,14.344,0,0,1-4.35-10.4V524a14.51,14.51,0,0,1,4.3-10.6l.05-.05A14.7,14.7,0,0,1,2047.75,509Z"/>
        <path id="Path_2736" data-name="Path 2736" class="cls-13" d="M2058.35,513.35a14.425,14.425,0,0,0-10.6-4.35,14.7,14.7,0,0,0-10.65,4.35l-.05.05a14.51,14.51,0,0,0-4.3,10.6v.2a14.344,14.344,0,0,0,4.35,10.4,14.506,14.506,0,0,0,10.65,4.4,14.284,14.284,0,0,0,10.55-4.4l.05-.05a14.2,14.2,0,0,0,4.4-10.35V524a14.506,14.506,0,0,0-4.4-10.65m-1.6,1.25.2.2a12.425,12.425,0,0,1,3.8,9.2v.2a12.12,12.12,0,0,1-3.8,8.9l-.1.1a12.309,12.309,0,0,1-9.1,3.8,12.613,12.613,0,0,1-9.25-3.85v.05a12.538,12.538,0,0,1-3.75-9V524a12.7,12.7,0,0,1,3.7-9.2l.1-.05a13.106,13.106,0,0,1,18.2-.15Z"/>
        <path id="Path_2737" data-name="Path 2737" class="cls-14" d="M2034.75,524v.2a12.538,12.538,0,0,0,3.75,9v-.05a12.613,12.613,0,0,0,9.25,3.85,12.309,12.309,0,0,0,9.1-3.8l.1-.1a12.12,12.12,0,0,0,3.8-8.9V524Z"/>
        <path id="Path_2738" data-name="Path 2738" class="cls-15" d="M2056.95,514.8l-.2-.2a13.106,13.106,0,0,0-18.2.15l-.1.05a12.7,12.7,0,0,0-3.7,9.2h26A12.425,12.425,0,0,0,2056.95,514.8Z"/>
      </g>
    </g>
    <g id="Group_731" data-name="Group 731">
      <g id="Group_730" data-name="Group 730">
        <path id="Path_2739" data-name="Path 2739" class="cls-10" d="M2015.75,625h2V605h-2v20m62,0h2V605h-2v20m2-60h-2v16h2V565m-62,0h-2v16h2Z"/>
        <path id="Path_2740" data-name="Path 2740" class="cls-6" d="M2015.75,605h-2v20h2V605m66,20V605h-2v20h2m-2-64v20h2V561h-2m-64,4v-4h-2v20h2Z"/>
        <path id="Path_2741" data-name="Path 2741" class="cls-4" d="M2077.75,625V605h-60v20h60m2-60v-4h-2v4h2m-62,0v16h60V565h-60m0,0v-4h-2v4Z"/>
        <path id="Path_2742" data-name="Path 2742" class="cls-7" d="M2077.75,581h-60v24h60Z"/>
        <path id="Path_2743" data-name="Path 2743" class="cls-9" d="M2081.75,581h-2v24h2V581m-66,0h-2v24h2Z"/>
        <path id="Path_2744" data-name="Path 2744" class="cls-8" d="M2079.75,581h-2v24h2V581m-62,0h-2v24h2Z"/>
        <path id="Path_2745" data-name="Path 2745" class="cls-5" d="M2017.75,561v4h60v-4Z"/>
      </g>
    </g>
    <g id="Group_733" data-name="Group 733">
      <g id="Group_732" data-name="Group 732">
        <path id="Path_2746" data-name="Path 2746" class="cls-10" d="M2015.75,689h2V650.7h-2V689m2-64h-2v15.2h2V625m60,64h2v-9.9h-2V689m2-64h-2v21.2h2Z"/>
        <path id="Path_2747" data-name="Path 2747" class="cls-4" d="M2017.75,640.2h-2v10.5h2V640.2m62,6h-2v32.9h2V646.2m-21.85,32.9V656.95h10.5V646.2h9.35V625h-60v15.2h19.3v10.5h-19.3V689h60v-9.9Z"/>
        <path id="Path_2748" data-name="Path 2748" class="cls-6" d="M2015.75,625h-2v64h2V625m66,0h-2v64h2Z"/>
        <path id="Path_2749" data-name="Path 2749" class="cls-5" d="M2037.05,650.7V640.2h-19.3v10.5h19.3m20.85,6.25V679.1h19.85V646.2h-9.35v10.75Z"/>
      </g>
    </g>
    <g id="Group_735" data-name="Group 735">
      <g id="Group_734" data-name="Group 734">
        <path id="Path_2750" data-name="Path 2750" class="cls-11" d="M2051.55,712.45V702.1a4.213,4.213,0,0,0-1.15-2.95,3.87,3.87,0,0,0-2.85-1.15,3.707,3.707,0,0,0-2.8,1.15,4.119,4.119,0,0,0-1.2,2.95v25.7a4.119,4.119,0,0,0,1.2,2.95,3.6,3.6,0,0,0,2.15,1.2,4.251,4.251,0,0,0,1.3,0,3.624,3.624,0,0,0,2.2-1.2,4.213,4.213,0,0,0,1.15-2.95V712.45m27.5-19.5q.35-1.9.7-3.95h-64q.35,2.05.75,3.95Z"/>
        <path id="Path_2751" data-name="Path 2751" class="cls-7" d="M2060.6,712.45l1.2.1q11.6.3,16.25-15.65.55-1.85,1-3.95H2016.5q.5,2.4,1.15,4.5,4.8,15.85,16.7,15.05a3.369,3.369,0,0,0,.55-.05h8.65V702.1a4.119,4.119,0,0,1,1.2-2.95,3.707,3.707,0,0,1,2.8-1.15,3.87,3.87,0,0,1,2.85,1.15,4.213,4.213,0,0,1,1.15,2.95v10.35Z"/>
        <path id="Path_2752" data-name="Path 2752" class="cls-16" d="M2067.9,731h8.35q11.6-20.55,1.8-34.1-4.65,15.95-16.25,15.65,8.65,7.4,6.1,18.45m-50.25-33.55q-9.2,13.4,2.2,33.55h8.35q-2.55-11.1,6.15-18.5Q2022.45,713.3,2017.65,697.45Z"/>
        <path id="Path_2753" data-name="Path 2753" class="cls-9" d="M2081.75,689h-2q-.35,2.05-.7,3.95-.45,2.1-1,3.95,9.8,13.55-1.8,34.1h-8.35q2.55-11.05-6.1-18.45l-1.2-.1h-9.05V727.8a4.213,4.213,0,0,1-1.15,2.95,3.624,3.624,0,0,1-2.2,1.2,4.251,4.251,0,0,1-1.3,0,3.6,3.6,0,0,1-2.15-1.2,4.119,4.119,0,0,1-1.2-2.95V712.45h-8.65a3.369,3.369,0,0,1-.55.05q-8.7,7.4-6.15,18.5h-8.35q-11.4-20.15-2.2-33.55-.65-2.1-1.15-4.5-.4-1.9-.75-3.95h-1.95a.622.622,0,0,0,0,.35q.35,2.05.75,4v.05q.4,1.9.95,3.7-9.15,14.05,2.6,34.9a2.68,2.68,0,0,0,.75.75,2.024,2.024,0,0,0,1,.25h8.35a2.11,2.11,0,0,0,1.15-.35,2.057,2.057,0,0,0,.8-2.1q-2.2-9.6,5.05-16.1h6.35V727.8a6.159,6.159,0,0,0,1.7,4.3.044.044,0,0,1,.05.05,5.437,5.437,0,0,0,3.3,1.8,8.614,8.614,0,0,0,.95.05q.5,0,1-.05a6.153,6.153,0,0,0,5-6.15V714.45h6.85a3.646,3.646,0,0,0,.6.05q7.15,6.5,4.95,16.05a1.869,1.869,0,0,0,.1,1.2,1.777,1.777,0,0,0,.75.9,1.876,1.876,0,0,0,1.1.35h8.35a2.024,2.024,0,0,0,1-.25,2.677,2.677,0,0,0,.75-.75q11.95-21.3,2.25-35.45.4-1.55.75-3.15a.144.144,0,0,1,.05-.1q.3-1.9.7-3.95Z"/>
      </g>
    </g>
  </g>
</svg>
