<svg xmlns="http://www.w3.org/2000/svg" width="100%" height="100%"  viewBox="0 0 146.625 92.533">
  <defs>
    <style>
      .cls-1 {
        fill: #484848;
      }

      .cls-2 {
        fill: #5b5b5b;
      }

      .cls-3 {
        fill: #626262;
      }

      .cls-4 {
        fill: #6d6d6d;
      }

      .cls-5 {
        fill: #b5cdd2;
      }

      .cls-6 {
        fill: #78888c;
      }

      .cls-7 {
        fill: #a1b6bb;
      }

      .cls-8 {
        fill: #adc4c9;
      }

      .cls-9 {
        fill: #95a8ad;
      }

      .cls-10 {
        fill: #ac3939;
      }

      .cls-11 {
        fill: #bd3e3e;
      }

      .cls-12 {
        fill: #e9e9e9;
      }

      .cls-13 {
        fill: #802b2b;
      }

      .cls-14 {
        fill: #bbb;
      }

      .cls-15 {
        fill: #eee;
      }

      .cls-16 {
        fill: #d9d9d9;
      }
    </style>
  </defs>
  <g id="Long_tail" data-name="Long tail" transform="translate(-192.7 2135.267) rotate(-90)">
    <g id="Group_679" data-name="Group 679">
      <g id="Group_678" data-name="Group 678">
        <path id="Path_2606" data-name="Path 2606" class="cls-1" d="M2105.15,262.15a1.524,1.524,0,0,0-.45.65,1.776,1.776,0,0,0-.2.8v17a1.975,1.975,0,0,0,.6,1.45l1.4,1.4v4.15a1.975,1.975,0,0,0,.6,1.45,1.9,1.9,0,0,0,1.4.55h11a1.89,1.89,0,0,0,2-2v-4.15l1.45-1.4a2.069,2.069,0,0,0,.55-1.45v-17a1.9,1.9,0,0,0-.55-1.4l-2.75-2.75a1.975,1.975,0,0,0-1.45-.6h-9.2a1.835,1.835,0,0,0-1.35.55l-3.05,2.75m1.35,1.45,3.05-2.75h9.2l2.75,2.75v17l-2,2v5h-11v-5l-2-2v-17m-46.95-4.75a1.835,1.835,0,0,0-1.35.55l-3.05,2.75a1.524,1.524,0,0,0-.45.65,1.776,1.776,0,0,0-.2.8v17a1.975,1.975,0,0,0,.6,1.45l1.4,1.4v4.15a1.975,1.975,0,0,0,.6,1.45,1.9,1.9,0,0,0,1.4.55h11a1.89,1.89,0,0,0,2-2v-4.15l1.45-1.4a2.069,2.069,0,0,0,.55-1.45v-17a1.9,1.9,0,0,0-.55-1.4l-2.75-2.75a1.975,1.975,0,0,0-1.45-.6h-9.2m-3.05,9.75v-5l3.05-2.75h9.2l2.75,2.75v17l-2,2v5h-11v-5l-2-2v-12Z"/>
        <path id="Path_2607" data-name="Path 2607" class="cls-2" d="M2121.5,280.6v-3h-15v3l2,2v5h11v-5l2-2m-11.95-19.75-3.05,2.75v5h15v-5l-2.75-2.75h-9.2M2058.5,282.6v5h11v-5l2-2v-3h-15v3l2,2m-2-19v5h15v-5l-2.75-2.75h-9.2Z"/>
        <path id="Path_2608" data-name="Path 2608" class="cls-3" d="M2121.5,268.6h-15v9h15v-9m-65,0v9h15v-9Z"/>
      </g>
    </g>
    <g id="Group_681" data-name="Group 681">
      <g id="Group_680" data-name="Group 680">
        <path id="Path_2609" data-name="Path 2609" class="cls-2" d="M2099.8,229.7H2090v12h9.8v-12m-21.6,0v12h9.8v-12Z"/>
        <path id="Path_2610" data-name="Path 2610" class="cls-4" d="M2090,229.7h-2v12h2Z"/>
        <path id="Path_2611" data-name="Path 2611" class="cls-1" d="M2101.8,230.55l.85-.85h-2.85v12h2.85l-.85-.85v-10.3m-25.6,0v10.3l-.85.85h2.85v-12h-2.85Z"/>
        <path id="Path_2612" data-name="Path 2612" class="cls-5" d="M2078.2,241.7l-3,3h27.6l-3-3h-21.6m3-47-2,2h19.6l-2-2Z"/>
        <path id="Path_2613" data-name="Path 2613" class="cls-6" d="M2074.2,245.7l1-1,3-3h-2.85l-2.6,2.6a2.087,2.087,0,0,0-.3.4,2.023,2.023,0,0,0-.25,1v7a2.4,2.4,0,0,0,.15.85,3.078,3.078,0,0,0,.5.65l4.45,4a2.053,2.053,0,0,0,1.35.5h20.7a2.053,2.053,0,0,0,1.35-.5l4.45-4a3.078,3.078,0,0,0,.5-.65,2.4,2.4,0,0,0,.15-.85v-7a2.023,2.023,0,0,0-.25-1,2.087,2.087,0,0,0-.3-.4l-2.6-2.6h-2.85l3,3,1,1v7l-4.45,4h-20.7l-4.45-4v-7m24.05-52.4a1.976,1.976,0,0,0-1.45-.6h-15.6a1.976,1.976,0,0,0-1.45.6l-6,6a1.9,1.9,0,0,0-.55,1.4v26a2.069,2.069,0,0,0,.55,1.45l1.6,1.55h2.85l-3-3v-26l4-4,2-2h15.6l2,2,4,4v26l-3,3h2.85l1.6-1.55a2.069,2.069,0,0,0,.55-1.45v-26a1.9,1.9,0,0,0-.55-1.4Z"/>
        <path id="Path_2614" data-name="Path 2614" class="cls-7" d="M2075.2,244.7l-1,1v7l4.45,4h20.7l4.45-4v-7l-1-1h-27.6m23.6-48h-19.6l-4,4v4h27.6v-4Z"/>
        <path id="Path_2615" data-name="Path 2615" class="cls-8" d="M2096,215.7v5h4v-5h2.8v-11h-27.6v11h2.8v5h4v-5Z"/>
        <path id="Path_2616" data-name="Path 2616" class="cls-9" d="M2096,220.7v-5h-14v5h-4v-5h-2.8v11l3,3h21.6l3-3v-11H2100v5Z"/>
      </g>
    </g>
    <g id="Group_683" data-name="Group 683">
      <g id="Group_682" data-name="Group 682">
        <path id="Path_2617" data-name="Path 2617" class="cls-1" d="M2063.55,256.65a1.958,1.958,0,0,0-.2,1.5l4.4,19.25q5.6,24.1,19.85,37.9a1.933,1.933,0,0,0,2.8,0q14.25-13.8,19.85-37.9l4.4-19.25a1.84,1.84,0,0,0-.25-1.5,2.075,2.075,0,0,0-1.15-.9l-23.7-6.75a2.055,2.055,0,0,0-1.1,0l-23.7,6.75a2.313,2.313,0,0,0-1.2.9m4.3,12.25-1.85-8.1-.7-3.1,23.7-6.75,23.7,6.75-.7,3.1-1.85,8.1-1.85,8.05q-5.45,23.45-19.3,36.95-13.85-13.5-19.3-36.95Z"/>
        <path id="Path_2618" data-name="Path 2618" class="cls-2" d="M2067.85,268.9l1.85,8.05q5.45,23.45,19.3,36.95,13.85-13.5,19.3-36.95l1.85-8.05q-9.1,29.1-21.15,38.7-12.05-9.6-21.15-38.7m-1.85-8.1,23-2.2,23,2.2.7-3.1-23.7-6.75-23.7,6.75Z"/>
        <path id="Path_2619" data-name="Path 2619" class="cls-4" d="M2089,258.6l-23,2.2,1.85,8.1q9.1,29.1,21.15,38.7,12.05-9.6,21.15-38.7l1.85-8.1Z"/>
      </g>
    </g>
    <g id="Group_685" data-name="Group 685">
      <g id="Group_684" data-name="Group 684">
        <path id="Path_2620" data-name="Path 2620" class="cls-10" d="M2114,309.6l2.6,17,16.7-22.2-6.15-43.85L2114,309.6m6.8-13.5a2.544,2.544,0,0,1,1.3-1.65,2.581,2.581,0,0,1,2.05-.25,2.464,2.464,0,0,1,1.65,1.25,2.66,2.66,0,0,1,.35,2.05,2.734,2.734,0,0,1-1.35,1.7,2.562,2.562,0,0,1-2.1.3,2.421,2.421,0,0,1-1.6-1.3,2.6,2.6,0,0,1-.3-2.1m-2.05,12.5a3.626,3.626,0,0,1-.45-3.15,4.3,4.3,0,0,1,2-2.6,4.119,4.119,0,0,1,3.2-.4,3.984,3.984,0,0,1,2.55,1.95,4.171,4.171,0,0,1,.45,3.25,3.983,3.983,0,0,1-2,2.5,4.027,4.027,0,0,1-5.75-1.55m-74.05-4.2,16.7,22.2,2.6-17-13.15-49.05-6.15,43.85m7.5-8.95a2.464,2.464,0,0,1,1.65-1.25,2.581,2.581,0,0,1,2.05.25,2.544,2.544,0,0,1,1.3,1.65,2.6,2.6,0,0,1-.3,2.1,2.421,2.421,0,0,1-1.6,1.3,2.562,2.562,0,0,1-2.1-.3,2.734,2.734,0,0,1-1.35-1.7,2.66,2.66,0,0,1,.35-2.05m7.5,10a3.626,3.626,0,0,1-.45,3.15,4.027,4.027,0,0,1-5.75,1.55,3.983,3.983,0,0,1-2-2.5,4.171,4.171,0,0,1,.45-3.25,3.984,3.984,0,0,1,2.55-1.95,4.119,4.119,0,0,1,3.2.4A4.3,4.3,0,0,1,2059.7,305.45Z"/>
        <path id="Path_2621" data-name="Path 2621" class="cls-11" d="M2118.3,305.45a3.626,3.626,0,0,0,.45,3.15,4.027,4.027,0,0,0,5.75,1.55,3.983,3.983,0,0,0,2-2.5,4.171,4.171,0,0,0-.45-3.25,3.984,3.984,0,0,0-2.55-1.95,4.119,4.119,0,0,0-3.2.4,4.3,4.3,0,0,0-2,2.6m3.8-11a2.544,2.544,0,0,0-1.3,1.65,2.6,2.6,0,0,0,.3,2.1,2.421,2.421,0,0,0,1.6,1.3,2.562,2.562,0,0,0,2.1-.3,2.734,2.734,0,0,0,1.35-1.7,2.66,2.66,0,0,0-.35-2.05,2.464,2.464,0,0,0-1.65-1.25,2.581,2.581,0,0,0-2.05.25m-62.85,14.15a3.626,3.626,0,0,0,.45-3.15,4.3,4.3,0,0,0-2-2.6,4.119,4.119,0,0,0-3.2-.4,3.984,3.984,0,0,0-2.55,1.95,4.171,4.171,0,0,0-.45,3.25,3.983,3.983,0,0,0,2,2.5,4.027,4.027,0,0,0,5.75-1.55m-5.4-14.4a2.464,2.464,0,0,0-1.65,1.25,2.66,2.66,0,0,0-.35,2.05,2.734,2.734,0,0,0,1.35,1.7,2.562,2.562,0,0,0,2.1.3,2.421,2.421,0,0,0,1.6-1.3,2.6,2.6,0,0,0,.3-2.1,2.544,2.544,0,0,0-1.3-1.65A2.581,2.581,0,0,0,2053.85,294.2Z"/>
        <path id="Path_2622" data-name="Path 2622" class="cls-12" d="M2127.15,260.55l-4-1.05-18.4,68.65,3.65,9.2,8.2-10.75-2.6-17,13.15-49.05m-72.3-1.05-4,1.05L2064,309.6l-2.6,17,8.2,10.75,3.65-9.2Z"/>
        <path id="Path_2623" data-name="Path 2623" class="cls-13" d="M2128.45,258.95a2.786,2.786,0,0,0-.8-.35l-.5,1.95,6.15,43.85-16.7,22.2.5,2.6,17.75-23.6a1.834,1.834,0,0,0,.4-1.45l-6.1-43.85a2.022,2.022,0,0,0-.45-1.05,2.9,2.9,0,0,0-.25-.3m-78.1-.35a2.786,2.786,0,0,0-.8.35,2.9,2.9,0,0,0-.25.3,2.022,2.022,0,0,0-.45,1.05l-6.1,43.85a1.834,1.834,0,0,0,.4,1.45l17.75,23.6.5-2.6-16.7-22.2,6.15-43.85Z"/>
        <path id="Path_2624" data-name="Path 2624" class="cls-14" d="M2102.85,327.6a2.268,2.268,0,0,0,.05,1.25l3.65,9.25a2.123,2.123,0,0,0,.95,1,2.4,2.4,0,0,0,1.4.2,2.115,2.115,0,0,0,1.1-.75l7.1-9.35-.5-2.6-8.2,10.75-3.65-9.2,18.4-68.65,4,1.05.5-1.95-4-1.05a1.513,1.513,0,0,0-.75-.1,2.943,2.943,0,0,0-.75.3,1.693,1.693,0,0,0-.9,1.2l-18.4,68.65m-46.1-68.65a1.693,1.693,0,0,0-.9-1.2,2.943,2.943,0,0,0-.75-.3,1.513,1.513,0,0,0-.75.1l-4,1.05.5,1.95,4-1.05,18.4,68.65-3.65,9.2-8.2-10.75-.5,2.6,7.1,9.35a2.115,2.115,0,0,0,1.1.75,2.4,2.4,0,0,0,1.4-.2,2.123,2.123,0,0,0,.95-1l3.65-9.25a2.268,2.268,0,0,0,.05-1.25Z"/>
      </g>
    </g>
    <g id="Group_687" data-name="Group 687">
      <g id="Group_686" data-name="Group 686">
        <path id="Path_2625" data-name="Path 2625" class="cls-15" d="M2081,290.05a7.68,7.68,0,0,0,2.3,5.65,7.761,7.761,0,0,0,5.7,2.35v-16a7.857,7.857,0,0,0-8,8Z"/>
        <path id="Path_2626" data-name="Path 2626" class="cls-16" d="M2089.2,282.05h-.2v16h.2a8.029,8.029,0,0,0,7.8-8,7.941,7.941,0,0,0-7.8-8Z"/>
      </g>
    </g>
  </g>
</svg>
