<svg xmlns="http://www.w3.org/2000/svg" width="100%" height="100%" viewBox="0 0 114.05 81.15">
  <defs>
    <style>
      .cls-1 {
        fill: #7b7b7b;
      }

      .cls-2 {
        fill: #aaa;
      }

      .cls-3 {
        fill: #cbcbcb;
      }

      .cls-4 {
        fill: #a1b6bb;
      }

      .cls-5 {
        fill: #b5cdd2;
      }

      .cls-6 {
        fill: #95a8ad;
      }

      .cls-7 {
        fill: #adc4c9;
      }

      .cls-8 {
        fill: #78888c;
      }

      .cls-9 {
        fill: #5b5b5b;
      }

      .cls-10 {
        fill: #6d6d6d;
      }

      .cls-11 {
        fill: #484848;
      }

      .cls-12 {
        fill: #e9e9e9;
      }

      .cls-13 {
        fill: #bd3e3e;
      }

      .cls-14 {
        fill: #bbb;
      }

      .cls-15 {
        fill: #ac3939;
      }

      .cls-16 {
        fill: #802b2b;
      }

      .cls-17 {
        fill: #a3a3a3;
      }

      .cls-18 {
        fill: #d9d9d9;
      }

      .cls-19 {
        fill: #eee;
      }

      .cls-20 {
        fill: #4a3c55;
      }

      .cls-21 {
        fill: #5d4b6b;
      }
    </style>
  </defs>
  <g id="ray" transform="translate(-1873.025 -65.45)">
    <g id="Group_585" data-name="Group 585">
      <g id="Group_584" data-name="Group 584">
        <path id="Path_2413" data-name="Path 2413" class="cls-1" d="M1972.45,109.15a2.07,2.07,0,0,0-1.45-.55h-8a1.9,1.9,0,0,0-1.4.55l-2,2a1.975,1.975,0,0,0-.6,1.45v10a1.816,1.816,0,0,0,.6,1.4l3.4,3.45v4.3l-1.4,1.4a1.975,1.975,0,0,0-.6,1.45v4a1.888,1.888,0,0,0,.1.6l2,6a1.756,1.756,0,0,0,.75,1,1.789,1.789,0,0,0,1.15.4h4a2,2,0,0,0,1.2-.4,1.834,1.834,0,0,0,.7-1l2-6a1.888,1.888,0,0,0,.1-.6v-4a2.07,2.07,0,0,0-.55-1.45l-1.45-1.4v-4.3l3.45-3.45a1.9,1.9,0,0,0,.55-1.4v-10a2.069,2.069,0,0,0-.55-1.45l-2-2M1971,110.6l2,2v10l-4,4v6l2,2v4l-2,6h-4l-2-6v-4l2-2v-6l-4-4v-10l2-2Z"/>
        <path id="Path_2414" data-name="Path 2414" class="cls-2" d="M1969,132.6v-6h-4v6l-2,2h8Z"/>
        <path id="Path_2415" data-name="Path 2415" class="cls-3" d="M1963,134.6v4l2,6h4l2-6v-4h-8m10-22-2-2h-8l-2,2v10l4,4h4l4-4Z"/>
      </g>
    </g>
    <g id="Group_587" data-name="Group 587">
      <g id="Group_586" data-name="Group 586">
        <path id="Path_2416" data-name="Path 2416" class="cls-1" d="M1898.45,109.15a2.07,2.07,0,0,0-1.45-.55h-8a1.9,1.9,0,0,0-1.4.55l-2,2a1.975,1.975,0,0,0-.6,1.45v10a1.816,1.816,0,0,0,.6,1.4l3.4,3.45v4.3l-1.4,1.4a1.975,1.975,0,0,0-.6,1.45v4a1.888,1.888,0,0,0,.1.6l2,6a1.756,1.756,0,0,0,.75,1,1.789,1.789,0,0,0,1.15.4h4a2,2,0,0,0,1.2-.4,1.834,1.834,0,0,0,.7-1l2-6a1.888,1.888,0,0,0,.1-.6v-4a2.07,2.07,0,0,0-.55-1.45l-1.45-1.4v-4.3l3.45-3.45a1.9,1.9,0,0,0,.55-1.4v-10a2.069,2.069,0,0,0-.55-1.45l-2-2M1887,122.6v-10l2-2h8l2,2v10l-4,4v6l2,2v4l-2,6h-4l-2-6v-4l2-2v-6Z"/>
        <path id="Path_2417" data-name="Path 2417" class="cls-3" d="M1889,138.6l2,6h4l2-6v-4h-8v4m-2-26v10l4,4h4l4-4v-10l-2-2h-8Z"/>
        <path id="Path_2418" data-name="Path 2418" class="cls-2" d="M1895,132.6v-6h-4v6l-2,2h8Z"/>
      </g>
    </g>
    <g id="Group_589" data-name="Group 589">
      <g id="Group_588" data-name="Group 588">
        <path id="Path_2419" data-name="Path 2419" class="cls-4" d="M1963,106.45v-12h-26v12Z"/>
        <path id="Path_2420" data-name="Path 2420" class="cls-5" d="M1968,124.45v-3h-36v3l4.15,4.65,26.85.35Z"/>
        <path id="Path_2421" data-name="Path 2421" class="cls-6" d="M1963,111.45v-5h-26v5Z"/>
        <path id="Path_2422" data-name="Path 2422" class="cls-7" d="M1968,121.45v-10h-36v10h36m-5-27-4-4h-18l-4,4Z"/>
        <path id="Path_2423" data-name="Path 2423" class="cls-8" d="M1961,89.6l-2,.85,4,4v17h5v13l-5,5-26.85-.35-4.15-4.65v-13h5v-17l4-4-2-.85-3.4,3.4a1.975,1.975,0,0,0-.6,1.45v15h-3a1.9,1.9,0,0,0-1.4.55,1.975,1.975,0,0,0-.6,1.45v13a1.869,1.869,0,0,0,.5,1.3l4.15,4.65a1.7,1.7,0,0,0,.7.5,1.583,1.583,0,0,0,.8.2l26.85.35a2.087,2.087,0,0,0,1.45-.6l5-5a1.9,1.9,0,0,0,.55-1.4v-13a1.89,1.89,0,0,0-2-2h-3v-15a2.069,2.069,0,0,0-.55-1.45Z"/>
        <path id="Path_2424" data-name="Path 2424" class="cls-9" d="M1955,67.45h-11l-3,3v20h18v-20l-4-3m-11,4h2v10h-2v-10m0,16v-4h2v4Z"/>
        <path id="Path_2425" data-name="Path 2425" class="cls-10" d="M1944,83.45v4h2v-4h-2m2-12h-2v10h2Z"/>
        <path id="Path_2426" data-name="Path 2426" class="cls-11" d="M1961,70.45a2.2,2.2,0,0,0-.2-.9,1.985,1.985,0,0,0-.6-.7l-4-3a2,2,0,0,0-1.2-.4h-11a1.9,1.9,0,0,0-1.4.55l-3,3a1.975,1.975,0,0,0-.6,1.45V89.6l2,.85v-20l3-3h11l4,3v20l2-.85Z"/>
      </g>
    </g>
    <g id="Group_591" data-name="Group 591">
      <g id="Group_590" data-name="Group 590">
        <path id="Path_2427" data-name="Path 2427" class="cls-5" d="M1923,129.45l5-5v-3h-36v3l4.15,4.65Z"/>
        <path id="Path_2428" data-name="Path 2428" class="cls-6" d="M1923,111.45v-5h-26v5Z"/>
        <path id="Path_2429" data-name="Path 2429" class="cls-7" d="M1928,121.45v-10h-36v10h36m-27-31-4,4h26l-4-4Z"/>
        <path id="Path_2430" data-name="Path 2430" class="cls-4" d="M1923,94.45h-26v12h26Z"/>
        <path id="Path_2431" data-name="Path 2431" class="cls-9" d="M1901,70.45v20h18v-20l-4-3h-11l-3,3m3,1h2v10h-2v-10m0,16v-4h2v4Z"/>
        <path id="Path_2432" data-name="Path 2432" class="cls-10" d="M1904,83.45v4h2v-4h-2m2-12h-2v10h2Z"/>
        <path id="Path_2433" data-name="Path 2433" class="cls-11" d="M1899,89.6l2,.85v-20l3-3h11l4,3v20l2-.85V70.45a2.2,2.2,0,0,0-.2-.9,1.985,1.985,0,0,0-.6-.7l-4-3a2,2,0,0,0-1.2-.4h-11a1.9,1.9,0,0,0-1.4.55l-3,3a1.975,1.975,0,0,0-.6,1.45Z"/>
        <path id="Path_2434" data-name="Path 2434" class="cls-8" d="M1899,89.6l-3.4,3.4a1.975,1.975,0,0,0-.6,1.45v15h-3a1.9,1.9,0,0,0-1.4.55,1.975,1.975,0,0,0-.6,1.45v13a1.869,1.869,0,0,0,.5,1.3l4.15,4.65a1.7,1.7,0,0,0,.7.5,1.583,1.583,0,0,0,.8.2l26.85.35a2.087,2.087,0,0,0,1.45-.6l5-5a1.9,1.9,0,0,0,.55-1.4v-13a1.89,1.89,0,0,0-2-2h-3v-15a2.069,2.069,0,0,0-.55-1.45L1921,89.6l-2,.85,4,4v17h5v13l-5,5-26.85-.35-4.15-4.65v-13h5v-17l4-4Z"/>
      </g>
    </g>
    <g id="Group_593" data-name="Group 593">
      <g id="Group_592" data-name="Group 592">
        <path id="Path_2435" data-name="Path 2435" class="cls-12" d="M1951.8,130.05l1,9.55q21.35-1.2,32.25-38.8l-.6-2.2Q1972.3,126.1,1951.8,130.05Z"/>
        <path id="Path_2436" data-name="Path 2436" class="cls-13" d="M1959.65,105.1l-10.15,3.95,1.25,11.45,8.65-3.5,2.4-6.85-2.15-5.05m-10.45.9,9.25-3.7-2.25-5.25-7.7,2.8.7,6.15m1-38.45-1.9.15,18.15,36.6L1984,96.9l-1.45-5.3L1966,97.9Z"/>
        <path id="Path_2437" data-name="Path 2437" class="cls-14" d="M1985.65,95.35l-1.2,3.25.6,2.2q-10.9,37.6-32.25,38.8l-1-9.55-2,.25,1,9.5a1.944,1.944,0,0,0,.7,1.3,1.827,1.827,0,0,0,1.4.5q22.7-.95,34.1-40.25a2.055,2.055,0,0,0,0-1.1Z"/>
        <path id="Path_2438" data-name="Path 2438" class="cls-15" d="M1948.3,67.7l-3.25.35,3.45,31.8,7.7-2.8,2.25,5.25-9.25,3.7.3,3.05,10.15-3.95,2.15,5.05-2.4,6.85-8.65,3.5,1.05,9.55q20.5-3.95,32.65-31.45l-.45-1.7-17.55,7.4Z"/>
        <path id="Path_2439" data-name="Path 2439" class="cls-16" d="M1945.05,68.05l3.25-.35,1.9-.15L1966,97.9l16.55-6.3,1.45,5.3.45,1.7,1.2-3.25-1.15-4.3a2.563,2.563,0,0,0-.6-.95,2.365,2.365,0,0,0-.95-.5,2.079,2.079,0,0,0-1.1.1l-14.9,5.7L1952,66.6a2.189,2.189,0,0,0-.85-.8,2.008,2.008,0,0,0-1.15-.25l-5.15.5a2.055,2.055,0,0,0-1.35.75,1.815,1.815,0,0,0-.45,1.45l6.75,62.05,2-.25-1.05-9.55-1.25-11.45-.3-3.05-.7-6.15Z"/>
      </g>
    </g>
    <g id="Group_595" data-name="Group 595">
      <g id="Group_594" data-name="Group 594">
        <path id="Path_2440" data-name="Path 2440" class="cls-12" d="M1907.3,139.6l1-9.55q-20.5-3.95-32.65-31.45l-.6,2.2Q1885.95,138.4,1907.3,139.6Z"/>
        <path id="Path_2441" data-name="Path 2441" class="cls-13" d="M1910.9,106l.7-6.15-7.7-2.8-2.25,5.25,9.25,3.7m-1.55,14.5,1.25-11.45-10.15-3.95-2.15,5.05,2.4,6.85,8.65,3.5m-31.8-28.9-1.45,5.3,17.55,7.4,18.15-36.6-1.9-.15L1894.1,97.9Z"/>
        <path id="Path_2442" data-name="Path 2442" class="cls-15" d="M1876.1,96.9l-.45,1.7q12.15,27.5,32.65,31.45l1.05-9.55-8.65-3.5-2.4-6.85,2.15-5.05,10.15,3.95.3-3.05-9.25-3.7,2.25-5.25,7.7,2.8,3.45-31.8-3.25-.35-18.15,36.6Z"/>
        <path id="Path_2443" data-name="Path 2443" class="cls-14" d="M1875.65,98.6l-1.2-3.25-1.35,4.9a2.055,2.055,0,0,0,0,1.1q11.4,39.3,34.1,40.25a1.827,1.827,0,0,0,1.4-.5,1.944,1.944,0,0,0,.7-1.3l1-9.5-2-.25-1,9.55q-21.35-1.2-32.25-38.8Z"/>
        <path id="Path_2444" data-name="Path 2444" class="cls-16" d="M1875.6,91.05l-1.15,4.3,1.2,3.25.45-1.7,1.45-5.3,16.55,6.3,15.8-30.35,1.9.15,3.25.35-3.45,31.8-.7,6.15-.3,3.05-1.25,11.45-1.05,9.55,2,.25,6.75-62.05a1.815,1.815,0,0,0-.45-1.45,2.055,2.055,0,0,0-1.35-.75l-5.15-.5a2.008,2.008,0,0,0-1.15.25,2.189,2.189,0,0,0-.85.8l-14.95,28.8-14.9-5.7a2.079,2.079,0,0,0-1.1-.1,2.365,2.365,0,0,0-.95.5A2.566,2.566,0,0,0,1875.6,91.05Z"/>
      </g>
    </g>
    <g id="Group_597" data-name="Group 597">
      <g id="Group_596" data-name="Group 596">
        <path id="Path_2445" data-name="Path 2445" class="cls-17" d="M1959.35,90.75a2.459,2.459,0,0,0-.7-.85l-17.7-11.3a2.1,2.1,0,0,0-1.1-.3h-19.7a1.849,1.849,0,0,0-1.05.3l-17.7,11.3a2.275,2.275,0,0,0-.75.85,1.636,1.636,0,0,0-.15,1.05q4.15,35.3,28.4,51.65a1.877,1.877,0,0,0,1.1.35,2.111,2.111,0,0,0,1.15-.35q24.2-16.35,28.4-51.65a1.917,1.917,0,0,0-.2-1.05m-10.65-4.8,8.85,5.65q-4.05,34.3-27.55,50.2-23.5-15.9-27.55-50.2l8.85-5.65,8.85-5.65h19.7Z"/>
        <path id="Path_2446" data-name="Path 2446" class="cls-18" d="M1911.3,85.95l-8.85,5.65q4.05,34.3,27.55,50.2-19.4-17.9-18.7-55.85m46.25,5.65-8.85-5.65q.7,37.95-18.7,55.85Q1953.5,125.9,1957.55,91.6Z"/>
        <path id="Path_2447" data-name="Path 2447" class="cls-19" d="M1939.85,80.3h-19.7l-8.85,5.65q-.7,37.95,18.7,55.85,19.4-17.9,18.7-55.85Z"/>
      </g>
    </g>
    <g id="Group_599" data-name="Group 599">
      <g id="Group_598" data-name="Group 598">
        <path id="Path_2448" data-name="Path 2448" class="cls-20" d="M1931.75,96.1a1,1,0,0,0-.25.65v33a.861.861,0,0,0,.2.55.8.8,0,0,0,.45.35.633.633,0,0,0,.55.05,1.18,1.18,0,0,0,.55-.25q8.3-8.5,9.25-29.45a1.332,1.332,0,0,0-.15-.6.812.812,0,0,0-.4-.35l-9-4.2a1.157,1.157,0,0,0-.65-.1A1.051,1.051,0,0,0,1931.75,96.1Z"/>
        <path id="Path_2449" data-name="Path 2449" class="cls-21" d="M1928.35,96.1a1.4,1.4,0,0,0-.55-.35,1.079,1.079,0,0,0-.65.1l-9,4.2a.8.8,0,0,0-.45.35,1.331,1.331,0,0,0-.15.6q.95,20.95,9.3,29.45a.9.9,0,0,0,.5.25.758.758,0,0,0,.6-.05,1.107,1.107,0,0,0,.45-.35,1.049,1.049,0,0,0,.15-.55v-33A1.148,1.148,0,0,0,1928.35,96.1Z"/>
      </g>
    </g>
  </g>
</svg>
