<svg xmlns="http://www.w3.org/2000/svg" width="100%" height="100%"  viewBox="0 0 66 165">
  <defs>
    <style>
      .cls-1 {
        fill: #fff;
      }

      .cls-2 {
        fill: #e0e0e0;
      }

      .cls-3 {
        fill: #5c5c5c;
      }

      .cls-4 {
        fill: #36bbf5;
      }

      .cls-5 {
        fill: #2ea3d7;
      }

      .cls-6 {
        fill: #32aee5;
      }

      .cls-7 {
        fill: #a3a3a3;
      }

      .cls-8 {
        fill: #464646;
      }

      .cls-9 {
        fill: #f2f2f2;
      }

      .cls-10 {
        fill: #288dbb;
      }
    </style>
  </defs>
  <g id="big_blue_sat" data-name="big blue sat" transform="translate(740.25 -750.95) rotate(90)">
    <g id="Group_198" data-name="Group 198" transform="translate(750.95 674.25)">
      <path id="Path_1582" data-name="Path 1582" class="cls-1" d="M837.75,718.95V694h-8.5v24.95Z" transform="translate(-751 -675.69)"/>
      <path id="Path_1583" data-name="Path 1583" class="cls-2" d="M829.25,724h-7v4.2h22.5V724h-15.5M853,694h-2v30h7.05V694H853m-44.05,0v30H816V694h-7.05Z" transform="translate(-751 -669.246)"/>
      <path id="Path_1584" data-name="Path 1584" class="cls-3" d="M829.25,716.638V721.4h8.5v-4.765h-8.5m28.8,4.765H853v10.332l5.05,4.765V721.4m0-43.4L853,682.765V693.1h5.05V678m-20.3.661h-8.5V693.1h8.5V678.661M808.95,678v15.1H814V682.765L808.95,678m0,43.4v15.1l5.05-4.765V721.4Z" transform="translate(-751 -674.25)"/>
      <path id="Path_1585" data-name="Path 1585" class="cls-4" d="M857.985,721.4v15.1H913.95V678H857.985v43.4m37.976-41.516h15.99v26.419h-15.99V679.887m-35.978,0h15.99v26.419h-15.99V679.887m17.989,26.419V679.887h15.99v26.419h-15.99m-17.989,28.306V708.194h15.99v26.419h-15.99m17.989,0V708.194h15.99v26.419h-15.99m17.989,0V708.194h15.99v26.419h-15.99M808.915,678H752.95v58.5h55.965V678m-35.978,1.887h15.99v26.419h-15.99V679.887m17.989,0h15.99v26.419h-15.99V679.887m-35.978,0h15.99v26.419h-15.99V679.887m35.978,28.306h15.99v26.419h-15.99V708.194m-17.989,0h15.99v26.419h-15.99V708.194m-2,13.21v13.21h-15.99V708.194h15.99Z" transform="translate(-750.95 -674.25)"/>
      <path id="Path_1586" data-name="Path 1586" class="cls-5" d="M895.96,736.5h15.99V716.667H895.96V736.5m-17.988-19.833V736.5h15.99V716.667h-15.99M859.983,736.5h15.99V716.667h-15.99V736.5M877.972,694v19.833h15.99V694h-15.99m-2,19.833V694h-15.99v19.833h15.99m35.977,0V694H895.96v19.833h15.99M770.94,736.5V716.667H754.95V736.5h15.99m17.989-19.833h-15.99V736.5h15.99V716.667m17.989,0h-15.99V736.5h15.99V716.667m-35.977-2.833V694H754.95v19.833h15.99M806.917,694h-15.99v19.833h15.99V694m-33.978,0v19.833h15.99V694Z" transform="translate(-750.95 -682.25)"/>
      <path id="Path_1587" data-name="Path 1587" class="cls-6" d="M895.96,721.345V734.5h15.99V721.345H895.96m-17.988,0V734.5h15.99V721.345h-15.99m-17.989,0V734.5h15.99V721.345h-15.99m17.989-28.19h15.99V680h-15.99v13.155m-2-13.155h-15.99v13.155h15.99V680m35.977,0H895.96v13.155h15.99V680M770.94,734.5V721.345H754.95V734.5h15.99m17.989,0V721.345h-15.99V734.5h15.99m17.989,0V721.345h-15.99V734.5h15.99M770.94,680H754.95v13.155h15.99V680m35.977,0h-15.99v13.155h15.99V680m-17.989,0h-15.99v13.155h15.99Z" transform="translate(-750.95 -674.25)"/>
      <path id="Path_1588" data-name="Path 1588" class="cls-7" d="M851,737.519v-2.467h-6.25v5.181h-22.5v-5.181H816v2.467h4.25v2.714a2.751,2.751,0,0,0,.6,1.789,1.725,1.725,0,0,0,1.4.679h22.5a1.868,1.868,0,0,0,1.45-.679,2.915,2.915,0,0,0,.55-1.789v-2.714H851M839.2,677.44a1.809,1.809,0,0,0-1.45-.74v2.467l7,8.635v10.239H851v-2.467h-4.25V687.8a2.654,2.654,0,0,0-.55-1.727l-7-8.636m-9.95,1.727V676.7a1.677,1.677,0,0,0-1.4.74l-7,8.636a2.51,2.51,0,0,0-.6,1.727v7.772H816v2.467h6.25V687.8Z" transform="translate(-751 -676.7)"/>
      <path id="Path_1589" data-name="Path 1589" class="cls-8" d="M853,721.455h-2v10.369a1.822,1.822,0,0,0,.6,1.373l5.05,4.782a1.954,1.954,0,0,0,1.4.521v-1.894L853,731.824V721.455m-2-38.778v10.369h2V682.676l5.05-4.782V676a1.864,1.864,0,0,0-1.4.568l-5.05,4.782a1.678,1.678,0,0,0-.6,1.326m-21.75-6.013v1.894h8.5v-1.894h-8.5m-20.3,59.943V738.5a2.136,2.136,0,0,0,1.45-.521l5.05-4.782a1.9,1.9,0,0,0,.55-1.373V721.455h-2v10.369l-5.05,4.782m0-60.606v1.894l5.05,4.782v10.369h2V682.676a1.746,1.746,0,0,0-.55-1.326l-5.05-4.782A2.032,2.032,0,0,0,808.95,676Z" transform="translate(-751 -674.25)"/>
      <path id="Path_1590" data-name="Path 1590" class="cls-9" d="M844.75,687.632l-7-8.932v57.8H851V698.222h-6.25v-10.59m-15.5-8.932-7,8.932v10.59H816V736.5h13.25V678.7Z" transform="translate(-751 -674.25)"/>
      <path id="Path_1591" data-name="Path 1591" class="cls-10" d="M915.4,676.568a2.031,2.031,0,0,0-1.449-.568H857.985v1.894h55.966v58.712H857.985V738.5h55.966a2.134,2.134,0,0,0,1.449-.521,1.9,1.9,0,0,0,.55-1.373V677.894a1.747,1.747,0,0,0-.55-1.326m-163.851,0a1.678,1.678,0,0,0-.6,1.326v58.712a1.822,1.822,0,0,0,.6,1.373,1.952,1.952,0,0,0,1.4.521h55.966v-1.894H752.949V677.894h55.966V676H752.949A1.862,1.862,0,0,0,751.55,676.568Z" transform="translate(-750.95 -674.25)"/>
    </g>
  </g>
</svg>
