<svg xmlns="http://www.w3.org/2000/svg" width="100%" height="100%" viewBox="0 0 165.1 66">
  <defs>
    <style>
      .cls-1 {
        fill: #fff;
      }

      .cls-2 {
        fill: #e0e0e0;
      }

      .cls-3 {
        fill: #5c5c5c;
      }

      .cls-4 {
        fill: #36bbf5;
      }

      .cls-5 {
        fill: #2ea3d7;
      }

      .cls-6 {
        fill: #32aee5;
      }

      .cls-7 {
        fill: #a3a3a3;
      }

      .cls-8 {
        fill: #464646;
      }

      .cls-9 {
        fill: #f2f2f2;
      }

      .cls-10 {
        fill: #288dbb;
      }
    </style>
  </defs>
  <g id="big_blue_sat" data-name="big blue sat" transform="translate(-750.95 -676)">
    <g id="Group_198" data-name="Group 198">
      <path id="Path_1582" data-name="Path 1582" class="cls-1" d="M837.75,718.95V694h-8.5v24.95Z"/>
      <path id="Path_1583" data-name="Path 1583" class="cls-2" d="M829.25,724h-7v4.2h22.5V724h-15.5M853,694h-2v30h7.05V694H853m-44.05,0v30H816V694h-7.05Z"/>
      <path id="Path_1584" data-name="Path 1584" class="cls-3" d="M829.25,718.95V724h8.5v-5.05h-8.5m28.8,5.05H853v10.95l5.05,5.05V724m0-46L853,683.05V694h5.05V678m-20.3.7h-8.5V694h8.5V678.7m-28.8-.7v16H814V683.05L808.95,678m0,46v16l5.05-5.05V724Z"/>
      <path id="Path_1585" data-name="Path 1585" class="cls-4" d="M858.05,724v16h56V678h-56v46m38-44h16v28h-16V680m-36,0h16v28h-16V680m18,28V680h16v28h-16m-18,30V710h16v28h-16m18,0V710h16v28h-16m18,0V710h16v28h-16m-87.1-60h-56v62h56V678m-36,2h16v28h-16V680m18,0h16v28h-16V680m-36,0h16v28h-16V680m36,30h16v28h-16V710m-18,0h16v28h-16V710m-2,14v14h-16V710h16Z"/>
      <path id="Path_1586" data-name="Path 1586" class="cls-5" d="M896.05,724h16V710h-16v14m-18-14v14h16V710h-16m-18,14h16V710h-16v14m18-30v14h16V694h-16m-2,14V694h-16v14h16m36,0V694h-16v14h16m-141.1,16V710h-16v14h16m18-14h-16v14h16V710m18,0h-16v14h16V710m-36-2V694h-16v14h16m36-14h-16v14h16V694m-34,0v14h16V694Z"/>
      <path id="Path_1587" data-name="Path 1587" class="cls-6" d="M896.05,724v14h16V724h-16m-18,0v14h16V724h-16m-18,0v14h16V724h-16m18-30h16V680h-16v14m-2-14h-16v14h16V680m36,0h-16v14h16V680m-141.1,58V724h-16v14h16m18,0V724h-16v14h16m18,0V724h-16v14h16m-36-58h-16v14h16V680m36,0h-16v14h16V680m-18,0h-16v14h16Z"/>
      <path id="Path_1588" data-name="Path 1588" class="cls-7" d="M851,726v-2h-6.25v4.2h-22.5V724H816v2h4.25v2.2a1.976,1.976,0,0,0,.6,1.45,1.9,1.9,0,0,0,1.4.55h22.5a1.89,1.89,0,0,0,2-2V726H851m-11.8-48.7a1.976,1.976,0,0,0-1.45-.6v2l7,7V694H851v-2h-4.25v-6.3a1.9,1.9,0,0,0-.55-1.4l-7-7m-9.95,1.4v-2a1.816,1.816,0,0,0-1.4.6l-7,7a1.816,1.816,0,0,0-.6,1.4V692H816v2h6.25v-8.3Z"/>
      <path id="Path_1589" data-name="Path 1589" class="cls-8" d="M853,724h-2v10.95a1.976,1.976,0,0,0,.6,1.45l5.05,5.05a1.9,1.9,0,0,0,1.4.55v-2L853,734.95V724m-2-40.95V694h2V683.05l5.05-5.05v-2a1.816,1.816,0,0,0-1.4.6l-5.05,5.05a1.816,1.816,0,0,0-.6,1.4m-21.75-6.35v2h8.5v-2h-8.5M808.95,740v2a2.07,2.07,0,0,0,1.45-.55l5.05-5.05a2.07,2.07,0,0,0,.55-1.45V724h-2v10.95L808.95,740m0-64v2l5.05,5.05V694h2V683.05a1.9,1.9,0,0,0-.55-1.4l-5.05-5.05A1.976,1.976,0,0,0,808.95,676Z"/>
      <path id="Path_1590" data-name="Path 1590" class="cls-9" d="M844.75,685.7l-7-7V724H851V694h-6.25v-8.3m-15.5-7-7,7V694H816v30h13.25V678.7Z"/>
      <path id="Path_1591" data-name="Path 1591" class="cls-10" d="M915.5,676.6a1.976,1.976,0,0,0-1.45-.6h-56v2h56v62h-56v2h56a1.89,1.89,0,0,0,2-2V678a1.9,1.9,0,0,0-.55-1.4m-163.95,0a1.816,1.816,0,0,0-.6,1.4v62a1.976,1.976,0,0,0,.6,1.45,1.9,1.9,0,0,0,1.4.55h56v-2h-56V678h56v-2h-56A1.816,1.816,0,0,0,751.55,676.6Z"/>
    </g>
  </g>
</svg>
