<svg xmlns="http://www.w3.org/2000/svg" width="100%" height="100%" viewBox="0 0 165.1 66">
  <defs>
    <style>
      .cls-1 {
        fill: #5c5c5c;
      }

      .cls-2 {
        fill: #fc0;
      }

      .cls-3 {
        fill: #ffd531;
      }

      .cls-4 {
        fill: #ffdf62;
      }

      .cls-5 {
        fill: #464646;
      }

      .cls-6 {
        fill: #e0e0e0;
      }

      .cls-7 {
        fill: #fff;
      }

      .cls-8 {
        fill: #f2f2f2;
      }

      .cls-9 {
        fill: #a3a3a3;
      }

      .cls-10 {
        fill: #cda400;
      }
    </style>
  </defs>
  <g id="Group_782" data-name="Group 782" transform="translate(-560.95 -676)">
    <g id="Group_196" data-name="Group 196">
      <path id="Path_1572" data-name="Path 1572" class="cls-1" d="M647.75,724v-5.05h-8.5V724h8.5M624,724h-5.05v16l5.05-5.05V724m23.75-45.3h-8.5V694h8.5V678.7M624,683.05,618.95,678v16H624V683.05M668.05,724H663v10.95l5.05,5.05V724m0-46L663,683.05V694h5.05Z"/>
      <path id="Path_1573" data-name="Path 1573" class="cls-2" d="M618.95,740V678h-56v62h56m-36-60h16v28h-16V680m18,0h16v28h-16V680m-36,44V710h16v28h-16V724m0-16V680h16v28h-16m52,16v14h-16V710h16v14m-34,14V710h16v28h-16m141.1-60h-56v62h56V678m-54,2h16v28h-16V680m36,0h16v28h-16V680m-18,0h16v28h-16V680m16,44v14h-16V710h16v14m2,14V710h16v28h-16m-36-28h16v28h-16V710Z"/>
      <path id="Path_1574" data-name="Path 1574" class="cls-3" d="M582.95,710v14h16V710h-16m34,14V710h-16v14h16m-52-30v14h16V694h-16m0,16v14h16V710h-16m52-2V694h-16v14h16m-18,0V694h-16v14h16m87.1,2h-16v14h16V710m20,14h16V710h-16v14m-2,0V710h-16v14h16m0-16V694h-16v14h16m18,0V694h-16v14h16m-36-14h-16v14h16Z"/>
      <path id="Path_1575" data-name="Path 1575" class="cls-4" d="M582.95,724v14h16V724h-16m34,14V724h-16v14h16m-52-58v14h16V680h-16m0,44v14h16V724h-16m52-44h-16v14h16V680m-18,0h-16v14h16V680m87.1,58V724h-16v14h16m20-14v14h16V724h-16m-2,14V724h-16v14h16m0-58h-16v14h16V680m18,0h-16v14h16V680m-36,0h-16v14h16Z"/>
      <path id="Path_1576" data-name="Path 1576" class="cls-5" d="M626,726v-2h-2v10.95L618.95,740v2a2.07,2.07,0,0,0,1.45-.55l5.05-5.05a2.07,2.07,0,0,0,.55-1.45V726m13.25-49.3v2h8.5v-2h-8.5m-20.3-.7v2l5.05,5.05V694h2V683.05a1.9,1.9,0,0,0-.55-1.4l-5.05-5.05a1.976,1.976,0,0,0-1.45-.6M661,724v10.95a1.976,1.976,0,0,0,.6,1.45l5.05,5.05a1.9,1.9,0,0,0,1.4.55v-2L663,734.95V724h-2m7.05-48a1.816,1.816,0,0,0-1.4.6l-5.05,5.05a1.816,1.816,0,0,0-.6,1.4V694h2V683.05l5.05-5.05Z"/>
      <path id="Path_1577" data-name="Path 1577" class="cls-6" d="M624,694h-5.05v30H626V694h-2m30.75,34.2V724h-22.5v4.2h22.5M663,694h-2v30h7.05V694Z"/>
      <path id="Path_1578" data-name="Path 1578" class="cls-7" d="M647.75,694h-8.5v24.95h8.5Z"/>
      <path id="Path_1579" data-name="Path 1579" class="cls-8" d="M639.25,678.7l-7,7V694H626v30h13.25V678.7M661,694h-6.25v-8.3l-7-7V724H661Z"/>
      <path id="Path_1580" data-name="Path 1580" class="cls-9" d="M639.25,678.7v-2a1.816,1.816,0,0,0-1.4.6l-7,7a1.816,1.816,0,0,0-.6,1.4V692H626v2h6.25v-8.3l7-7M661,726v-2h-6.25v4.2h-22.5V724H626v2h4.25v2.2a1.976,1.976,0,0,0,.6,1.45,1.9,1.9,0,0,0,1.4.55h22.5a1.89,1.89,0,0,0,2-2V726H661m-4.25-40.3a1.9,1.9,0,0,0-.55-1.4l-7-7a1.976,1.976,0,0,0-1.45-.6v2l7,7V694H661v-2h-4.25Z"/>
      <path id="Path_1581" data-name="Path 1581" class="cls-10" d="M618.95,678v-2h-56a2.051,2.051,0,0,0-2,2v62a1.976,1.976,0,0,0,.6,1.45,1.9,1.9,0,0,0,1.4.55h56v-2h-56V678h56m49.1-2v2h56v62h-56v2h56a1.89,1.89,0,0,0,2-2V678a1.9,1.9,0,0,0-.55-1.4,1.976,1.976,0,0,0-1.45-.6Z"/>
    </g>
  </g>
</svg>
