<svg xmlns="http://www.w3.org/2000/svg" width="100%" height="100%"  viewBox="0 0 369.05 102.524">
  <defs>
    <style>
      .cls-1 {
        fill: #ac3939;
      }

      .cls-2 {
        fill: #b83d3d;
      }

      .cls-3 {
        fill: #802b2b;
      }

      .cls-4 {
        fill: #f3f3f3;
      }

      .cls-5 {
        fill: #9f9f9f;
      }

      .cls-6 {
        fill: #e2e2e2;
      }

      .cls-7 {
        fill: #d2d2d2;
      }

      .cls-8 {
        fill: #bd3e3e;
      }

      .cls-9 {
        fill: #f5f5f5;
      }

      .cls-10 {
        fill: #a1b6bb;
      }

      .cls-11 {
        fill: #78888c;
      }

      .cls-12 {
        fill: #bdd6db;
      }

      .cls-13 {
        fill: #666;
      }

      .cls-14 {
        fill: #595959;
      }

      .cls-15 {
        fill: #464646;
      }
    </style>
  </defs>
  <g id="Long_Rocket_boi" data-name="Long Rocket boi" transform="translate(0 102.524) rotate(-90)">
    <g id="Group_737" data-name="Group 737" transform="translate(0 40.55)">
      <g id="Group_736" data-name="Group 736" transform="translate(0 0)">
        <path id="Path_2754" data-name="Path 2754" class="cls-1" d="M27.141,17.448V34L0,11.922V0L27.141,17.448M74.375,34V17.448L101.516,0V11.922Z" transform="translate(0.305 0.295)"/>
        <path id="Path_2755" data-name="Path 2755" class="cls-2" d="M0,3.377V0L27.141,21.7V30L0,3.377M74.375,30V21.7L101.516,0V3.377Z" transform="translate(0.305 11.245)"/>
        <path id="Path_2756" data-name="Path 2756" class="cls-3" d="M27.46,41.138v1.008a1.988,1.988,0,0,1-.539-.076,1.538,1.538,0,0,1-.77-.4L.231,15A.72.72,0,0,1,0,14.473V1.008A.881.881,0,0,1,.424.277,2.131,2.131,0,0,1,1.541,0,1.934,1.934,0,0,1,2.619.277L27.46,16.488v1.437L1.541,1.008V14.473L27.46,41.138m46.988.479V40.609l26.536-26.136V1.008L74.448,17.925V16.488L99.9.277A1.934,1.934,0,0,1,100.983,0,2.131,2.131,0,0,1,102.1.277a.881.881,0,0,1,.424.731V14.473a.72.72,0,0,1-.231.529L75.757,41.138a1.538,1.538,0,0,1-.77.4A1.981,1.981,0,0,1,74.448,41.617Z"/>
      </g>
    </g>
    <g id="Group_739" data-name="Group 739" transform="translate(17.262 296.05)">
      <g id="Group_738" data-name="Group 738" transform="translate(0 0)">
        <path id="Path_2757" data-name="Path 2757" class="cls-4" d="M12.9,12v5.15A78.65,78.65,0,0,1,0,2.4V0A69.375,69.375,0,0,0,12.9,12M64,0V2.4A78.649,78.649,0,0,1,51.1,17.15V12A69.374,69.374,0,0,0,64,0Z" transform="translate(2 10.6)"/>
        <path id="Path_2758" data-name="Path 2758" class="cls-5" d="M12.9,38.65v-10A81.513,81.513,0,0,1,.35,14.1,1.876,1.876,0,0,1,0,13V0H2V13A78.65,78.65,0,0,0,14.9,27.75v10.9h-2M66,13V0h2V13a1.878,1.878,0,0,1-.35,1.1A81.533,81.533,0,0,1,55.1,28.65v10h-2V27.75A78.649,78.649,0,0,0,66,13Z"/>
        <path id="Path_2759" data-name="Path 2759" class="cls-1" d="M38.2,0V3.65a38.4,38.4,0,0,1-19.1,15.6A38.4,38.4,0,0,1,0,3.65V0Z" transform="translate(14.9 38.65)"/>
        <path id="Path_2760" data-name="Path 2760" class="cls-6" d="M64,0V10.6a69.374,69.374,0,0,1-12.9,12V38.65H12.9V22.6A69.375,69.375,0,0,1,0,10.6V0H64M57.4,12.8a4.972,4.972,0,0,0,.5-1.5A7.922,7.922,0,0,0,58,10a6.307,6.307,0,0,0-.6-2.85Q56.85,6,56,6q-.8,0-1.4,1.15A6.3,6.3,0,0,0,54,10a7.921,7.921,0,0,0,.1,1.3,4.959,4.959,0,0,0,.5,1.5Q55.2,14,56,14q.85,0,1.4-1.2M32,14a3.732,3.732,0,0,0,2.8-1.2,3.717,3.717,0,0,0,1-1.5A4.088,4.088,0,0,0,36,10a3.893,3.893,0,0,0-1.2-2.85A3.811,3.811,0,0,0,32,6a3.929,3.929,0,0,0-4,4,4.088,4.088,0,0,0,.2,1.3,3.964,3.964,0,0,0,.95,1.5A3.893,3.893,0,0,0,32,14M17,14a2.664,2.664,0,0,0,2.15-1.15,4.357,4.357,0,0,0,.7-1.55A5.358,5.358,0,0,0,20,10a4.579,4.579,0,0,0-.85-2.8A2.634,2.634,0,0,0,17,6a2.508,2.508,0,0,0-2.1,1.2A4.4,4.4,0,0,0,14,10a5.346,5.346,0,0,0,.15,1.3,5.145,5.145,0,0,0,.75,1.55A2.533,2.533,0,0,0,17,14m30,0a2.508,2.508,0,0,0,2.1-1.2,4.532,4.532,0,0,0,.75-1.5A5.358,5.358,0,0,0,50,10a4.616,4.616,0,0,0-.9-2.85A2.534,2.534,0,0,0,47,6a2.663,2.663,0,0,0-2.15,1.15A4.8,4.8,0,0,0,44,10a5.346,5.346,0,0,0,.15,1.3,3.888,3.888,0,0,0,.7,1.5A2.633,2.633,0,0,0,47,14M9.4,12.85a5.645,5.645,0,0,0,.5-1.55A7.922,7.922,0,0,0,10,10a5.994,5.994,0,0,0-.6-2.8Q8.8,6,8,6,7.15,6,6.6,7.2A5.991,5.991,0,0,0,6,10a7.921,7.921,0,0,0,.1,1.3,5.629,5.629,0,0,0,.5,1.55Q7.15,14,8,14,8.8,14,9.4,12.85Z" transform="translate(2)"/>
        <path id="Path_2761" data-name="Path 2761" class="cls-7" d="M3.9,5.3a5.645,5.645,0,0,1-.5,1.55Q2.8,8,2,8,1.15,8,.6,6.85A5.629,5.629,0,0,1,.1,5.3,7.921,7.921,0,0,1,0,4,5.991,5.991,0,0,1,.6,1.2Q1.15,0,2,0q.8,0,1.4,1.2A5.994,5.994,0,0,1,4,4a7.922,7.922,0,0,1-.1,1.3M43.1,6.8A2.508,2.508,0,0,1,41,8a2.633,2.633,0,0,1-2.15-1.2,3.888,3.888,0,0,1-.7-1.5A5.346,5.346,0,0,1,38,4a4.8,4.8,0,0,1,.85-2.85A2.663,2.663,0,0,1,41,0a2.534,2.534,0,0,1,2.1,1.15A4.616,4.616,0,0,1,44,4a5.358,5.358,0,0,1-.15,1.3,4.532,4.532,0,0,1-.75,1.5m-29.95.05A2.664,2.664,0,0,1,11,8,2.533,2.533,0,0,1,8.9,6.85,5.145,5.145,0,0,1,8.15,5.3,5.346,5.346,0,0,1,8,4a4.4,4.4,0,0,1,.9-2.8A2.508,2.508,0,0,1,11,0a2.634,2.634,0,0,1,2.15,1.2A4.579,4.579,0,0,1,14,4a5.358,5.358,0,0,1-.15,1.3,4.357,4.357,0,0,1-.7,1.55M28.8,6.8A3.732,3.732,0,0,1,26,8a3.893,3.893,0,0,1-2.85-1.2,3.964,3.964,0,0,1-.95-1.5A4.088,4.088,0,0,1,22,4a3.929,3.929,0,0,1,4-4,3.811,3.811,0,0,1,2.8,1.15A3.893,3.893,0,0,1,30,4a4.088,4.088,0,0,1-.2,1.3,3.717,3.717,0,0,1-1,1.5M51.9,5.3a4.972,4.972,0,0,1-.5,1.5Q50.85,8,50,8q-.8,0-1.4-1.2a4.959,4.959,0,0,1-.5-1.5A7.921,7.921,0,0,1,48,4a6.3,6.3,0,0,1,.6-2.85Q49.2,0,50,0q.85,0,1.4,1.15A6.307,6.307,0,0,1,52,4,7.922,7.922,0,0,1,51.9,5.3Z" transform="translate(8 6)"/>
        <path id="Path_2762" data-name="Path 2762" class="cls-8" d="M38.2,9.6Q31.1,23.1,19.1,28.7,7.1,23.1,0,9.6V0A38.4,38.4,0,0,0,19.1,15.6,38.4,38.4,0,0,0,38.2,0Z" transform="translate(14.9 42.3)"/>
        <path id="Path_2763" data-name="Path 2763" class="cls-3" d="M.25,14.15a1.662,1.662,0,0,1-.25-.9V0H2V13.25q7.1,13.5,19.1,19.1,12-5.6,19.1-19.1V0h2V13.25a1.985,1.985,0,0,1-.2.9q-7.45,14.15-20.05,20a1.906,1.906,0,0,1-1.7,0Q7.65,28.3.25,14.15Z" transform="translate(12.9 38.65)"/>
      </g>
    </g>
    <g id="Group_741" data-name="Group 741" transform="translate(17.262 232.55)">
      <g id="Group_740" data-name="Group 740">
        <path id="Path_2764" data-name="Path 2764" class="cls-6" d="M0,0H60V64H0V0M43,41h8V21H43V41m-5,0V21H22V41H38M17,41V21H9V41h8M55,21V41h4V21H55M5,41V21H1V41Z" transform="translate(4)"/>
        <path id="Path_2765" data-name="Path 2765" class="cls-7" d="M4,0V20H0V0H4M54,20V0h4V20H54M16,0V20H8V0h8M37,0V20H21V0H37M50,20H42V0h8Z" transform="translate(5 21)"/>
        <path id="Path_2766" data-name="Path 2766" class="cls-9" d="M2,64H0V0H2V64m62,0H62V0h2Z" transform="translate(2)"/>
        <path id="Path_2767" data-name="Path 2767" class="cls-5" d="M2,64H0V0H2V64m66,0H66V0h2Z"/>
      </g>
    </g>
    <g id="Group_743" data-name="Group 743" transform="translate(17.262 168.55)">
      <g id="Group_742" data-name="Group 742" transform="translate(0 0)">
        <path id="Path_2768" data-name="Path 2768" class="cls-5" d="M68,64H66V0h2V64M2,64H0V0H2Z" transform="translate(0 0)"/>
        <path id="Path_2769" data-name="Path 2769" class="cls-9" d="M64,64H62V0h2V64M2,64H0V0H2Z" transform="translate(2 0)"/>
        <path id="Path_2770" data-name="Path 2770" class="cls-6" d="M0,64V0H60V64H0M12,8a5.345,5.345,0,0,0,.15,1.3,5.145,5.145,0,0,0,.75,1.55A2.533,2.533,0,0,0,15,12a2.664,2.664,0,0,0,2.15-1.15,4.358,4.358,0,0,0,.7-1.55A5.358,5.358,0,0,0,18,8a4.579,4.579,0,0,0-.85-2.8A2.634,2.634,0,0,0,15,4a2.508,2.508,0,0,0-2.1,1.2A4.4,4.4,0,0,0,12,8M7.4,10.85A5.646,5.646,0,0,0,7.9,9.3,7.922,7.922,0,0,0,8,8a5.994,5.994,0,0,0-.6-2.8Q6.8,4,6,4,5.15,4,4.6,5.2A5.991,5.991,0,0,0,4,8a7.921,7.921,0,0,0,.1,1.3,5.629,5.629,0,0,0,.5,1.55Q5.15,12,6,12q.8,0,1.4-1.15M42,8a5.345,5.345,0,0,0,.15,1.3,3.887,3.887,0,0,0,.7,1.5A2.633,2.633,0,0,0,45,12a2.508,2.508,0,0,0,2.1-1.2,4.532,4.532,0,0,0,.75-1.5A5.358,5.358,0,0,0,48,8a4.616,4.616,0,0,0-.9-2.85A2.534,2.534,0,0,0,45,4a2.663,2.663,0,0,0-2.15,1.15A4.8,4.8,0,0,0,42,8M33.8,9.3A4.088,4.088,0,0,0,34,8a3.893,3.893,0,0,0-1.2-2.85A3.811,3.811,0,0,0,30,4a3.929,3.929,0,0,0-4,4,4.088,4.088,0,0,0,.2,1.3,3.963,3.963,0,0,0,.95,1.5A3.894,3.894,0,0,0,30,12a3.732,3.732,0,0,0,2.8-1.2,3.717,3.717,0,0,0,1-1.5m18.3,0a4.958,4.958,0,0,0,.5,1.5Q53.2,12,54,12q.85,0,1.4-1.2a4.972,4.972,0,0,0,.5-1.5A7.922,7.922,0,0,0,56,8a6.307,6.307,0,0,0-.6-2.85Q54.85,4,54,4q-.8,0-1.4,1.15A6.3,6.3,0,0,0,52,8,7.921,7.921,0,0,0,52.1,9.3Z" transform="translate(4 0)"/>
        <path id="Path_2771" data-name="Path 2771" class="cls-7" d="M48.6,6.8a4.958,4.958,0,0,1-.5-1.5A7.921,7.921,0,0,1,48,4a6.3,6.3,0,0,1,.6-2.85Q49.2,0,50,0q.85,0,1.4,1.15A6.307,6.307,0,0,1,52,4a7.922,7.922,0,0,1-.1,1.3,4.972,4.972,0,0,1-.5,1.5Q50.85,8,50,8q-.8,0-1.4-1.2M30,4a4.088,4.088,0,0,1-.2,1.3,3.717,3.717,0,0,1-1,1.5A3.732,3.732,0,0,1,26,8a3.894,3.894,0,0,1-2.85-1.2,3.963,3.963,0,0,1-.95-1.5A4.088,4.088,0,0,1,22,4a3.929,3.929,0,0,1,4-4,3.811,3.811,0,0,1,2.8,1.15A3.893,3.893,0,0,1,30,4m8.15,1.3A5.345,5.345,0,0,1,38,4a4.8,4.8,0,0,1,.85-2.85A2.663,2.663,0,0,1,41,0a2.534,2.534,0,0,1,2.1,1.15A4.616,4.616,0,0,1,44,4a5.358,5.358,0,0,1-.15,1.3,4.532,4.532,0,0,1-.75,1.5A2.508,2.508,0,0,1,41,8a2.633,2.633,0,0,1-2.15-1.2,3.887,3.887,0,0,1-.7-1.5M3.9,5.3a5.646,5.646,0,0,1-.5,1.55Q2.8,8,2,8,1.15,8,.6,6.85A5.629,5.629,0,0,1,.1,5.3,7.921,7.921,0,0,1,0,4,5.991,5.991,0,0,1,.6,1.2Q1.15,0,2,0q.8,0,1.4,1.2A5.994,5.994,0,0,1,4,4a7.922,7.922,0,0,1-.1,1.3m4.25,0A5.345,5.345,0,0,1,8,4a4.4,4.4,0,0,1,.9-2.8A2.508,2.508,0,0,1,11,0a2.634,2.634,0,0,1,2.15,1.2A4.579,4.579,0,0,1,14,4a5.358,5.358,0,0,1-.15,1.3,4.358,4.358,0,0,1-.7,1.55A2.664,2.664,0,0,1,11,8,2.533,2.533,0,0,1,8.9,6.85,5.145,5.145,0,0,1,8.15,5.3Z" transform="translate(8 4)"/>
      </g>
    </g>
    <g id="Group_745" data-name="Group 745" transform="translate(17.262 104.55)">
      <g id="Group_744" data-name="Group 744">
        <path id="Path_2772" data-name="Path 2772" class="cls-9" d="M2,0V38.3H0V0H2M62,9.9V0h2V9.9H62M62,64V42.8h2V64H62M2,48.8V64H0V48.8Z" transform="translate(2)"/>
        <path id="Path_2773" data-name="Path 2773" class="cls-7" d="M19.3,38.9H0V28.4H19.3V38.9m40.7-6H50.65V22.15H40.15V0H60Z" transform="translate(4 9.9)"/>
        <path id="Path_2774" data-name="Path 2774" class="cls-5" d="M66,64V0h2V64H66M2,64H0V0H2V64Z"/>
        <path id="Path_2775" data-name="Path 2775" class="cls-6" d="M64,42.8H62V9.9h2V42.8m-62,6H0V38.3H2V48.8M2,64V48.8H21.3V38.3H2V0H62V9.9H42.15V32.05h10.5V42.8H62V64Z" transform="translate(2)"/>
      </g>
    </g>
    <g id="Group_747" data-name="Group 747" transform="translate(17.262 40.55)">
      <g id="Group_746" data-name="Group 746">
        <path id="Path_2776" data-name="Path 2776" class="cls-6" d="M0,0H60V64H0V0M17.85,9.3A5.358,5.358,0,0,0,18,8a4.579,4.579,0,0,0-.85-2.8A2.634,2.634,0,0,0,15,4a2.508,2.508,0,0,0-2.1,1.2A4.4,4.4,0,0,0,12,8a5.345,5.345,0,0,0,.15,1.3,5.145,5.145,0,0,0,.75,1.55A2.533,2.533,0,0,0,15,12a2.664,2.664,0,0,0,2.15-1.15,4.358,4.358,0,0,0,.7-1.55m9.3,1.5A3.894,3.894,0,0,0,30,12a3.732,3.732,0,0,0,2.8-1.2,3.717,3.717,0,0,0,1-1.5A4.088,4.088,0,0,0,34,8a3.893,3.893,0,0,0-1.2-2.85A3.811,3.811,0,0,0,30,4a3.929,3.929,0,0,0-4,4,4.088,4.088,0,0,0,.2,1.3,3.963,3.963,0,0,0,.95,1.5m15-1.5a3.887,3.887,0,0,0,.7,1.5A2.633,2.633,0,0,0,45,12a2.508,2.508,0,0,0,2.1-1.2,4.532,4.532,0,0,0,.75-1.5A5.358,5.358,0,0,0,48,8a4.616,4.616,0,0,0-.9-2.85A2.534,2.534,0,0,0,45,4a2.663,2.663,0,0,0-2.15,1.15A4.8,4.8,0,0,0,42,8a5.345,5.345,0,0,0,.15,1.3m9.95,0a4.958,4.958,0,0,0,.5,1.5Q53.2,12,54,12q.85,0,1.4-1.2a4.972,4.972,0,0,0,.5-1.5A7.922,7.922,0,0,0,56,8a6.307,6.307,0,0,0-.6-2.85Q54.85,4,54,4q-.8,0-1.4,1.15A6.3,6.3,0,0,0,52,8a7.921,7.921,0,0,0,.1,1.3M6,12q.8,0,1.4-1.15A5.646,5.646,0,0,0,7.9,9.3,7.922,7.922,0,0,0,8,8a5.994,5.994,0,0,0-.6-2.8Q6.8,4,6,4,5.15,4,4.6,5.2A5.991,5.991,0,0,0,4,8a7.921,7.921,0,0,0,.1,1.3,5.629,5.629,0,0,0,.5,1.55Q5.15,12,6,12Z" transform="translate(4)"/>
        <path id="Path_2777" data-name="Path 2777" class="cls-7" d="M3.4,6.85Q2.8,8,2,8,1.15,8,.6,6.85A5.629,5.629,0,0,1,.1,5.3,7.921,7.921,0,0,1,0,4,5.991,5.991,0,0,1,.6,1.2Q1.15,0,2,0q.8,0,1.4,1.2A5.994,5.994,0,0,1,4,4a7.922,7.922,0,0,1-.1,1.3,5.646,5.646,0,0,1-.5,1.55M48.6,6.8a4.958,4.958,0,0,1-.5-1.5A7.921,7.921,0,0,1,48,4a6.3,6.3,0,0,1,.6-2.85Q49.2,0,50,0q.85,0,1.4,1.15A6.307,6.307,0,0,1,52,4a7.922,7.922,0,0,1-.1,1.3,4.972,4.972,0,0,1-.5,1.5Q50.85,8,50,8q-.8,0-1.4-1.2m-9.75,0a3.887,3.887,0,0,1-.7-1.5A5.345,5.345,0,0,1,38,4a4.8,4.8,0,0,1,.85-2.85A2.663,2.663,0,0,1,41,0a2.534,2.534,0,0,1,2.1,1.15A4.616,4.616,0,0,1,44,4a5.358,5.358,0,0,1-.15,1.3,4.532,4.532,0,0,1-.75,1.5A2.508,2.508,0,0,1,41,8a2.633,2.633,0,0,1-2.15-1.2M26,8a3.894,3.894,0,0,1-2.85-1.2,3.963,3.963,0,0,1-.95-1.5A4.088,4.088,0,0,1,22,4a3.929,3.929,0,0,1,4-4,3.811,3.811,0,0,1,2.8,1.15A3.893,3.893,0,0,1,30,4a4.088,4.088,0,0,1-.2,1.3,3.717,3.717,0,0,1-1,1.5A3.732,3.732,0,0,1,26,8M14,4a5.358,5.358,0,0,1-.15,1.3,4.358,4.358,0,0,1-.7,1.55A2.664,2.664,0,0,1,11,8,2.533,2.533,0,0,1,8.9,6.85,5.145,5.145,0,0,1,8.15,5.3,5.345,5.345,0,0,1,8,4a4.4,4.4,0,0,1,.9-2.8A2.508,2.508,0,0,1,11,0a2.634,2.634,0,0,1,2.15,1.2A4.579,4.579,0,0,1,14,4Z" transform="translate(8 4)"/>
        <path id="Path_2778" data-name="Path 2778" class="cls-9" d="M2,64H0V0H2V64m62,0H62V0h2Z" transform="translate(2)"/>
        <path id="Path_2779" data-name="Path 2779" class="cls-5" d="M2,64H0V0H2V64m66,0H66V0h2Z"/>
      </g>
    </g>
    <g id="Group_749" data-name="Group 749" transform="translate(17.512)">
      <g id="Group_748" data-name="Group 748">
        <path id="Path_2780" data-name="Path 2780" class="cls-10" d="M9.7,0H42.8l9.65,23.4H0Z" transform="translate(7.55 17.7)"/>
        <path id="Path_2781" data-name="Path 2781" class="cls-11" d="M67.5,23.4H65.4L57.05,0l2.3.55L67.5,23.4m-65.4,0H0L8.2.55,10.5,0Z" transform="translate(0 17.7)"/>
        <path id="Path_2782" data-name="Path 2782" class="cls-12" d="M63.3,23.4H57.9L48.25,0h6.7L63.3,23.4m-57.85,0H0L8.4,0h6.75Z" transform="translate(2.1 17.7)"/>
        <path id="Path_2783" data-name="Path 2783" class="cls-13" d="M3.95,11.8,0,7.85H54.45L50.5,11.8H3.95m0-7.85L0,0H54.45L50.5,3.95Z" transform="translate(6.55 5.9)"/>
        <path id="Path_2784" data-name="Path 2784" class="cls-14" d="M0,3.9,3.95,0H50.5l3.95,3.9H0m0,7.85,3.95-3.9H50.5l3.95,3.9Z" transform="translate(6.55 2)"/>
        <path id="Path_2785" data-name="Path 2785" class="cls-15" d="M5.95,17.7l-2.3.55L.6,15.15a1.815,1.815,0,0,1-.6-1.4A1.975,1.975,0,0,1,.6,12.3L3.1,9.85.6,7.3A1.815,1.815,0,0,1,0,5.9,1.975,1.975,0,0,1,.6,4.45L4.55.55A2.006,2.006,0,0,1,5.95,0H52.5a2.006,2.006,0,0,1,1.4.55l3.95,3.9a1.976,1.976,0,0,1,.6,1.45,1.9,1.9,0,0,1-.55,1.4L55.35,9.85l2.5,2.45a1.976,1.976,0,0,1,.6,1.45,1.9,1.9,0,0,1-.55,1.4l-3.1,3.1-2.3-.55,3.95-3.95L52.5,9.85,56.45,5.9,52.5,2H5.95L2,5.9,5.95,9.85,2,13.75Z" transform="translate(4.55 0)"/>
      </g>
    </g>
  </g>
</svg>
