<svg xmlns="http://www.w3.org/2000/svg" width="100%" height="100%"  viewBox="0 0 308.9 113.71">
  <defs>
    <style>
      .cls-1 {
        fill: #9f9f9f;
      }

      .cls-2 {
        fill: #e2e2e2;
      }

      .cls-3 {
        fill: #d2d2d2;
      }

      .cls-4 {
        fill: #ac3939;
      }

      .cls-5 {
        fill: #bd3e3e;
      }

      .cls-6 {
        fill: #802b2b;
      }

      .cls-7 {
        fill: #f5f5f5;
      }

      .cls-8 {
        fill: #bdd6db;
      }

      .cls-9 {
        fill: #e0fbff;
      }

      .cls-10 {
        fill: #bee7ec;
      }

      .cls-11 {
        fill: #c8f2f7;
      }

      .cls-12 {
        fill: #b83d3d;
      }

      .cls-13 {
        fill: #a63737;
      }
    </style>
  </defs>
  <g id="Slim_fatty_boi" data-name="Slim fatty boi" transform="translate(728.9 -1819.194) rotate(90)">
    <g id="Group_709" data-name="Group 709">
      <g id="Group_708" data-name="Group 708">
        <path id="Path_2672" data-name="Path 2672" class="cls-1" d="M1848.2,476h-2.05q-1.2,5.15-2.25,10.7-1,5.3-1.85,11a.944.944,0,0,0-.05.3h2q.9-5.85,1.95-11.3,1.05-5.55,2.25-10.7m59.1,6.45q-.7-3.3-1.4-6.45h-2.05q1.15,5.15,2.2,10.7,1.05,5.45,1.95,11.3h2v-.3a1.47,1.47,0,0,1-.05-.35q-.9-5.5-1.85-10.65Q1907.7,484.55,1907.3,482.45Z"/>
        <path id="Path_2673" data-name="Path 2673" class="cls-2" d="M1906.05,486.7q-1.05-5.55-2.2-10.7H1848.2q-1.2,5.15-2.25,10.7-1.05,5.45-1.95,11.3h64q-.9-5.85-1.95-11.3M1872,488a4.088,4.088,0,0,1,.2-1.3,3.965,3.965,0,0,1,.95-1.5A3.893,3.893,0,0,1,1876,484a4.267,4.267,0,0,1,3.8,2.7,4.088,4.088,0,0,1,.2,1.3,3.894,3.894,0,0,1-1.2,2.85A3.811,3.811,0,0,1,1876,492a3.929,3.929,0,0,1-4-4m-8.85-2.85a4.356,4.356,0,0,1,.7,1.55,5.352,5.352,0,0,1,.15,1.3,4.579,4.579,0,0,1-.85,2.8A2.633,2.633,0,0,1,1861,492a2.508,2.508,0,0,1-2.1-1.2,4.4,4.4,0,0,1-.9-2.8,5.352,5.352,0,0,1,.15-1.3,5.14,5.14,0,0,1,.75-1.55A2.533,2.533,0,0,1,1861,484a2.663,2.663,0,0,1,2.15,1.15M1891,484a2.508,2.508,0,0,1,2.1,1.2,4.528,4.528,0,0,1,.75,1.5,5.352,5.352,0,0,1,.15,1.3,4.616,4.616,0,0,1-.9,2.85A2.533,2.533,0,0,1,1891,492a2.663,2.663,0,0,1-2.15-1.15A4.8,4.8,0,0,1,1888,488a5.352,5.352,0,0,1,.15-1.3,3.886,3.886,0,0,1,.7-1.5A2.633,2.633,0,0,1,1891,484m7.6,1.2q.6-1.2,1.4-1.2.85,0,1.4,1.2a4.966,4.966,0,0,1,.5,1.5,7.921,7.921,0,0,1,.1,1.3,6.305,6.305,0,0,1-.6,2.85q-.55,1.15-1.4,1.15-.8,0-1.4-1.15a6.305,6.305,0,0,1-.6-2.85,7.921,7.921,0,0,1,.1-1.3,4.966,4.966,0,0,1,.5-1.5m-48,5.6a5.992,5.992,0,0,1-.6-2.8,7.921,7.921,0,0,1,.1-1.3,5.638,5.638,0,0,1,.5-1.55q.55-1.15,1.4-1.15.8,0,1.4,1.15a5.638,5.638,0,0,1,.5,1.55,7.921,7.921,0,0,1,.1,1.3,5.992,5.992,0,0,1-.6,2.8q-.6,1.2-1.4,1.2Q1851.15,492,1850.6,490.8Z"/>
        <path id="Path_2674" data-name="Path 2674" class="cls-3" d="M1850,488a5.992,5.992,0,0,0,.6,2.8q.55,1.2,1.4,1.2.8,0,1.4-1.2a5.992,5.992,0,0,0,.6-2.8,7.921,7.921,0,0,0-.1-1.3,5.638,5.638,0,0,0-.5-1.55q-.6-1.15-1.4-1.15-.85,0-1.4,1.15a5.638,5.638,0,0,0-.5,1.55,7.921,7.921,0,0,0-.1,1.3m50-4q-.8,0-1.4,1.2a4.966,4.966,0,0,0-.5,1.5,7.921,7.921,0,0,0-.1,1.3,6.305,6.305,0,0,0,.6,2.85q.6,1.15,1.4,1.15.85,0,1.4-1.15a6.305,6.305,0,0,0,.6-2.85,7.921,7.921,0,0,0-.1-1.3,4.966,4.966,0,0,0-.5-1.5q-.55-1.2-1.4-1.2m-6.9,1.2a2.508,2.508,0,0,0-2.1-1.2,2.633,2.633,0,0,0-2.15,1.2,3.886,3.886,0,0,0-.7,1.5,5.352,5.352,0,0,0-.15,1.3,4.8,4.8,0,0,0,.85,2.85A2.663,2.663,0,0,0,1891,492a2.533,2.533,0,0,0,2.1-1.15,4.616,4.616,0,0,0,.9-2.85,5.352,5.352,0,0,0-.15-1.3,4.528,4.528,0,0,0-.75-1.5m-29.25,1.5a4.356,4.356,0,0,0-.7-1.55A2.663,2.663,0,0,0,1861,484a2.533,2.533,0,0,0-2.1,1.15,5.14,5.14,0,0,0-.75,1.55,5.352,5.352,0,0,0-.15,1.3,4.4,4.4,0,0,0,.9,2.8,2.508,2.508,0,0,0,2.1,1.2,2.633,2.633,0,0,0,2.15-1.2,4.579,4.579,0,0,0,.85-2.8,5.352,5.352,0,0,0-.15-1.3m8.35,0a4.088,4.088,0,0,0-.2,1.3,3.929,3.929,0,0,0,4,4,3.811,3.811,0,0,0,2.8-1.15A3.894,3.894,0,0,0,1880,488a4.088,4.088,0,0,0-.2-1.3,4.267,4.267,0,0,0-3.8-2.7,3.893,3.893,0,0,0-2.85,1.2A3.965,3.965,0,0,0,1872.2,486.7Z"/>
        <path id="Path_2675" data-name="Path 2675" class="cls-4" d="M1902.85,476a136.678,136.678,0,0,0-4.55-13q-8.8-21.25-22.3-29-13.5,7.75-22.25,29a136.677,136.677,0,0,0-4.55,13Z"/>
        <path id="Path_2676" data-name="Path 2676" class="cls-5" d="M1898.3,463a136.678,136.678,0,0,1,4.55,13h1a194.29,194.29,0,0,0-5.55-19.55Q1889.5,431.2,1876,422q-13.5,9.2-22.25,34.45A194.289,194.289,0,0,0,1848.2,476h1a136.677,136.677,0,0,1,4.55-13q8.75-21.25,22.25-29Q1889.5,441.75,1898.3,463Z"/>
        <path id="Path_2677" data-name="Path 2677" class="cls-6" d="M1876,420a1.877,1.877,0,0,0-1.1.35q-14.05,9.45-23.05,35.45a191.675,191.675,0,0,0-5.7,20.2h2.05a194.289,194.289,0,0,1,5.55-19.55Q1862.5,431.2,1876,422q13.5,9.2,22.3,34.45a194.29,194.29,0,0,1,5.55,19.55h2.05q-2.6-11.1-5.7-20.2-9.05-26-23.05-35.45A2.111,2.111,0,0,0,1876,420Z"/>
      </g>
    </g>
    <g id="Group_711" data-name="Group 711">
      <g id="Group_710" data-name="Group 710">
        <path id="Path_2678" data-name="Path 2678" class="cls-7" d="M1906,552.1V562h2v-9.9h-2m0-54.1v21.2h2V498h-2m-60,25.7h-2V562h2V523.7m0-10.5V498h-2v15.2Z"/>
        <path id="Path_2679" data-name="Path 2679" class="cls-3" d="M1896.65,529.95h-10.5V552.1H1906V519.2h-9.35v10.75M1846,513.2v10.5h19.3V513.2Z"/>
        <path id="Path_2680" data-name="Path 2680" class="cls-1" d="M1908,498v64h2V498h-2m-64,25.7V498h-2v64h2Z"/>
        <path id="Path_2681" data-name="Path 2681" class="cls-2" d="M1908,519.2h-2v32.9h2V519.2m-62,4.5V513.2h-2v10.5h2m0-25.7v15.2h19.3v10.5H1846V562h60v-9.9h-19.85V529.95h10.5V519.2H1906V498Z"/>
      </g>
    </g>
    <g id="Group_713" data-name="Group 713">
      <g id="Group_712" data-name="Group 712">
        <path id="Path_2682" data-name="Path 2682" class="cls-2" d="M1906,562h-60v64h60V562m-52,27.2V589a22.027,22.027,0,0,1,37.55-15.6h-.05A21.063,21.063,0,0,1,1898,589v.2a20.84,20.84,0,0,1-6.45,15.3l-.05.05A21.029,21.029,0,0,1,1876,611a21.937,21.937,0,0,1-22-21.8m34.15,27.5a3.885,3.885,0,0,1,.7-1.5A2.633,2.633,0,0,1,1891,614a2.508,2.508,0,0,1,2.1,1.2,4.527,4.527,0,0,1,.75,1.5,5.351,5.351,0,0,1,.15,1.3,4.616,4.616,0,0,1-.9,2.85A2.533,2.533,0,0,1,1891,622a2.663,2.663,0,0,1-2.15-1.15A4.8,4.8,0,0,1,1888,618a5.351,5.351,0,0,1,.15-1.3M1900,614q.85,0,1.4,1.2a4.965,4.965,0,0,1,.5,1.5,7.921,7.921,0,0,1,.1,1.3,6.305,6.305,0,0,1-.6,2.85q-.55,1.15-1.4,1.15-.8,0-1.4-1.15a6.305,6.305,0,0,1-.6-2.85,7.921,7.921,0,0,1,.1-1.3,4.965,4.965,0,0,1,.5-1.5q.6-1.2,1.4-1.2m-36.15,2.7a5.351,5.351,0,0,1,.15,1.3,4.579,4.579,0,0,1-.85,2.8A2.633,2.633,0,0,1,1861,622a2.508,2.508,0,0,1-2.1-1.2,4.4,4.4,0,0,1-.9-2.8,5.351,5.351,0,0,1,.15-1.3,5.138,5.138,0,0,1,.75-1.55A2.533,2.533,0,0,1,1861,614a2.663,2.663,0,0,1,2.15,1.15,4.355,4.355,0,0,1,.7,1.55M1872,618a4.088,4.088,0,0,1,.2-1.3,3.965,3.965,0,0,1,.95-1.5A3.893,3.893,0,0,1,1876,614a4.267,4.267,0,0,1,3.8,2.7,4.088,4.088,0,0,1,.2,1.3,3.894,3.894,0,0,1-1.2,2.85A3.811,3.811,0,0,1,1876,622a3.929,3.929,0,0,1-4-4m-22,0a7.921,7.921,0,0,1,.1-1.3,5.636,5.636,0,0,1,.5-1.55q.55-1.15,1.4-1.15.8,0,1.4,1.15a5.636,5.636,0,0,1,.5,1.55,7.921,7.921,0,0,1,.1,1.3,5.992,5.992,0,0,1-.6,2.8q-.6,1.2-1.4,1.2-.85,0-1.4-1.2A5.992,5.992,0,0,1,1850,618Z"/>
        <path id="Path_2683" data-name="Path 2683" class="cls-3" d="M1850.1,616.7a7.921,7.921,0,0,0-.1,1.3,5.992,5.992,0,0,0,.6,2.8q.55,1.2,1.4,1.2.8,0,1.4-1.2a5.992,5.992,0,0,0,.6-2.8,7.921,7.921,0,0,0-.1-1.3,5.636,5.636,0,0,0-.5-1.55q-.6-1.15-1.4-1.15-.85,0-1.4,1.15a5.636,5.636,0,0,0-.5,1.55m22.1,0a4.088,4.088,0,0,0-.2,1.3,3.929,3.929,0,0,0,4,4,3.811,3.811,0,0,0,2.8-1.15A3.894,3.894,0,0,0,1880,618a4.088,4.088,0,0,0-.2-1.3,4.267,4.267,0,0,0-3.8-2.7,3.893,3.893,0,0,0-2.85,1.2,3.965,3.965,0,0,0-.95,1.5M1864,618a5.351,5.351,0,0,0-.15-1.3,4.355,4.355,0,0,0-.7-1.55A2.663,2.663,0,0,0,1861,614a2.533,2.533,0,0,0-2.1,1.15,5.138,5.138,0,0,0-.75,1.55,5.351,5.351,0,0,0-.15,1.3,4.4,4.4,0,0,0,.9,2.8,2.508,2.508,0,0,0,2.1,1.2,2.633,2.633,0,0,0,2.15-1.2,4.579,4.579,0,0,0,.85-2.8m37.4-2.8q-.55-1.2-1.4-1.2-.8,0-1.4,1.2a4.965,4.965,0,0,0-.5,1.5,7.921,7.921,0,0,0-.1,1.3,6.305,6.305,0,0,0,.6,2.85q.6,1.15,1.4,1.15.85,0,1.4-1.15a6.305,6.305,0,0,0,.6-2.85,7.921,7.921,0,0,0-.1-1.3,4.965,4.965,0,0,0-.5-1.5m-12.55,0a3.885,3.885,0,0,0-.7,1.5,5.351,5.351,0,0,0-.15,1.3,4.8,4.8,0,0,0,.85,2.85A2.663,2.663,0,0,0,1891,622a2.533,2.533,0,0,0,2.1-1.15,4.616,4.616,0,0,0,.9-2.85,5.351,5.351,0,0,0-.15-1.3,4.527,4.527,0,0,0-.75-1.5,2.508,2.508,0,0,0-2.1-1.2A2.633,2.633,0,0,0,1888.85,615.2Z"/>
        <path id="Path_2684" data-name="Path 2684" class="cls-7" d="M1854,589v.2a21.956,21.956,0,0,0,37.5,15.35l.05-.05a20.84,20.84,0,0,0,6.45-15.3V589a21.063,21.063,0,0,0-6.5-15.6h.05A21.17,21.17,0,0,0,1876,567a21.853,21.853,0,0,0-22,22m2,.2V589a19.806,19.806,0,0,1,20-20,19.973,19.973,0,0,1,20,20v.2a20.15,20.15,0,0,1-20,19.8,19.358,19.358,0,0,1-14.2-5.9,19.113,19.113,0,0,1-5.8-13.9m52-27.2h-2v64h2V562m-62,0h-2v64h2Z"/>
        <path id="Path_2685" data-name="Path 2685" class="cls-8" d="M1856,589v.2a19.113,19.113,0,0,0,5.8,13.9A19.358,19.358,0,0,0,1876,609a20.15,20.15,0,0,0,20-19.8V589a19.973,19.973,0,0,0-20-20,19.806,19.806,0,0,0-20,20m5,.2V589a14.51,14.51,0,0,1,4.3-10.6l.05-.05A14.7,14.7,0,0,1,1876,574a14.938,14.938,0,0,1,15,15v.2a14.2,14.2,0,0,1-4.4,10.35l-.05.05A14.284,14.284,0,0,1,1876,604a14.506,14.506,0,0,1-10.65-4.4A14.344,14.344,0,0,1,1861,589.2Z"/>
        <path id="Path_2686" data-name="Path 2686" class="cls-9" d="M1861,589v.2a14.344,14.344,0,0,0,4.35,10.4A14.506,14.506,0,0,0,1876,604a14.284,14.284,0,0,0,10.55-4.4l.05-.05a14.2,14.2,0,0,0,4.4-10.35V589a14.938,14.938,0,0,0-15-15,14.7,14.7,0,0,0-10.65,4.35l-.05.05A14.51,14.51,0,0,0,1861,589m5.8-9.25a13.106,13.106,0,0,1,18.2-.15l.2.2a12.425,12.425,0,0,1,3.8,9.2v.2a12.12,12.12,0,0,1-3.8,8.9l-.1.1a12.309,12.309,0,0,1-9.1,3.8,12.613,12.613,0,0,1-9.25-3.85v.05a12.538,12.538,0,0,1-3.75-9V589a12.7,12.7,0,0,1,3.7-9.2Z"/>
        <path id="Path_2687" data-name="Path 2687" class="cls-10" d="M1863,589v.2a12.538,12.538,0,0,0,3.75,9v-.05A12.613,12.613,0,0,0,1876,602a12.309,12.309,0,0,0,9.1-3.8l.1-.1a12.12,12.12,0,0,0,3.8-8.9V589Z"/>
        <path id="Path_2688" data-name="Path 2688" class="cls-11" d="M1876,576a12.616,12.616,0,0,0-9.2,3.75l-.1.05a12.7,12.7,0,0,0-3.7,9.2h26a12.425,12.425,0,0,0-3.8-9.2l-.2-.2A12.535,12.535,0,0,0,1876,576Z"/>
        <path id="Path_2689" data-name="Path 2689" class="cls-1" d="M1910,562h-2v64h2V562m-66,0h-2v64h2Z"/>
      </g>
    </g>
    <g id="Group_715" data-name="Group 715">
      <g id="Group_714" data-name="Group 714">
        <path id="Path_2690" data-name="Path 2690" class="cls-7" d="M1846,626h-2v64h2V626m62,0h-2v64h2Z"/>
        <path id="Path_2691" data-name="Path 2691" class="cls-1" d="M1844,626h-2v64h2V626m66,0h-2v64h2Z"/>
        <path id="Path_2692" data-name="Path 2692" class="cls-2" d="M1906,690V626h-60v64h60m-17-41h8v20h-8V649m-21,20V649h16v20h-16m-5-20v20h-8V649h8m38,20V649h4v20h-4m-50-20v20h-4V649Z"/>
        <path id="Path_2693" data-name="Path 2693" class="cls-3" d="M1851,669V649h-4v20h4m50-20v20h4V649h-4m-38,20V649h-8v20h8m5-20v20h16V649h-16m29,0h-8v20h8Z"/>
      </g>
    </g>
    <g id="Group_717" data-name="Group 717">
      <g id="Group_716" data-name="Group 716">
        <path id="Path_2694" data-name="Path 2694" class="cls-4" d="M1908,689.15h-64l11.3,25.95h41.35Z"/>
        <path id="Path_2695" data-name="Path 2695" class="cls-12" d="M1855.3,715.1l.9,2h39.6l.85-2Z"/>
        <path id="Path_2696" data-name="Path 2696" class="cls-13" d="M1856.2,717.1l4.25,9.8h31.05l4.3-9.8Z"/>
        <path id="Path_2697" data-name="Path 2697" class="cls-6" d="M1910,689.15h-2l-11.35,25.95-.85,2-4.3,9.8h-31.05l-4.25-9.8-.9-2L1844,689.15h-2a1.775,1.775,0,0,0,.2.8l16.45,37.75a1.852,1.852,0,0,0,.7.9,2.1,2.1,0,0,0,1.1.3h31.05a2.1,2.1,0,0,0,1.1-.3,2.183,2.183,0,0,0,.75-.9l16.5-37.75A2.265,2.265,0,0,0,1910,689.15Z"/>
      </g>
    </g>
    <g id="Group_721" data-name="Group 721" transform="translate(0.182 45.96)">
      <g id="Group_720" data-name="Group 720" transform="translate(1 -4)">
        <path id="Path_2702" data-name="Path 2702" class="cls-2" d="M1810.464,668.6l-2.814,5.6,18.631,5.6v-6.985Z" transform="translate(14.923 -33.32)"/>
        <path id="Path_2703" data-name="Path 2703" class="cls-4" d="M1800,641.876l3.825,1.024,2.775-4.847,15.6,3.647V607.55Z" transform="translate(19.004 -2)"/>
        <path id="Path_2704" data-name="Path 2704" class="cls-1" d="M1807.271,678.3l-.62.679,23.11,3.715a2.566,2.566,0,0,0,.31.019v-.754Z" transform="translate(123.959 -283.576) rotate(8)"/>
        <path id="Path_2705" data-name="Path 2705" class="cls-6" d="M1820.882,606.515v-.965a.886.886,0,0,0-.345.072.946.946,0,0,0-.493.386l-21.9,33.134a.815.815,0,0,0-.148.555.976.976,0,0,0,.222.555,1.038,1.038,0,0,0,.518.337l3.526.916.493-.868-3.773-.989Z" transform="translate(20.321 -0.001)"/>
      </g>
    </g>
    <g id="Group_781" data-name="Group 781" transform="translate(1909.097 647.511)">
      <path id="Path_2702-2" data-name="Path 2702" class="cls-2" d="M15.817,0l2.814,5.6L0,11.2V4.214Z" transform="translate(0.614 29.731)"/>
      <path id="Path_2703-2" data-name="Path 2703" class="cls-4" d="M22.2,34.326,18.375,35.35,15.6,30.5,0,34.151V0Z" transform="translate(0.614 0.001)"/>
      <path id="Path_2704-2" data-name="Path 2704" class="cls-1" d="M22.8,0l.62.679L.31,4.394A2.566,2.566,0,0,1,0,4.413V3.658Z" transform="translate(0 37.27) rotate(-8)"/>
      <path id="Path_2705-2" data-name="Path 2705" class="cls-6" d="M0,.965V0A.886.886,0,0,1,.345.072.946.946,0,0,1,.839.458l21.9,33.133a.815.815,0,0,1,.148.555.976.976,0,0,1-.222.555,1.038,1.038,0,0,1-.518.337l-3.526.916-.493-.868L21.9,34.1Z" transform="translate(0.615 0)"/>
    </g>
  </g>
</svg>
