<svg xmlns="http://www.w3.org/2000/svg" width="100%" height="100%" viewBox="0 0 369.05 102.524">
  <defs>
    <style>
      .cls-1 {
        fill: #ac3939;
      }

      .cls-2 {
        fill: #b83d3d;
      }

      .cls-3 {
        fill: #802b2b;
      }

      .cls-4 {
        fill: #f3f3f3;
      }

      .cls-5 {
        fill: #9f9f9f;
      }

      .cls-6 {
        fill: #e2e2e2;
      }

      .cls-7 {
        fill: #d2d2d2;
      }

      .cls-8 {
        fill: #bd3e3e;
      }

      .cls-9 {
        fill: #f5f5f5;
      }

      .cls-10 {
        fill: #a1b6bb;
      }

      .cls-11 {
        fill: #78888c;
      }

      .cls-12 {
        fill: #bdd6db;
      }

      .cls-13 {
        fill: #666;
      }

      .cls-14 {
        fill: #595959;
      }

      .cls-15 {
        fill: #464646;
      }
    </style>
  </defs>
  <g id="Long_Rocket_boi" data-name="Long Rocket boi" transform="translate(738 -2152.688) rotate(90)">
    <g id="Group_737" data-name="Group 737" transform="translate(14.094 15.005)">
      <g id="Group_736" data-name="Group 736" transform="translate(2138.594 640.298)">
        <path id="Path_2754" data-name="Path 2754" class="cls-1" d="M2166.041,664.7V648.15L2138.9,670.228V682.15l27.141-17.448m47.235-16.552V664.7l27.141,17.448V670.228Z" transform="translate(-2138.595 -640.298)"/>
        <path id="Path_2755" data-name="Path 2755" class="cls-2" d="M2138.9,657.823V661.2l27.141-21.7v-8.3L2138.9,657.823m74.375-26.623v8.3l27.141,21.7v-3.377Z" transform="translate(-2138.595 -630.298)"/>
        <path id="Path_2756" data-name="Path 2756" class="cls-3" d="M2165.054,632.306V631.3a1.988,1.988,0,0,0-.539.076,1.538,1.538,0,0,0-.77.4l-25.92,26.665a.72.72,0,0,0-.231.529v13.465a.881.881,0,0,0,.424.731,2.131,2.131,0,0,0,1.116.277,1.934,1.934,0,0,0,1.079-.277l24.841-16.211v-1.437l-25.919,16.917V658.972l25.919-26.665m46.988-.479v1.008l26.536,26.136v13.465l-26.536-16.917v1.437l25.457,16.211a1.934,1.934,0,0,0,1.079.277,2.131,2.131,0,0,0,1.116-.277.881.881,0,0,0,.424-.731V658.972a.72.72,0,0,0-.231-.529l-26.536-26.136a1.538,1.538,0,0,0-.77-.4A1.981,1.981,0,0,0,2212.042,631.827Z" transform="translate(-2137.594 -631.298)"/>
      </g>
    </g>
    <g id="Group_739" data-name="Group 739">
      <g id="Group_738" data-name="Group 738">
        <path id="Path_2757" data-name="Path 2757" class="cls-4" d="M2184.85,419.35V414.2a78.651,78.651,0,0,0-12.9,14.75v2.4a69.375,69.375,0,0,1,12.9-12m51.1,12v-2.4a78.65,78.65,0,0,0-12.9-14.75v5.15A69.374,69.374,0,0,1,2235.95,431.35Z"/>
        <path id="Path_2758" data-name="Path 2758" class="cls-5" d="M2182.85,403.3v10a81.514,81.514,0,0,0-12.55,14.55,1.876,1.876,0,0,0-.35,1.1v13h2v-13a78.651,78.651,0,0,1,12.9-14.75V403.3h-2m53.1,25.65v13h2v-13a1.878,1.878,0,0,0-.35-1.1,81.534,81.534,0,0,0-12.55-14.55v-10h-2v10.9A78.65,78.65,0,0,1,2235.95,428.95Z"/>
        <path id="Path_2759" data-name="Path 2759" class="cls-1" d="M2223.05,403.3v-3.65a38.4,38.4,0,0,0-19.1-15.6,38.4,38.4,0,0,0-19.1,15.6v3.65Z"/>
        <path id="Path_2760" data-name="Path 2760" class="cls-6" d="M2235.95,441.95v-10.6a69.374,69.374,0,0,0-12.9-12V403.3h-38.2v16.05a69.375,69.375,0,0,0-12.9,12v10.6h64m-6.6-12.8a4.972,4.972,0,0,1,.5,1.5,7.922,7.922,0,0,1,.1,1.3,6.307,6.307,0,0,1-.6,2.85q-.55,1.15-1.4,1.15-.8,0-1.4-1.15a6.3,6.3,0,0,1-.6-2.85,7.921,7.921,0,0,1,.1-1.3,4.959,4.959,0,0,1,.5-1.5q.6-1.2,1.4-1.2.85,0,1.4,1.2m-25.4-1.2a4.267,4.267,0,0,1,3.8,2.7,4.088,4.088,0,0,1,.2,1.3,3.893,3.893,0,0,1-1.2,2.85,3.811,3.811,0,0,1-2.8,1.15,3.929,3.929,0,0,1-4-4,4.088,4.088,0,0,1,.2-1.3,3.964,3.964,0,0,1,.95-1.5,3.893,3.893,0,0,1,2.85-1.2m-15,0a2.664,2.664,0,0,1,2.15,1.15,4.357,4.357,0,0,1,.7,1.55,5.358,5.358,0,0,1,.15,1.3,4.579,4.579,0,0,1-.85,2.8,2.634,2.634,0,0,1-2.15,1.2,2.508,2.508,0,0,1-2.1-1.2,4.4,4.4,0,0,1-.9-2.8,5.346,5.346,0,0,1,.15-1.3,5.145,5.145,0,0,1,.75-1.55,2.533,2.533,0,0,1,2.1-1.15m30,0a2.508,2.508,0,0,1,2.1,1.2,4.532,4.532,0,0,1,.75,1.5,5.358,5.358,0,0,1,.15,1.3,4.616,4.616,0,0,1-.9,2.85,2.534,2.534,0,0,1-2.1,1.15,2.663,2.663,0,0,1-2.15-1.15,4.8,4.8,0,0,1-.85-2.85,5.346,5.346,0,0,1,.15-1.3,3.888,3.888,0,0,1,.7-1.5,2.633,2.633,0,0,1,2.15-1.2m-37.6,1.15a5.645,5.645,0,0,1,.5,1.55,7.922,7.922,0,0,1,.1,1.3,5.994,5.994,0,0,1-.6,2.8q-.6,1.2-1.4,1.2-.85,0-1.4-1.2a5.991,5.991,0,0,1-.6-2.8,7.921,7.921,0,0,1,.1-1.3,5.629,5.629,0,0,1,.5-1.55q.55-1.15,1.4-1.15Q2180.75,427.95,2181.35,429.1Z"/>
        <path id="Path_2761" data-name="Path 2761" class="cls-7" d="M2181.85,430.65a5.645,5.645,0,0,0-.5-1.55q-.6-1.15-1.4-1.15-.85,0-1.4,1.15a5.629,5.629,0,0,0-.5,1.55,7.921,7.921,0,0,0-.1,1.3,5.991,5.991,0,0,0,.6,2.8q.55,1.2,1.4,1.2.8,0,1.4-1.2a5.994,5.994,0,0,0,.6-2.8,7.922,7.922,0,0,0-.1-1.3m39.2-1.5a2.508,2.508,0,0,0-2.1-1.2,2.633,2.633,0,0,0-2.15,1.2,3.888,3.888,0,0,0-.7,1.5,5.346,5.346,0,0,0-.15,1.3,4.8,4.8,0,0,0,.85,2.85,2.663,2.663,0,0,0,2.15,1.15,2.534,2.534,0,0,0,2.1-1.15,4.616,4.616,0,0,0,.9-2.85,5.358,5.358,0,0,0-.15-1.3,4.532,4.532,0,0,0-.75-1.5m-29.95-.05a2.664,2.664,0,0,0-2.15-1.15,2.533,2.533,0,0,0-2.1,1.15,5.145,5.145,0,0,0-.75,1.55,5.346,5.346,0,0,0-.15,1.3,4.4,4.4,0,0,0,.9,2.8,2.508,2.508,0,0,0,2.1,1.2,2.634,2.634,0,0,0,2.15-1.2,4.579,4.579,0,0,0,.85-2.8,5.358,5.358,0,0,0-.15-1.3,4.357,4.357,0,0,0-.7-1.55m15.65.05a3.732,3.732,0,0,0-2.8-1.2,3.893,3.893,0,0,0-2.85,1.2,3.964,3.964,0,0,0-.95,1.5,4.088,4.088,0,0,0-.2,1.3,3.929,3.929,0,0,0,4,4,3.811,3.811,0,0,0,2.8-1.15,3.893,3.893,0,0,0,1.2-2.85,4.088,4.088,0,0,0-.2-1.3,3.717,3.717,0,0,0-1-1.5m23.1,1.5a4.972,4.972,0,0,0-.5-1.5q-.55-1.2-1.4-1.2-.8,0-1.4,1.2a4.959,4.959,0,0,0-.5,1.5,7.921,7.921,0,0,0-.1,1.3,6.3,6.3,0,0,0,.6,2.85q.6,1.15,1.4,1.15.85,0,1.4-1.15a6.307,6.307,0,0,0,.6-2.85A7.922,7.922,0,0,0,2229.85,430.65Z"/>
        <path id="Path_2762" data-name="Path 2762" class="cls-8" d="M2223.05,390.05q-7.1-13.5-19.1-19.1-12,5.6-19.1,19.1v9.6a38.4,38.4,0,0,1,19.1-15.6,38.4,38.4,0,0,1,19.1,15.6Z"/>
        <path id="Path_2763" data-name="Path 2763" class="cls-3" d="M2183.1,389.15a1.662,1.662,0,0,0-.25.9V403.3h2V390.05q7.1-13.5,19.1-19.1,12,5.6,19.1,19.1V403.3h2V390.05a1.985,1.985,0,0,0-.2-.9q-7.45-14.15-20.05-20a1.906,1.906,0,0,0-1.7,0Q2190.5,375,2183.1,389.15Z"/>
      </g>
    </g>
    <g id="Group_741" data-name="Group 741">
      <g id="Group_740" data-name="Group 740">
        <path id="Path_2764" data-name="Path 2764" class="cls-6" d="M2173.95,505.45h60v-64h-60v64m43-41h8v20h-8v-20m-5,0v20h-16v-20h16m-21,0v20h-8v-20h8m38,20v-20h4v20h-4m-50-20v20h-4v-20Z"/>
        <path id="Path_2765" data-name="Path 2765" class="cls-7" d="M2178.95,484.45v-20h-4v20h4m50-20v20h4v-20h-4m-38,20v-20h-8v20h8m21,0v-20h-16v20h16m13-20h-8v20h8Z"/>
        <path id="Path_2766" data-name="Path 2766" class="cls-9" d="M2173.95,441.45h-2v64h2v-64m62,0h-2v64h2Z"/>
        <path id="Path_2767" data-name="Path 2767" class="cls-5" d="M2171.95,441.45h-2v64h2v-64m66,0h-2v64h2Z"/>
      </g>
    </g>
    <g id="Group_743" data-name="Group 743">
      <g id="Group_742" data-name="Group 742">
        <path id="Path_2768" data-name="Path 2768" class="cls-5" d="M2237.95,505.45h-2v64h2v-64m-66,0h-2v64h2Z"/>
        <path id="Path_2769" data-name="Path 2769" class="cls-9" d="M2235.95,505.45h-2v64h2v-64m-62,0h-2v64h2Z"/>
        <path id="Path_2770" data-name="Path 2770" class="cls-6" d="M2173.95,505.45v64h60v-64h-60m12,56a5.345,5.345,0,0,1,.15-1.3,5.145,5.145,0,0,1,.75-1.55,2.533,2.533,0,0,1,2.1-1.15,2.664,2.664,0,0,1,2.15,1.15,4.358,4.358,0,0,1,.7,1.55,5.358,5.358,0,0,1,.15,1.3,4.579,4.579,0,0,1-.85,2.8,2.634,2.634,0,0,1-2.15,1.2,2.508,2.508,0,0,1-2.1-1.2,4.4,4.4,0,0,1-.9-2.8m-4.6-2.85a5.646,5.646,0,0,1,.5,1.55,7.922,7.922,0,0,1,.1,1.3,5.994,5.994,0,0,1-.6,2.8q-.6,1.2-1.4,1.2-.85,0-1.4-1.2a5.991,5.991,0,0,1-.6-2.8,7.921,7.921,0,0,1,.1-1.3,5.629,5.629,0,0,1,.5-1.55q.55-1.15,1.4-1.15.8,0,1.4,1.15m34.6,2.85a5.345,5.345,0,0,1,.15-1.3,3.887,3.887,0,0,1,.7-1.5,2.633,2.633,0,0,1,2.15-1.2,2.508,2.508,0,0,1,2.1,1.2,4.532,4.532,0,0,1,.75,1.5,5.358,5.358,0,0,1,.15,1.3,4.616,4.616,0,0,1-.9,2.85,2.534,2.534,0,0,1-2.1,1.15,2.663,2.663,0,0,1-2.15-1.15,4.8,4.8,0,0,1-.85-2.85m-8.2-1.3a4.088,4.088,0,0,1,.2,1.3,3.893,3.893,0,0,1-1.2,2.85,3.811,3.811,0,0,1-2.8,1.15,3.929,3.929,0,0,1-4-4,4.088,4.088,0,0,1,.2-1.3,3.963,3.963,0,0,1,.95-1.5,3.894,3.894,0,0,1,2.85-1.2,4.267,4.267,0,0,1,3.8,2.7m18.3,0a4.958,4.958,0,0,1,.5-1.5q.6-1.2,1.4-1.2.85,0,1.4,1.2a4.972,4.972,0,0,1,.5,1.5,7.922,7.922,0,0,1,.1,1.3,6.307,6.307,0,0,1-.6,2.85q-.55,1.15-1.4,1.15-.8,0-1.4-1.15a6.3,6.3,0,0,1-.6-2.85A7.921,7.921,0,0,1,2226.05,560.15Z"/>
        <path id="Path_2771" data-name="Path 2771" class="cls-7" d="M2226.55,558.65a4.958,4.958,0,0,0-.5,1.5,7.921,7.921,0,0,0-.1,1.3,6.3,6.3,0,0,0,.6,2.85q.6,1.15,1.4,1.15.85,0,1.4-1.15a6.307,6.307,0,0,0,.6-2.85,7.922,7.922,0,0,0-.1-1.3,4.972,4.972,0,0,0-.5-1.5q-.55-1.2-1.4-1.2-.8,0-1.4,1.2m-18.6,2.8a4.088,4.088,0,0,0-.2-1.3,4.267,4.267,0,0,0-3.8-2.7,3.894,3.894,0,0,0-2.85,1.2,3.963,3.963,0,0,0-.95,1.5,4.088,4.088,0,0,0-.2,1.3,3.929,3.929,0,0,0,4,4,3.811,3.811,0,0,0,2.8-1.15,3.893,3.893,0,0,0,1.2-2.85m8.15-1.3a5.345,5.345,0,0,0-.15,1.3,4.8,4.8,0,0,0,.85,2.85,2.663,2.663,0,0,0,2.15,1.15,2.534,2.534,0,0,0,2.1-1.15,4.616,4.616,0,0,0,.9-2.85,5.358,5.358,0,0,0-.15-1.3,4.532,4.532,0,0,0-.75-1.5,2.508,2.508,0,0,0-2.1-1.2,2.633,2.633,0,0,0-2.15,1.2,3.887,3.887,0,0,0-.7,1.5m-34.25,0a5.646,5.646,0,0,0-.5-1.55q-.6-1.15-1.4-1.15-.85,0-1.4,1.15a5.629,5.629,0,0,0-.5,1.55,7.921,7.921,0,0,0-.1,1.3,5.991,5.991,0,0,0,.6,2.8q.55,1.2,1.4,1.2.8,0,1.4-1.2a5.994,5.994,0,0,0,.6-2.8,7.922,7.922,0,0,0-.1-1.3m4.25,0a5.345,5.345,0,0,0-.15,1.3,4.4,4.4,0,0,0,.9,2.8,2.508,2.508,0,0,0,2.1,1.2,2.634,2.634,0,0,0,2.15-1.2,4.579,4.579,0,0,0,.85-2.8,5.358,5.358,0,0,0-.15-1.3,4.358,4.358,0,0,0-.7-1.55,2.664,2.664,0,0,0-2.15-1.15,2.533,2.533,0,0,0-2.1,1.15A5.145,5.145,0,0,0,2186.1,560.15Z"/>
      </g>
    </g>
    <g id="Group_745" data-name="Group 745">
      <g id="Group_744" data-name="Group 744">
        <path id="Path_2772" data-name="Path 2772" class="cls-9" d="M2173.95,633.45v-38.3h-2v38.3h2m60-9.9v9.9h2v-9.9h-2m0-54.1v21.2h2v-21.2h-2m-60,15.2v-15.2h-2v15.2Z"/>
        <path id="Path_2773" data-name="Path 2773" class="cls-7" d="M2193.25,584.65h-19.3v10.5h19.3v-10.5m40.7,6h-9.35V601.4h-10.5v22.15h19.85Z"/>
        <path id="Path_2774" data-name="Path 2774" class="cls-5" d="M2235.95,569.45v64h2v-64h-2m-64,0h-2v64h2v-64Z"/>
        <path id="Path_2775" data-name="Path 2775" class="cls-6" d="M2235.95,590.65h-2v32.9h2v-32.9m-62-6h-2v10.5h2v-10.5m0-15.2v15.2h19.3v10.5h-19.3v38.3h60v-9.9H2214.1V601.4h10.5V590.65h9.35v-21.2Z"/>
      </g>
    </g>
    <g id="Group_747" data-name="Group 747">
      <g id="Group_746" data-name="Group 746">
        <path id="Path_2776" data-name="Path 2776" class="cls-6" d="M2173.95,697.45h60v-64h-60v64m17.85-9.3a5.358,5.358,0,0,1,.15,1.3,4.579,4.579,0,0,1-.85,2.8,2.634,2.634,0,0,1-2.15,1.2,2.508,2.508,0,0,1-2.1-1.2,4.4,4.4,0,0,1-.9-2.8,5.345,5.345,0,0,1,.15-1.3,5.145,5.145,0,0,1,.75-1.55,2.533,2.533,0,0,1,2.1-1.15,2.664,2.664,0,0,1,2.15,1.15,4.358,4.358,0,0,1,.7,1.55m9.3-1.5a3.894,3.894,0,0,1,2.85-1.2,4.267,4.267,0,0,1,3.8,2.7,4.088,4.088,0,0,1,.2,1.3,3.893,3.893,0,0,1-1.2,2.85,3.811,3.811,0,0,1-2.8,1.15,3.929,3.929,0,0,1-4-4,4.088,4.088,0,0,1,.2-1.3,3.963,3.963,0,0,1,.95-1.5m15,1.5a3.887,3.887,0,0,1,.7-1.5,2.633,2.633,0,0,1,2.15-1.2,2.508,2.508,0,0,1,2.1,1.2,4.532,4.532,0,0,1,.75,1.5,5.358,5.358,0,0,1,.15,1.3,4.616,4.616,0,0,1-.9,2.85,2.534,2.534,0,0,1-2.1,1.15,2.663,2.663,0,0,1-2.15-1.15,4.8,4.8,0,0,1-.85-2.85,5.345,5.345,0,0,1,.15-1.3m9.95,0a4.958,4.958,0,0,1,.5-1.5q.6-1.2,1.4-1.2.85,0,1.4,1.2a4.972,4.972,0,0,1,.5,1.5,7.922,7.922,0,0,1,.1,1.3,6.307,6.307,0,0,1-.6,2.85q-.55,1.15-1.4,1.15-.8,0-1.4-1.15a6.3,6.3,0,0,1-.6-2.85,7.921,7.921,0,0,1,.1-1.3m-46.1-2.7q.8,0,1.4,1.15a5.646,5.646,0,0,1,.5,1.55,7.922,7.922,0,0,1,.1,1.3,5.994,5.994,0,0,1-.6,2.8q-.6,1.2-1.4,1.2-.85,0-1.4-1.2a5.991,5.991,0,0,1-.6-2.8,7.921,7.921,0,0,1,.1-1.3,5.629,5.629,0,0,1,.5-1.55Q2179.1,685.45,2179.95,685.45Z"/>
        <path id="Path_2777" data-name="Path 2777" class="cls-7" d="M2181.35,686.6q-.6-1.15-1.4-1.15-.85,0-1.4,1.15a5.629,5.629,0,0,0-.5,1.55,7.921,7.921,0,0,0-.1,1.3,5.991,5.991,0,0,0,.6,2.8q.55,1.2,1.4,1.2.8,0,1.4-1.2a5.994,5.994,0,0,0,.6-2.8,7.922,7.922,0,0,0-.1-1.3,5.646,5.646,0,0,0-.5-1.55m45.2.05a4.958,4.958,0,0,0-.5,1.5,7.921,7.921,0,0,0-.1,1.3,6.3,6.3,0,0,0,.6,2.85q.6,1.15,1.4,1.15.85,0,1.4-1.15a6.307,6.307,0,0,0,.6-2.85,7.922,7.922,0,0,0-.1-1.3,4.972,4.972,0,0,0-.5-1.5q-.55-1.2-1.4-1.2-.8,0-1.4,1.2m-9.75,0a3.887,3.887,0,0,0-.7,1.5,5.345,5.345,0,0,0-.15,1.3,4.8,4.8,0,0,0,.85,2.85,2.663,2.663,0,0,0,2.15,1.15,2.534,2.534,0,0,0,2.1-1.15,4.616,4.616,0,0,0,.9-2.85,5.358,5.358,0,0,0-.15-1.3,4.532,4.532,0,0,0-.75-1.5,2.508,2.508,0,0,0-2.1-1.2,2.633,2.633,0,0,0-2.15,1.2m-12.85-1.2a3.894,3.894,0,0,0-2.85,1.2,3.963,3.963,0,0,0-.95,1.5,4.088,4.088,0,0,0-.2,1.3,3.929,3.929,0,0,0,4,4,3.811,3.811,0,0,0,2.8-1.15,3.893,3.893,0,0,0,1.2-2.85,4.088,4.088,0,0,0-.2-1.3,4.267,4.267,0,0,0-3.8-2.7m-12,4a5.358,5.358,0,0,0-.15-1.3,4.358,4.358,0,0,0-.7-1.55,2.664,2.664,0,0,0-2.15-1.15,2.533,2.533,0,0,0-2.1,1.15,5.145,5.145,0,0,0-.75,1.55,5.345,5.345,0,0,0-.15,1.3,4.4,4.4,0,0,0,.9,2.8,2.508,2.508,0,0,0,2.1,1.2,2.634,2.634,0,0,0,2.15-1.2A4.579,4.579,0,0,0,2191.95,689.45Z"/>
        <path id="Path_2778" data-name="Path 2778" class="cls-9" d="M2173.95,633.45h-2v64h2v-64m62,0h-2v64h2Z"/>
        <path id="Path_2779" data-name="Path 2779" class="cls-5" d="M2171.95,633.45h-2v64h2v-64m66,0h-2v64h2Z"/>
      </g>
    </g>
    <g id="Group_749" data-name="Group 749">
      <g id="Group_748" data-name="Group 748">
        <path id="Path_2780" data-name="Path 2780" class="cls-10" d="M2187.45,720.3h33.1l9.65-23.4h-52.45Z"/>
        <path id="Path_2781" data-name="Path 2781" class="cls-11" d="M2237.7,696.9h-2.1l-8.35,23.4,2.3-.55,8.15-22.85m-65.4,0h-2.1l8.2,22.85,2.3.55Z"/>
        <path id="Path_2782" data-name="Path 2782" class="cls-12" d="M2235.6,696.9h-5.4l-9.65,23.4h6.7l8.35-23.4m-57.85,0h-5.45l8.4,23.4h6.75Z"/>
        <path id="Path_2783" data-name="Path 2783" class="cls-13" d="M2180.7,720.3l-3.95,3.95h54.45l-3.95-3.95H2180.7m0,7.85-3.95,3.95h54.45l-3.95-3.95Z"/>
        <path id="Path_2784" data-name="Path 2784" class="cls-14" d="M2176.75,732.1l3.95,3.9h46.55l3.95-3.9h-54.45m0-7.85,3.95,3.9h46.55l3.95-3.9Z"/>
        <path id="Path_2785" data-name="Path 2785" class="cls-15" d="M2180.7,720.3l-2.3-.55-3.05,3.1a1.815,1.815,0,0,0-.6,1.4,1.975,1.975,0,0,0,.6,1.45l2.5,2.45-2.5,2.55a1.815,1.815,0,0,0-.6,1.4,1.975,1.975,0,0,0,.6,1.45l3.95,3.9a2.006,2.006,0,0,0,1.4.55h46.55a2.006,2.006,0,0,0,1.4-.55l3.95-3.9a1.976,1.976,0,0,0,.6-1.45,1.9,1.9,0,0,0-.55-1.4l-2.55-2.55,2.5-2.45a1.976,1.976,0,0,0,.6-1.45,1.9,1.9,0,0,0-.55-1.4l-3.1-3.1-2.3.55,3.95,3.95-3.95,3.9,3.95,3.95-3.95,3.9H2180.7l-3.95-3.9,3.95-3.95-3.95-3.9Z"/>
      </g>
    </g>
  </g>
</svg>
