<svg xmlns="http://www.w3.org/2000/svg" width="100%" height="100%" viewBox="0 0 100.233 74.15">
  <defs>
    <style>
      .cls-1 {
        fill: #b5cdd2;
      }

      .cls-2 {
        fill: #adc4c9;
      }

      .cls-3 {
        fill: #a1b6bb;
      }

      .cls-4 {
        fill: #78888c;
      }

      .cls-5 {
        fill: #6d6d6d;
      }

      .cls-6 {
        fill: #484848;
      }

      .cls-7 {
        fill: #5b5b5b;
      }

      .cls-8 {
        fill: #bd3e3e;
      }

      .cls-9 {
        fill: #e9e9e9;
      }

      .cls-10 {
        fill: #bbb;
      }

      .cls-11 {
        fill: #ac3939;
      }

      .cls-12 {
        fill: #802b2b;
      }

      .cls-13 {
        fill: #a3a3a3;
      }

      .cls-14 {
        fill: #eee;
      }

      .cls-15 {
        fill: #d9d9d9;
      }

      .cls-16 {
        fill: #5d4b6b;
      }

      .cls-17 {
        fill: #4a3c55;
      }
    </style>
  </defs>
  <g id="small_wide" data-name="small wide" transform="translate(-2143.883 -68.95)">
    <g id="Group_641" data-name="Group 641">
      <g id="Group_640" data-name="Group 640">
        <path id="Path_2522" data-name="Path 2522" class="cls-1" d="M2214,114.65v-.05l8.6.05,1.9-2h-21l1.9,2.05Z"/>
        <path id="Path_2523" data-name="Path 2523" class="cls-2" d="M2226.4,103.65v-.05H2214v.05h-12.4v2H2214v-.05h12.4Z"/>
        <path id="Path_2524" data-name="Path 2524" class="cls-3" d="M2226.4,110.6v-5H2214v.05h-12.4v5l1.9,2h21l1.9-2.05m-12.4-39v.05h-4.4l-8,9v4H2214V84.6h12.4v-4l-8-9Z"/>
        <path id="Path_2525" data-name="Path 2525" class="cls-4" d="M2227.85,111.95a1.836,1.836,0,0,0,.55-1.35v-6.95h-2v6.95l-1.9,2.05-1.9,2-8.6-.05v.05l-8.6.05-1.9-2.05-1.9-2v-7h-2v7a1.836,1.836,0,0,0,.55,1.35l3.8,4.05a2.075,2.075,0,0,0,.65.45,1.774,1.774,0,0,0,.8.2l8.6-.05a2.811,2.811,0,0,0,.55-.05l8.05.05a1.774,1.774,0,0,0,.8-.2,2.075,2.075,0,0,0,.65-.45l3.8-4.05M2214,71.65V71.6h4.4l8,9v4.05h2V80.6a2.054,2.054,0,0,0-.5-1.35l-8-9a3.073,3.073,0,0,0-.65-.5,2.4,2.4,0,0,0-.85-.15H2214a1.858,1.858,0,0,0-.45.05h-3.95a2.014,2.014,0,0,0-.8.15,2.665,2.665,0,0,0-.7.5l-8,9a2.054,2.054,0,0,0-.5,1.35v4h2v-4l8-9Z"/>
        <path id="Path_2526" data-name="Path 2526" class="cls-5" d="M2207.6,98.65h-6v2h6v-2m18.8,0h-6.8v2h6.8v-2m-6.8-10h6.8v-2h-6.8v2m-18-2v2h6v-2Z"/>
        <path id="Path_2527" data-name="Path 2527" class="cls-6" d="M2226.4,86.65v17h2v-19h-2v2m-24.8-2h-2v19h2v-19Z"/>
        <path id="Path_2528" data-name="Path 2528" class="cls-7" d="M2201.6,88.65v10h6v2h-6v3H2214v-.05h12.4v-2.95h-6.8v-2h6.8v-10h-6.8v-2h6.8V84.6H2214v.05h-12.4v2h6v2Z"/>
      </g>
    </g>
    <g id="Group_643" data-name="Group 643">
      <g id="Group_642" data-name="Group 642">
        <path id="Path_2529" data-name="Path 2529" class="cls-1" d="M2174,114.65v-.05l8.6.05,1.9-2h-21l1.9,2.05Z"/>
        <path id="Path_2530" data-name="Path 2530" class="cls-3" d="M2186.4,110.6v-5H2174v.05h-12.4v5l1.9,2h21l1.9-2.05m-12.4-39v.05h-4.4l-8,9v4H2174V84.6h12.4v-4l-8-9Z"/>
        <path id="Path_2531" data-name="Path 2531" class="cls-4" d="M2186.4,103.65v6.95l-1.9,2.05-1.9,2-8.6-.05v.05l-8.6.05-1.9-2.05-1.9-2v-7h-2v7a1.836,1.836,0,0,0,.55,1.35l3.8,4.05a2.075,2.075,0,0,0,.65.45,1.774,1.774,0,0,0,.8.2l8.6-.05a2.811,2.811,0,0,0,.55-.05l8.05.05a1.774,1.774,0,0,0,.8-.2,2.075,2.075,0,0,0,.65-.45l3.8-4.05a1.836,1.836,0,0,0,.55-1.35v-6.95h-2m2-19V80.6a2.054,2.054,0,0,0-.5-1.35l-8-9a3.073,3.073,0,0,0-.65-.5,2.4,2.4,0,0,0-.85-.15H2174a1.858,1.858,0,0,0-.45.05h-3.95a2.014,2.014,0,0,0-.8.15,2.665,2.665,0,0,0-.7.5l-8,9a2.054,2.054,0,0,0-.5,1.35v4h2v-4l8-9h4.4V71.6h4.4l8,9v4.05Z"/>
        <path id="Path_2532" data-name="Path 2532" class="cls-2" d="M2186.4,105.6v-2H2174v.05h-12.4v2H2174v-.05Z"/>
        <path id="Path_2533" data-name="Path 2533" class="cls-5" d="M2167.6,98.65h-6v2h6v-2m18.8,0h-6.8v2h6.8v-2m-6.8-10h6.8v-2h-6.8v2m-18-2v2h6v-2Z"/>
        <path id="Path_2534" data-name="Path 2534" class="cls-6" d="M2186.4,86.65v17h2v-19h-2v2m-24.8-2h-2v19h2v-19Z"/>
        <path id="Path_2535" data-name="Path 2535" class="cls-7" d="M2161.6,88.65v10h6v2h-6v3H2174v-.05h12.4v-2.95h-6.8v-2h6.8v-10h-6.8v-2h6.8V84.6H2174v.05h-12.4v2h6v2Z"/>
      </g>
    </g>
    <g id="Group_645" data-name="Group 645">
      <g id="Group_644" data-name="Group 644">
        <path id="Path_2536" data-name="Path 2536" class="cls-8" d="M2224.05,101.95H2208.9l-1.8,23.7,10.45-.65,10.05-11.6Z"/>
        <path id="Path_2537" data-name="Path 2537" class="cls-9" d="M2230.85,75.3l-3.85.8,10.35,33.75-27,31.25h9.8l21.95-27.85Z"/>
        <path id="Path_2538" data-name="Path 2538" class="cls-10" d="M2226.35,74.2l.65,1.9,3.85-.8,11.25,37.95-21.95,27.85h-9.8l-1.9,2h11.7a2.2,2.2,0,0,0,.9-.2,2.227,2.227,0,0,0,.7-.55l21.95-27.85a2.207,2.207,0,0,0,.4-.85,2.991,2.991,0,0,0-.05-.95L2232.8,74.75a2.076,2.076,0,0,0-.9-1.15,2.035,2.035,0,0,0-1.45-.25Z"/>
        <path id="Path_2539" data-name="Path 2539" class="cls-11" d="M2224.35,76.65l2.45,9.9-17.1,5.7-.8,9.7h15.15l3.55,11.45L2217.55,125l-10.45.65-1.2,15.45h4.45l27-31.25L2227,76.1Z"/>
        <path id="Path_2540" data-name="Path 2540" class="cls-12" d="M2226.8,86.55l-2.45-9.9,2.65-.55-.65-1.9-2.4.5a1.76,1.76,0,0,0-.95.5,1.792,1.792,0,0,0-.55.9,1.614,1.614,0,0,0-.05,1.05l2,8.1-15.3,5.1a1.835,1.835,0,0,0-.95.7,1.762,1.762,0,0,0-.45,1.05l-3.8,48.85a1.7,1.7,0,0,0,.25,1.05,2.038,2.038,0,0,0,.7.8,2.01,2.01,0,0,0,1.05.3h2.55l1.9-2h-4.45l1.2-15.45,1.8-23.7.8-9.7Z"/>
      </g>
    </g>
    <g id="Group_647" data-name="Group 647">
      <g id="Group_646" data-name="Group 646">
        <path id="Path_2541" data-name="Path 2541" class="cls-8" d="M2163.95,101.95l-3.55,11.45,10.05,11.6,10.45.65-1.8-23.7Z"/>
        <path id="Path_2542" data-name="Path 2542" class="cls-9" d="M2161,76.1l-3.85-.8-11.25,37.95,21.95,27.85h9.8l-27-31.25Z"/>
        <path id="Path_2543" data-name="Path 2543" class="cls-12" d="M2161,76.1l2.65.55-2.45,9.9,17.1,5.7.8,9.7,1.8,23.7,1.2,15.45h-4.45l1.9,2h2.55a2.01,2.01,0,0,0,1.05-.3,2.038,2.038,0,0,0,.7-.8,1.7,1.7,0,0,0,.25-1.05l-3.8-48.85a1.762,1.762,0,0,0-.45-1.05,1.835,1.835,0,0,0-.95-.7l-15.3-5.1,2-8.1a1.614,1.614,0,0,0-.05-1.05,1.792,1.792,0,0,0-.55-.9,1.76,1.76,0,0,0-.95-.5l-2.4-.5Z"/>
        <path id="Path_2544" data-name="Path 2544" class="cls-11" d="M2163.65,76.65,2161,76.1l-10.35,33.75,27,31.25h4.45l-1.2-15.45-10.45-.65-10.05-11.6,3.55-11.45h15.15l-.8-9.7-17.1-5.7Z"/>
        <path id="Path_2545" data-name="Path 2545" class="cls-10" d="M2157.55,73.35a2.035,2.035,0,0,0-1.45.25,2.076,2.076,0,0,0-.9,1.15l-11.25,37.95a2.991,2.991,0,0,0-.05.95,2.207,2.207,0,0,0,.4.85l21.95,27.85a2.227,2.227,0,0,0,.7.55,2.2,2.2,0,0,0,.9.2h11.7l-1.9-2h-9.8l-21.95-27.85,11.25-37.95,3.85.8.65-1.9Z"/>
      </g>
    </g>
    <g id="Group_649" data-name="Group 649">
      <g id="Group_648" data-name="Group 648">
        <path id="Path_2546" data-name="Path 2546" class="cls-13" d="M2203.7,70.5a1.766,1.766,0,0,0-.7-1.1,1.921,1.921,0,0,0-1.25-.45h-15.5a1.921,1.921,0,0,0-1.25.45,1.766,1.766,0,0,0-.7,1.1l-12,52.35a1.867,1.867,0,0,0,.1,1.2,2.13,2.13,0,0,0,.75.95l12.9,8.6a2.1,2.1,0,0,0,1.1.3h13.7a2.1,2.1,0,0,0,1.1-.3l12.9-8.6a2.13,2.13,0,0,0,.75-.95,1.867,1.867,0,0,0,.1-1.2l-12-52.35m-29.45,52.8,3.45-14.6,8.55-37.75h15.5l8.55,37.75,3.45,14.6-12.9,8.6h-13.7Z"/>
        <path id="Path_2547" data-name="Path 2547" class="cls-14" d="M2190.55,131.9h6.9l12.85-23.2-8.55-37.75h-15.5l-8.55,37.75Z"/>
        <path id="Path_2548" data-name="Path 2548" class="cls-15" d="M2213.75,123.3l-3.45-14.6-12.85,23.2h3.4l12.9-8.6m-36.05-14.6-3.45,14.6,12.9,8.6h3.4Z"/>
      </g>
    </g>
    <g id="Group_651" data-name="Group 651">
      <g id="Group_650" data-name="Group 650">
        <path id="Path_2549" data-name="Path 2549" class="cls-16" d="M2194,109.3a7.857,7.857,0,0,0-8,8,7.68,7.68,0,0,0,2.3,5.65,7.761,7.761,0,0,0,5.7,2.35Z"/>
        <path id="Path_2550" data-name="Path 2550" class="cls-17" d="M2194.2,109.3h-.2v16h.2a8.029,8.029,0,0,0,7.8-8,7.941,7.941,0,0,0-7.8-8Z"/>
      </g>
    </g>
  </g>
</svg>
