<svg xmlns="http://www.w3.org/2000/svg" width="100%" height="100%"  viewBox="0 0 79.856 105.65">
  <defs>
    <style>
      .cls-1 {
        fill: #7b7b7b;
      }

      .cls-2 {
        fill: #cbcbcb;
      }

      .cls-3 {
        fill: #aaa;
      }

      .cls-4 {
        fill: #484848;
      }

      .cls-5 {
        fill: #5b5b5b;
      }

      .cls-6 {
        fill: #626262;
      }

      .cls-7 {
        fill: #ac3939;
      }

      .cls-8 {
        fill: #bd3e3e;
      }

      .cls-9 {
        fill: #e9e9e9;
      }

      .cls-10 {
        fill: #802b2b;
      }

      .cls-11 {
        fill: #bbb;
      }

      .cls-12 {
        fill: #a3a3a3;
      }

      .cls-13 {
        fill: #d9d9d9;
      }

      .cls-14 {
        fill: #eee;
      }

      .cls-15 {
        fill: #5d4b6b;
      }

      .cls-16 {
        fill: #4a3c55;
      }
    </style>
  </defs>
  <g id="vice" transform="translate(-66.1 2108.875) rotate(-90)">
    <g id="Group_627" data-name="Group 627">
      <g id="Group_626" data-name="Group 626">
        <path id="Path_2500" data-name="Path 2500" class="cls-1" d="M2026.5,97.55a1.9,1.9,0,0,0-1.4.55l-2,2a1.975,1.975,0,0,0-.6,1.45v10a1.816,1.816,0,0,0,.6,1.4l3.4,3.45v4.3l-1.4,1.4a1.975,1.975,0,0,0-.6,1.45v4a1.888,1.888,0,0,0,.1.6l2,6a1.756,1.756,0,0,0,.75,1,1.789,1.789,0,0,0,1.15.4h4a2,2,0,0,0,1.2-.4,1.834,1.834,0,0,0,.7-1l2-6a1.888,1.888,0,0,0,.1-.6v-4a2.069,2.069,0,0,0-.55-1.45l-1.45-1.4v-4.3l3.45-3.45a1.9,1.9,0,0,0,.55-1.4v-10a2.069,2.069,0,0,0-.55-1.45l-2-2a2.07,2.07,0,0,0-1.45-.55h-8m-2,14v-10l2-2h8l2,2v10l-4,4v6l2,2v4l-2,6h-4l-2-6v-4l2-2v-6Z"/>
        <path id="Path_2501" data-name="Path 2501" class="cls-2" d="M2034.5,123.55h-8v4l2,6h4l2-6v-4m-10-22v10l4,4h4l4-4v-10l-2-2h-8Z"/>
        <path id="Path_2502" data-name="Path 2502" class="cls-3" d="M2028.5,121.55l-2,2h8l-2-2v-6h-4Z"/>
      </g>
    </g>
    <g id="Group_629" data-name="Group 629">
      <g id="Group_628" data-name="Group 628">
        <path id="Path_2503" data-name="Path 2503" class="cls-1" d="M2077.5,97.55a1.9,1.9,0,0,0-1.4.55l-2,2a1.975,1.975,0,0,0-.6,1.45v10a1.815,1.815,0,0,0,.6,1.4l3.4,3.45v4.3l-1.4,1.4a1.975,1.975,0,0,0-.6,1.45v4a1.888,1.888,0,0,0,.1.6l2,6a1.755,1.755,0,0,0,.75,1,1.788,1.788,0,0,0,1.15.4h4a2,2,0,0,0,1.2-.4,1.834,1.834,0,0,0,.7-1l2-6a1.888,1.888,0,0,0,.1-.6v-4a2.069,2.069,0,0,0-.55-1.45l-1.45-1.4v-4.3l3.45-3.45a1.9,1.9,0,0,0,.55-1.4v-10a2.069,2.069,0,0,0-.55-1.45l-2-2a2.069,2.069,0,0,0-1.45-.55h-8m10,4v10l-4,4v6l2,2v4l-2,6h-4l-2-6v-4l2-2v-6l-4-4v-10l2-2h8Z"/>
        <path id="Path_2504" data-name="Path 2504" class="cls-2" d="M2085.5,123.55h-8v4l2,6h4l2-6v-4m2-12v-10l-2-2h-8l-2,2v10l4,4h4Z"/>
        <path id="Path_2505" data-name="Path 2505" class="cls-3" d="M2079.5,121.55l-2,2h8l-2-2v-6h-4Z"/>
      </g>
    </g>
    <g id="Group_631" data-name="Group 631">
      <g id="Group_630" data-name="Group 630">
        <path id="Path_2506" data-name="Path 2506" class="cls-4" d="M2051.5,72.1v-4a1.89,1.89,0,0,0-2-2h-17a1.9,1.9,0,0,0-1.4.55,2.424,2.424,0,0,0-.3.35,2.1,2.1,0,0,0-.3,1.1v4a1.928,1.928,0,0,0,.25.95l5.45,10a1.635,1.635,0,0,0,.75.75,1.764,1.764,0,0,0,1,.3h7a1.877,1.877,0,0,0,1.1-.35,2.345,2.345,0,0,0,.75-.85l4.55-10a2.017,2.017,0,0,0,.15-.8m-2-4v4l-4.55,10h-7l-5.45-10v-4Z"/>
        <path id="Path_2507" data-name="Path 2507" class="cls-5" d="M2037.95,82.1h7l4.55-10h-17Z"/>
        <path id="Path_2508" data-name="Path 2508" class="cls-6" d="M2049.5,72.1v-4h-17v4Z"/>
      </g>
    </g>
    <g id="Group_633" data-name="Group 633">
      <g id="Group_632" data-name="Group 632">
        <path id="Path_2509" data-name="Path 2509" class="cls-4" d="M2060.5,68.1v4a1.927,1.927,0,0,0,.25.95l5.45,10a1.636,1.636,0,0,0,.75.75,1.764,1.764,0,0,0,1,.3h7a1.876,1.876,0,0,0,1.1-.35,2.343,2.343,0,0,0,.75-.85l4.55-10a2.017,2.017,0,0,0,.15-.8v-4a1.89,1.89,0,0,0-2-2h-17a1.9,1.9,0,0,0-1.4.55,2.41,2.41,0,0,0-.3.35,2.1,2.1,0,0,0-.3,1.1m2,4v-4h17v4l-4.55,10h-7Z"/>
        <path id="Path_2510" data-name="Path 2510" class="cls-5" d="M2067.95,82.1h7l4.55-10h-17Z"/>
        <path id="Path_2511" data-name="Path 2511" class="cls-6" d="M2062.5,68.1v4h17v-4Z"/>
      </g>
    </g>
    <g id="Group_635" data-name="Group 635">
      <g id="Group_634" data-name="Group 634">
        <path id="Path_2512" data-name="Path 2512" class="cls-7" d="M2041.1,72.1l-5.05,2.1a16.525,16.525,0,0,1-2.05.9l-13.7,5.95-10.7,40,18.9,22.3,3.55-1.4-6.35-9.05,8.35-19.35,6.35-5.75,6.45-24.05L2041.1,72.1m-8.95,14.6a1.19,1.19,0,0,1,.95,1.65l-1.75,6.4q-.3,1.2-1.6.85l-6.4-1.7a1.147,1.147,0,0,1-.9-1.55l1.75-6.4q.35-1.3,1.55-.95l6.4,1.7M2021.2,97.15a1.113,1.113,0,0,1,1.55-.9l6.4,1.7a1.156,1.156,0,0,1,.95,1.6l-1.75,6.4a1.129,1.129,0,0,1-1.6.9l-6.4-1.7a1.182,1.182,0,0,1-.9-1.6l1.75-6.4m54.85-22.95L2071,72.1l-5.75,11.65,6.45,24.05,6.35,5.75,8.35,19.35-6.35,9.05,3.55,1.4,18.9-22.3-10.7-40-13.7-5.95a16.509,16.509,0,0,1-2.05-.9M2079,88.35a1.19,1.19,0,0,1,.95-1.65l6.4-1.7q1.2-.35,1.55.95l1.75,6.4a1.147,1.147,0,0,1-.9,1.55l-6.4,1.7q-1.3.35-1.6-.85l-1.75-6.4m10.35,7.9a1.113,1.113,0,0,1,1.55.9l1.75,6.4a1.182,1.182,0,0,1-.9,1.6l-6.4,1.7a1.129,1.129,0,0,1-1.6-.9l-1.75-6.4a1.156,1.156,0,0,1,.95-1.6Z"/>
        <path id="Path_2513" data-name="Path 2513" class="cls-8" d="M2022.75,96.25a1.113,1.113,0,0,0-1.55.9l-1.75,6.4a1.182,1.182,0,0,0,.9,1.6l6.4,1.7a1.129,1.129,0,0,0,1.6-.9l1.75-6.4a1.156,1.156,0,0,0-.95-1.6l-6.4-1.7m10.35-7.9a1.19,1.19,0,0,0-.95-1.65l-6.4-1.7q-1.2-.35-1.55.95l-1.75,6.4a1.147,1.147,0,0,0,.9,1.55l6.4,1.7q1.3.35,1.6-.85l1.75-6.4m57.8,8.8a1.113,1.113,0,0,0-1.55-.9l-6.4,1.7a1.156,1.156,0,0,0-.95,1.6l1.75,6.4a1.129,1.129,0,0,0,1.6.9l6.4-1.7a1.182,1.182,0,0,0,.9-1.6l-1.75-6.4M2079.95,86.7a1.19,1.19,0,0,0-.95,1.65l1.75,6.4q.3,1.2,1.6.85l6.4-1.7a1.147,1.147,0,0,0,.9-1.55l-1.75-6.4q-.35-1.3-1.55-.95Z"/>
        <path id="Path_2514" data-name="Path 2514" class="cls-9" d="M2041.1,72.1l-.5-1-23.25,6.15-12.1,45.15,21.4,21.6,1.85-.65-18.9-22.3,10.7-40L2034,75.1a16.525,16.525,0,0,0,2.05-.9l5.05-2.1m29.9,0,5.05,2.1a16.509,16.509,0,0,0,2.05.9l13.7,5.95,10.7,40-18.9,22.3,1.85.65,21.4-21.6-12.1-45.15L2071.5,71.1Z"/>
        <path id="Path_2515" data-name="Path 2515" class="cls-10" d="M2042.85,71.2l-1.75.9,5.75,11.65-6.45,24.05-6.35,5.75-8.35,19.35,6.35,9.05-3.55,1.4,1.5,1.5,2.75-1.05a2.129,2.129,0,0,0,.95-.75,1.535,1.535,0,0,0,.3-1.1,1.858,1.858,0,0,0-.35-1.2l-5.7-8.05,7.75-17.95,6.05-5.55a1.456,1.456,0,0,0,.6-.9l6.45-24.05a1.88,1.88,0,0,0-.15-1.4l-5.8-11.65m20.6,11.65a1.881,1.881,0,0,0-.15,1.4l6.45,24.05a1.456,1.456,0,0,0,.6.9l6.05,5.55,7.75,17.95-5.7,8.05a1.858,1.858,0,0,0-.35,1.2,1.535,1.535,0,0,0,.3,1.1,2.13,2.13,0,0,0,.95.75l2.75,1.05,1.5-1.5-3.55-1.4,6.35-9.05-8.35-19.35-6.35-5.75-6.45-24.05L2071,72.1l-1.75-.9Z"/>
        <path id="Path_2516" data-name="Path 2516" class="cls-11" d="M2041.1,72.1l1.75-.9-.45-1.05a2.56,2.56,0,0,0-1.05-.9,2.348,2.348,0,0,0-1.3-.15l-23.2,6.15a3.244,3.244,0,0,0-.95.6,1.988,1.988,0,0,0-.5.85l-12.1,45.15a2.055,2.055,0,0,0,0,1.1,2.637,2.637,0,0,0,.55.8l21.4,21.6a2.1,2.1,0,0,0,1,.55,1.581,1.581,0,0,0,1.1-.1l2.65-.95-1.5-1.5-1.85.65-21.4-21.6,12.1-45.15,23.25-6.15.5,1m67.15,51.65a2.635,2.635,0,0,0,.55-.8,2.057,2.057,0,0,0,0-1.1L2096.7,76.7a1.986,1.986,0,0,0-.5-.85,3.247,3.247,0,0,0-.95-.6l-23.2-6.15a2.349,2.349,0,0,0-1.3.15,2.562,2.562,0,0,0-1.05.9l-.45,1.05,1.75.9.5-1,23.25,6.15,12.1,45.15-21.4,21.6-1.85-.65-1.5,1.5,2.65.95a1.581,1.581,0,0,0,1.1.1,2.1,2.1,0,0,0,1-.55Z"/>
      </g>
    </g>
    <g id="Group_637" data-name="Group 637">
      <g id="Group_636" data-name="Group 636">
        <path id="Path_2517" data-name="Path 2517" class="cls-12" d="M2036.2,90.65a1.721,1.721,0,0,0-.1,1.4l11,37a1.748,1.748,0,0,0,.7,1.05,2,2,0,0,0,1.2.4h14a2.066,2.066,0,0,0,1.95-1.45l11-37a1.881,1.881,0,0,0-.15-1.4l-7-15a2.459,2.459,0,0,0-.7-.85,2.1,2.1,0,0,0-1.1-.3h-22a1.849,1.849,0,0,0-1.05.3,2.275,2.275,0,0,0-.75.85l-7,15M2048,76.5h19l7,15-4,13-7,24h-14l-7-24-4-13,7-15Z"/>
        <path id="Path_2518" data-name="Path 2518" class="cls-13" d="M2074,91.5l-7-15h-3l6,28,4-13m-26-15h-3l-7,15,4,13Z"/>
        <path id="Path_2519" data-name="Path 2519" class="cls-14" d="M2064,76.5h-16l-6,28,7,24h14l7-24Z"/>
      </g>
    </g>
    <g id="Group_639" data-name="Group 639">
      <g id="Group_638" data-name="Group 638">
        <path id="Path_2520" data-name="Path 2520" class="cls-15" d="M2056,90.25h-2.75l-4,6.05,4.25,23h2.5Z"/>
        <path id="Path_2521" data-name="Path 2521" class="cls-16" d="M2062.75,96.3l-4-6.05H2056V119.3h2.5Z"/>
      </g>
    </g>
  </g>
</svg>
